{
.appVersion = "3039";
DisplayStrings = (
"2",
"3",
"4",
"5",
"6",
"7",
"8",
"9",
"%",
"-",
"\"",
"'",
"&",
$,
"@",
"^",
"`",
"0123456789:;<=>?@ABCDEFGHIJKLMNOPQRSTUVWXYZ[/backslash ]^_`",
N,
b,
c,
d,
e,
f,
g,
h,
i,
j,
k,
abcdefghijk,
l,
m,
on,
o,
p,
q,
r,
s,
t,
u,
v,
w,
x,
y,
z,
"|",
"{",
"}",
"¨",
"´",
"/circumflex",
"/ring",
"/tilde",
"¯",
"¸",
"/ha-ethiopic",
"/hu-ethiopic",
"/hi-ethiopic",
"/haa-ethiopic",
"/hee-ethiopic",
"/he-ethiopic",
"/ho-ethiopic",
"/li-ethiopic",
"/hha.base/hha-ethiopic",
"/_smart.hu/hhu-ethiopic",
"/two-ethiopic",
"/three-ethiopic",
"/four-ethiopic",
"/five-ethiopic",
"/hundred-ethiopic",
"/six-ethiopic",
"/eight-ethiopic",
"/nine-ethiopic",
"/ten-ethiopic",
"/seventy-ethiopic",
"/tenthousand-ethiopic",
"/ninety-ethiopic",
"/fifty-ethiopic",
"/sixty-ethiopic",
"/one-ethiopic",
"/seven-ethiopic",
"½",
"¼",
"¾",
"ª",
"º",
"´Á",
"Æ",
"Ç",
"Ð",
"IÍ",
"Í",
"/circumflex Ô",
"`À",
"Þ",
"/tilde ã",
"ç",
"ð",
"/idotless",
n,
"ø",
"/oe",
"þ",
"ß",
"²",
"³",
"/euro",
"/foursuperior",
"¢",
"©",
"°",
"®",
"§",
"¤",
"£",
"¥",
"¦",
"=±",
"±",
"¬",
"µ",
"¶",
"/_smart.hi/hhi-ethiopic",
"/_smart.haa/hhaa-ethiopic",
"/_smart.hee/hhee-ethiopic",
"/_smart.he.acute/hhe-ethiopic",
"/_smart.ho/hho-ethiopic",
"/_smart.hwa/hhwa-ethiopic",
"/_smart.haa/_smart.hee/_smart.hi/_smart.ho/_smart.hu/_smart.hwa/_smart.he.acute",
"/_smart.haa",
"/_smart.hee",
"/_smart.hi",
"/_smart.ho",
"/_smart.hu",
"/_smart.hwa",
"/_smart.he.acute",
"/_smart.neck/hha-ethiopic",
"/hha.base/hha-ethiopic",
"/hha.base/hhe-ethiopic",
"/ma.base/ma-ethiopic",
"/ma.base/ma-ethiopic",
"/ma.base/ma-ethiopic",
"/mi-ethiopic",
"/ma-ethiopic",

glyphs = (
{
glyphname = A;
lastChange = "2020-12-29 09:43:39 +0000";
layers = (
{
anchors = (
{
name = top;
position = "{299, 631}";
}
);
layerId = "A36D14D1-FF07-4574-A62D-30DF65569781";
paths = (
{
closed = 1;
nodes = (
"121 0 LINE SMOOTH",
"132 0 OFFCURVE",
"141 9 OFFCURVE",
"141 20 CURVE SMOOTH",
"140 587 LINE SMOOTH",
"140 617 OFFCURVE",
"153 631 OFFCURVE",
"167 628 CURVE SMOOTH",
"416 578 LINE SMOOTH",
"431 575 OFFCURVE",
"438 563 OFFCURVE",
"438 547 CURVE SMOOTH",
"439 20 LINE SMOOTH",
"439 9 OFFCURVE",
"452 0 OFFCURVE",
"482 0 CURVE SMOOTH",
"506 0 OFFCURVE",
"520 9 OFFCURVE",
"520 20 CURVE SMOOTH",
"520 591 LINE SMOOTH",
"520 598 OFFCURVE",
"516 610 OFFCURVE",
"501 613 CURVE SMOOTH",
"94 694 LINE SMOOTH",
"77 697 OFFCURVE",
"60 692 OFFCURVE",
"60 673 CURVE SMOOTH",
"60 20 LINE SMOOTH",
"60 9 OFFCURVE",
"69 0 OFFCURVE",
"80 0 CURVE SMOOTH"
);
},
{
closed = 1;
nodes = (
"441 260 LINE",
"441 308 LINE",
"120 308 LINE",
"120 260 LINE",
"120 260 LINE",
"120 260 LINE"
);
}
);
width = 580;
}
);
unicode = 0041;
},
{
glyphname = AE;
lastChange = "2020-12-29 09:43:39 +0000";
layers = (
{
anchors = (
{
name = top;
position = "{299, 701}";
}
);
layerId = "A36D14D1-FF07-4574-A62D-30DF65569781";
paths = (
{
closed = 1;
nodes = (
"121 0 LINE SMOOTH",
"132 0 OFFCURVE",
"141 9 OFFCURVE",
"141 20 CURVE SMOOTH",
"140 587 LINE SMOOTH",
"140 617 OFFCURVE",
"153 631 OFFCURVE",
"167 628 CURVE SMOOTH",
"416 578 LINE SMOOTH",
"431 575 OFFCURVE",
"438 563 OFFCURVE",
"438 547 CURVE SMOOTH",
"439 20 LINE SMOOTH",
"439 9 OFFCURVE",
"452 0 OFFCURVE",
"482 0 CURVE SMOOTH",
"506 0 OFFCURVE",
"520 9 OFFCURVE",
"520 20 CURVE SMOOTH",
"520 591 LINE SMOOTH",
"520 598 OFFCURVE",
"516 610 OFFCURVE",
"501 613 CURVE SMOOTH",
"94 694 LINE SMOOTH",
"77 697 OFFCURVE",
"60 692 OFFCURVE",
"60 673 CURVE SMOOTH",
"60 20 LINE SMOOTH",
"60 9 OFFCURVE",
"69 0 OFFCURVE",
"80 0 CURVE SMOOTH"
);
},
{
closed = 1;
nodes = (
"441 260 LINE",
"441 308 LINE",
"120 308 LINE",
"120 260 LINE",
"120 260 LINE",
"120 260 LINE"
);
},
{
closed = 1;
nodes = (
"759 260 LINE SMOOTH",
"773 260 OFFCURVE",
"783 270 OFFCURVE",
"783 284 CURVE SMOOTH",
"783 298 OFFCURVE",
"773 308 OFFCURVE",
"759 308 CURVE SMOOTH",
"462 308 LINE",
"462 260 LINE",
"462 260 LINE",
"462 260 LINE"
);
},
{
closed = 1;
nodes = (
"501 0 LINE SMOOTH",
"512 0 OFFCURVE",
"521 9 OFFCURVE",
"521 20 CURVE SMOOTH",
"520 587 LINE SMOOTH",
"520 617 OFFCURVE",
"533 631 OFFCURVE",
"547 628 CURVE SMOOTH",
"786 578 LINE SMOOTH",
"797 576 OFFCURVE",
"808 580 OFFCURVE",
"811 599 CURVE SMOOTH",
"814 619 OFFCURVE",
"805 629 OFFCURVE",
"793 631 CURVE SMOOTH",
"474 694 LINE SMOOTH",
"457 697 OFFCURVE",
"440 692 OFFCURVE",
"440 673 CURVE SMOOTH",
"440 20 LINE SMOOTH",
"440 9 OFFCURVE",
"449 0 OFFCURVE",
"460 0 CURVE SMOOTH"
);
},
{
closed = 1;
nodes = (
"797 0 LINE SMOOTH",
"811 0 OFFCURVE",
"821 10 OFFCURVE",
"821 24 CURVE SMOOTH",
"821 38 OFFCURVE",
"811 48 OFFCURVE",
"797 48 CURVE SMOOTH",
"500 48 LINE",
"500 0 LINE",
"500 0 LINE",
"500 0 LINE"
);
}
);
width = 881;
}
);
unicode = 00C6;
},
{
glyphname = B;
lastChange = "2020-12-29 09:43:39 +0000";
layers = (
{
layerId = "A36D14D1-FF07-4574-A62D-30DF65569781";
paths = (
{
closed = 1;
nodes = (
"121 0 LINE SMOOTH",
"132 0 OFFCURVE",
"141 9 OFFCURVE",
"141 20 CURVE SMOOTH",
"140 587 LINE SMOOTH",
"140 617 OFFCURVE",
"153 631 OFFCURVE",
"167 628 CURVE SMOOTH",
"376 578 LINE SMOOTH",
"391 574 OFFCURVE",
"398 563 OFFCURVE",
"398 547 CURVE SMOOTH",
"398 305 LINE",
"480 305 LINE",
"480 591 LINE SMOOTH",
"480 598 OFFCURVE",
"476 610 OFFCURVE",
"461 613 CURVE SMOOTH",
"94 694 LINE SMOOTH",
"77 698 OFFCURVE",
"60 692 OFFCURVE",
"60 673 CURVE SMOOTH",
"60 20 LINE SMOOTH",
"60 9 OFFCURVE",
"69 0 OFFCURVE",
"80 0 CURVE SMOOTH"
);
},
{
closed = 1;
nodes = (
"484 0 LINE",
"502 50 LINE",
"120 48 LINE",
"120 0 LINE",
"120 0 LINE",
"120 0 LINE"
);
},
{
closed = 1;
nodes = (
"441 260 LINE",
"441 308 LINE",
"120 308 LINE",
"120 260 LINE",
"120 260 LINE",
"120 260 LINE"
);
},
{
closed = 1;
nodes = (
"506 0 OFFCURVE",
"520 6 OFFCURVE",
"520 17 CURVE SMOOTH",
"520 285 LINE SMOOTH",
"520 299 OFFCURVE",
"510 309 OFFCURVE",
"496 309 CURVE SMOOTH",
"438 309 LINE",
"439 20 LINE SMOOTH",
"439 9 OFFCURVE",
"452 0 OFFCURVE",
"482 0 CURVE SMOOTH"
);
}
);
width = 580;
}
);
unicode = 0042;
},
{
glyphname = C;
lastChange = "2020-12-29 09:43:39 +0000";
layers = (
{
layerId = "A36D14D1-FF07-4574-A62D-30DF65569781";
paths = (
{
closed = 1;
nodes = (
"121 0 LINE SMOOTH",
"132 0 OFFCURVE",
"141 9 OFFCURVE",
"141 20 CURVE SMOOTH",
"140 587 LINE SMOOTH",
"140 617 OFFCURVE",
"153 631 OFFCURVE",
"167 628 CURVE SMOOTH",
"406 578 LINE SMOOTH",
"417 576 OFFCURVE",
"428 580 OFFCURVE",
"431 599 CURVE SMOOTH",
"434 619 OFFCURVE",
"425 629 OFFCURVE",
"413 631 CURVE SMOOTH",
"94 694 LINE SMOOTH",
"77 697 OFFCURVE",
"60 692 OFFCURVE",
"60 673 CURVE SMOOTH",
"60 20 LINE SMOOTH",
"60 9 OFFCURVE",
"69 0 OFFCURVE",
"80 0 CURVE SMOOTH"
);
},
{
closed = 1;
nodes = (
"417 0 LINE SMOOTH",
"431 0 OFFCURVE",
"441 10 OFFCURVE",
"441 24 CURVE SMOOTH",
"441 38 OFFCURVE",
"431 48 OFFCURVE",
"417 48 CURVE SMOOTH",
"120 48 LINE",
"120 0 LINE",
"120 0 LINE",
"120 0 LINE"
);
}
);
width = 501;
}
);
unicode = 0043;
},
{
glyphname = D;
lastChange = "2020-12-29 09:43:39 +0000";
layers = (
{
layerId = "A36D14D1-FF07-4574-A62D-30DF65569781";
paths = (
{
closed = 1;
nodes = (
"116 0 OFFCURVE",
"232 19 OFFCURVE",
"471 60 CURVE SMOOTH",
"512 67 OFFCURVE",
"520 78 OFFCURVE",
"520 89 CURVE SMOOTH",
"520 591 LINE SMOOTH",
"520 598 OFFCURVE",
"516 610 OFFCURVE",
"501 613 CURVE SMOOTH",
"94 694 LINE SMOOTH",
"77 697 OFFCURVE",
"60 692 OFFCURVE",
"60 673 CURVE SMOOTH",
"60 20 LINE SMOOTH",
"60 9 OFFCURVE",
"69 0 OFFCURVE",
"80 0 CURVE SMOOTH"
);
},
{
closed = 1;
nodes = (
"155 54 OFFCURVE",
"141 66 OFFCURVE",
"141 83 CURVE SMOOTH",
"140 587 LINE SMOOTH",
"140 617 OFFCURVE",
"153 631 OFFCURVE",
"167 628 CURVE SMOOTH",
"416 578 LINE SMOOTH",
"431 575 OFFCURVE",
"438 563 OFFCURVE",
"438 547 CURVE SMOOTH",
"439 123 LINE SMOOTH",
"439 112 OFFCURVE",
"431 102 OFFCURVE",
"420 100 CURVE SMOOTH",
"171 57 LINE",
"171 57 LINE",
"171 57 LINE"
);
}
);
width = 580;
}
);
unicode = 0044;
},
{
glyphname = Eth;
lastChange = "2020-12-29 09:43:39 +0000";
layers = (
{
layerId = "A36D14D1-FF07-4574-A62D-30DF65569781";
paths = (
{
closed = 1;
nodes = (
"159 0 OFFCURVE",
"275 19 OFFCURVE",
"514 60 CURVE SMOOTH",
"555 67 OFFCURVE",
"563 78 OFFCURVE",
"563 89 CURVE SMOOTH",
"563 591 LINE SMOOTH",
"563 598 OFFCURVE",
"559 610 OFFCURVE",
"544 613 CURVE SMOOTH",
"137 694 LINE SMOOTH",
"120 697 OFFCURVE",
"103 692 OFFCURVE",
"103 673 CURVE SMOOTH",
"103 20 LINE SMOOTH",
"103 9 OFFCURVE",
"112 0 OFFCURVE",
"123 0 CURVE SMOOTH"
);
},
{
closed = 1;
nodes = (
"198 54 OFFCURVE",
"184 66 OFFCURVE",
"184 83 CURVE SMOOTH",
"183 587 LINE SMOOTH",
"183 617 OFFCURVE",
"196 631 OFFCURVE",
"210 628 CURVE SMOOTH",
"459 578 LINE SMOOTH",
"474 575 OFFCURVE",
"481 563 OFFCURVE",
"481 547 CURVE SMOOTH",
"482 123 LINE SMOOTH",
"482 112 OFFCURVE",
"474 102 OFFCURVE",
"463 100 CURVE SMOOTH",
"214 57 LINE",
"214 57 LINE",
"214 57 LINE"
);
},
{
closed = 1;
nodes = (
"60 322 LINE",
"271 322 LINE",
"271 402 LINE",
"60 402 LINE",
"60 402 LINE",
"60 402 LINE"
);
}
);
width = 623;
}
);
unicode = 00D0;
},
{
glyphname = E;
lastChange = "2020-12-29 09:43:39 +0000";
layers = (
{
anchors = (
{
name = top;
position = "{245, 638}";
}
);
components = (
{
name = C;
}
);
layerId = "A36D14D1-FF07-4574-A62D-30DF65569781";
paths = (
{
closed = 1;
nodes = (
"369 260 LINE SMOOTH",
"383 260 OFFCURVE",
"393 270 OFFCURVE",
"393 284 CURVE SMOOTH",
"393 298 OFFCURVE",
"383 308 OFFCURVE",
"369 308 CURVE SMOOTH",
"72 308 LINE",
"72 260 LINE",
"72 260 LINE",
"72 260 LINE"
);
}
);
width = 491;
}
);
unicode = 0045;
},
{
glyphname = F;
lastChange = "2020-12-29 09:43:39 +0000";
layers = (
{
components = (
{
name = _bar.up;
transform = "{1, 0, 0, 1, 10, 0}";
}
);
layerId = "A36D14D1-FF07-4574-A62D-30DF65569781";
paths = (
{
closed = 1;
nodes = (
"80 270 OFFCURVE",
"90 260 OFFCURVE",
"104 260 CURVE SMOOTH",
"407 260 LINE SMOOTH",
"421 260 OFFCURVE",
"431 270 OFFCURVE",
"431 284 CURVE SMOOTH",
"431 298 OFFCURVE",
"421 308 OFFCURVE",
"407 308 CURVE SMOOTH",
"104 308 LINE SMOOTH",
"90 308 OFFCURVE",
"80 298 OFFCURVE",
"80 284 CURVE SMOOTH"
);
},
{
closed = 1;
nodes = (
"84 662 OFFCURVE",
"94 652 OFFCURVE",
"108 652 CURVE SMOOTH",
"411 652 LINE SMOOTH",
"425 652 OFFCURVE",
"435 662 OFFCURVE",
"435 676 CURVE SMOOTH",
"435 690 OFFCURVE",
"425 700 OFFCURVE",
"411 700 CURVE SMOOTH",
"108 700 LINE SMOOTH",
"94 700 OFFCURVE",
"84 690 OFFCURVE",
"84 676 CURVE SMOOTH"
);
}
);
width = 495;
}
);
unicode = 0046;
},
{
glyphname = G;
lastChange = "2020-12-29 09:43:39 +0000";
layers = (
{
components = (
{
name = _bar.up;
transform = "{1, 0, 0, 1, 10, 0}";
},
{
name = _bar.part;
transform = "{0.85971, 0, 0, 1, -458, 2}";
},
{
name = _bar.part;
transform = "{1, 0, 0, 1, -733, 392}";
}
);
layerId = "A36D14D1-FF07-4574-A62D-30DF65569781";
paths = (
{
closed = 1;
nodes = (
"506 0 OFFCURVE",
"520 6 OFFCURVE",
"520 17 CURVE SMOOTH",
"520 285 LINE SMOOTH",
"520 299 OFFCURVE",
"510 309 OFFCURVE",
"496 309 CURVE SMOOTH",
"438 309 LINE",
"439 20 LINE SMOOTH",
"439 9 OFFCURVE",
"452 0 OFFCURVE",
"482 0 CURVE SMOOTH"
);
},
{
closed = 1;
nodes = (
"484 0 LINE",
"502 50 LINE",
"120 48 LINE",
"120 0 LINE",
"120 0 LINE",
"120 0 LINE"
);
}
);
width = 600;
}
);
unicode = 0047;
},
{
glyphname = H;
lastChange = "2020-12-29 09:43:39 +0000";
layers = (
{
components = (
{
name = _bar.up;
transform = "{1, 0, 0, 1, 10, 0}";
},
{
name = _bar.up;
transform = "{1, 0, 0, 1, 390, 0}";
}
);
layerId = "A36D14D1-FF07-4574-A62D-30DF65569781";
paths = (
{
closed = 1;
nodes = (
"441 260 LINE",
"441 308 LINE",
"120 308 LINE",
"120 260 LINE",
"120 260 LINE",
"120 260 LINE"
);
}
);
width = 581;
}
);
unicode = 0048;
},
{
glyphname = I;
lastChange = "2020-12-29 09:43:39 +0000";
layers = (
{
anchors = (
{
name = top;
position = "{103, 675}";
}
);
layerId = "A36D14D1-FF07-4574-A62D-30DF65569781";
paths = (
{
closed = 1;
nodes = (
"141 680 LINE SMOOTH",
"141 691 OFFCURVE",
"125 700 OFFCURVE",
"99 700 CURVE SMOOTH",
"76 700 OFFCURVE",
"60 692 OFFCURVE",
"60 673 CURVE SMOOTH",
"60 20 LINE SMOOTH",
"60 9 OFFCURVE",
"69 0 OFFCURVE",
"80 0 CURVE SMOOTH",
"121 0 LINE SMOOTH",
"132 0 OFFCURVE",
"141 9 OFFCURVE",
"141 20 CURVE SMOOTH"
);
}
);
width = 201;
}
);
unicode = 0049;
},
{
glyphname = J;
lastChange = "2020-12-29 09:43:39 +0000";
layers = (
{
layerId = "A36D14D1-FF07-4574-A62D-30DF65569781";
paths = (
{
closed = 1;
nodes = (
"262 -2 OFFCURVE",
"279 3 OFFCURVE",
"279 22 CURVE SMOOTH",
"279 675 LINE SMOOTH",
"279 686 OFFCURVE",
"270 695 OFFCURVE",
"259 695 CURVE SMOOTH",
"218 695 LINE SMOOTH",
"207 695 OFFCURVE",
"198 686 OFFCURVE",
"198 675 CURVE SMOOTH",
"199 108 LINE SMOOTH",
"199 78 OFFCURVE",
"186 65 OFFCURVE",
"172 67 CURVE SMOOTH",
"90 79 LINE SMOOTH",
"77 81 OFFCURVE",
"65 75 OFFCURVE",
"62 61 CURVE SMOOTH",
"61 58 LINE SMOOTH",
"58 43 OFFCURVE",
"67 30 OFFCURVE",
"81 28 CURVE SMOOTH",
"245 1 LINE",
"245 1 LINE",
"245 1 LINE"
);
}
);
width = 339;
}
);
unicode = 004A;
},
{
glyphname = K;
lastChange = "2020-12-29 09:43:39 +0000";
layers = (
{
components = (
{
name = _bar.up;
transform = "{1, 0, 0, 1, 10, 0}";
},
{
name = _bar.part;
transform = "{0.70711, 0.70711, -0.70711, 0.70711, -261, -492}";
}
);
layerId = "A36D14D1-FF07-4574-A62D-30DF65569781";
paths = (
{
closed = 1;
nodes = (
"389 -3 OFFCURVE",
"404 -3 OFFCURVE",
"414 7 CURVE SMOOTH",
"424 16 OFFCURVE",
"436 30 OFFCURVE",
"413 55 CURVE SMOOTH",
"162 331 LINE",
"128 284 LINE",
"380 7 LINE",
"380 7 LINE",
"380 7 LINE"
);
}
);
width = 486;
}
);
unicode = 004B;
},
{
glyphname = L;
lastChange = "2020-12-29 09:43:39 +0000";
layers = (
{
layerId = "A36D14D1-FF07-4574-A62D-30DF65569781";
paths = (
{
closed = 1;
nodes = (
"65 10 OFFCURVE",
"75 0 OFFCURVE",
"89 0 CURVE SMOOTH",
"392 0 LINE SMOOTH",
"406 0 OFFCURVE",
"416 10 OFFCURVE",
"416 24 CURVE SMOOTH",
"416 38 OFFCURVE",
"406 48 OFFCURVE",
"392 48 CURVE SMOOTH",
"89 48 LINE SMOOTH",
"75 48 OFFCURVE",
"65 38 OFFCURVE",
"65 24 CURVE SMOOTH"
);
},
{
closed = 1;
nodes = (
"141 680 LINE SMOOTH",
"141 691 OFFCURVE",
"125 700 OFFCURVE",
"99 700 CURVE SMOOTH",
"76 700 OFFCURVE",
"60 692 OFFCURVE",
"60 673 CURVE SMOOTH",
"60 20 LINE SMOOTH",
"60 9 OFFCURVE",
"69 0 OFFCURVE",
"80 0 CURVE SMOOTH",
"121 0 LINE SMOOTH",
"132 0 OFFCURVE",
"141 9 OFFCURVE",
"141 20 CURVE SMOOTH"
);
}
);
width = 476;
}
);
unicode = 004C;
},
{
glyphname = M;
lastChange = "2020-12-29 09:43:39 +0000";
layers = (
{
layerId = "A36D14D1-FF07-4574-A62D-30DF65569781";
paths = (
{
closed = 1;
nodes = (
"141 680 LINE SMOOTH",
"141 691 OFFCURVE",
"125 700 OFFCURVE",
"99 700 CURVE SMOOTH",
"76 700 OFFCURVE",
"60 692 OFFCURVE",
"60 673 CURVE SMOOTH",
"60 20 LINE SMOOTH",
"60 9 OFFCURVE",
"69 0 OFFCURVE",
"80 0 CURVE SMOOTH",
"121 0 LINE SMOOTH",
"132 0 OFFCURVE",
"141 9 OFFCURVE",
"141 20 CURVE SMOOTH"
);
},
{
closed = 1;
nodes = (
"94 652 LINE",
"294 335 LINE SMOOTH",
"301 324 OFFCURVE",
"316 321 OFFCURVE",
"327 330 CURVE",
"339 337 OFFCURVE",
"353 348 OFFCURVE",
"335 377 CURVE SMOOTH",
"136 692 LINE",
"136 692 LINE",
"136 692 LINE"
);
},
{
closed = 1;
nodes = (
"577 681 LINE SMOOTH",
"577 692 OFFCURVE",
"561 701 OFFCURVE",
"535 701 CURVE SMOOTH",
"512 701 OFFCURVE",
"496 693 OFFCURVE",
"496 674 CURVE SMOOTH",
"496 21 LINE SMOOTH",
"496 10 OFFCURVE",
"505 1 OFFCURVE",
"516 1 CURVE SMOOTH",
"557 1 LINE SMOOTH",
"568 1 OFFCURVE",
"577 10 OFFCURVE",
"577 21 CURVE SMOOTH"
);
},
{
closed = 1;
nodes = (
"303 377 LINE SMOOTH",
"285 348 OFFCURVE",
"299 337 OFFCURVE",
"311 330 CURVE",
"322 321 OFFCURVE",
"337 324 OFFCURVE",
"344 335 CURVE SMOOTH",
"544 652 LINE",
"502 692 LINE",
"502 692 LINE",
"502 692 LINE"
);
}
);
width = 637;
}
);
unicode = 004D;
},
{
glyphname = N;
lastChange = "2020-12-29 09:43:39 +0000";
layers = (
{
anchors = (
{
name = top;
position = "{273, 641}";
}
);
layerId = "A36D14D1-FF07-4574-A62D-30DF65569781";
paths = (
{
closed = 1;
nodes = (
"141 682 LINE SMOOTH",
"141 693 OFFCURVE",
"125 702 OFFCURVE",
"99 702 CURVE SMOOTH",
"76 702 OFFCURVE",
"60 694 OFFCURVE",
"60 675 CURVE SMOOTH",
"60 22 LINE SMOOTH",
"60 11 OFFCURVE",
"69 0 OFFCURVE",
"80 0 CURVE SMOOTH",
"121 0 LINE SMOOTH",
"132 0 OFFCURVE",
"141 11 OFFCURVE",
"141 22 CURVE SMOOTH"
);
},
{
closed = 1;
nodes = (
"132 707 OFFCURVE",
"91 703 OFFCURVE",
"81 695 CURVE SMOOTH",
"72 687 OFFCURVE",
"60 679 OFFCURVE",
"75 651 CURVE SMOOTH",
"415 8 LINE SMOOTH",
"420 -2 OFFCURVE",
"439 -2 OFFCURVE",
"449 8 CURVE SMOOTH",
"459 17 OFFCURVE",
"479 37 OFFCURVE",
"465 63 CURVE SMOOTH",
"140 691 LINE",
"140 691 LINE",
"140 691 LINE"
);
},
{
closed = 1;
nodes = (
"494 680 LINE SMOOTH",
"494 691 OFFCURVE",
"478 700 OFFCURVE",
"452 700 CURVE SMOOTH",
"429 700 OFFCURVE",
"413 692 OFFCURVE",
"413 673 CURVE SMOOTH",
"413 20 LINE SMOOTH",
"413 9 OFFCURVE",
"422 0 OFFCURVE",
"433 0 CURVE SMOOTH",
"474 0 LINE SMOOTH",
"485 0 OFFCURVE",
"494 9 OFFCURVE",
"494 20 CURVE SMOOTH"
);
}
);
width = 554;
}
);
unicode = 004E;
},
{
glyphname = O;
lastChange = "2020-12-29 09:43:39 +0000";
layers = (
{
anchors = (
{
name = top;
position = "{275, 647}";
}
);
layerId = "A36D14D1-FF07-4574-A62D-30DF65569781";
paths = (
{
closed = 1;
nodes = (
"414 0 LINE",
"415 0 LINE SMOOTH",
"439 0 OFFCURVE",
"450 9 OFFCURVE",
"453 20 CURVE SMOOTH",
"524 287 LINE",
"443 670 LINE SMOOTH",
"442 677 OFFCURVE",
"439 692 OFFCURVE",
"424 692 CURVE SMOOTH",
"157 694 LINE SMOOTH",
"140 694 OFFCURVE",
"126 692 OFFCURVE",
"123 673 CURVE SMOOTH",
"60 287 LINE",
"123 20 LINE SMOOTH",
"126 9 OFFCURVE",
"132 0 OFFCURVE",
"143 0 CURVE SMOOTH"
);
},
{
closed = 1;
nodes = (
"131 287 LINE",
"196 641 LINE",
"379 641 LINE",
"457 287 LINE",
"385 48 LINE",
"194 48 LINE",
"194 48 LINE",
"194 48 LINE"
);
}
);
width = 584;
}
);
unicode = 004F;
},
{
glyphname = P;
lastChange = "2020-12-29 09:43:39 +0000";
layers = (
{
layerId = "A36D14D1-FF07-4574-A62D-30DF65569781";
paths = (
{
closed = 1;
nodes = (
"121 0 LINE SMOOTH",
"132 0 OFFCURVE",
"141 9 OFFCURVE",
"141 20 CURVE SMOOTH",
"140 587 LINE SMOOTH",
"140 617 OFFCURVE",
"153 631 OFFCURVE",
"167 628 CURVE SMOOTH",
"416 578 LINE SMOOTH",
"431 575 OFFCURVE",
"438 563 OFFCURVE",
"438 547 CURVE SMOOTH",
"439 260 LINE",
"496 260 LINE SMOOTH",
"510 260 OFFCURVE",
"520 270 OFFCURVE",
"520 284 CURVE SMOOTH",
"520 591 LINE SMOOTH",
"520 598 OFFCURVE",
"516 610 OFFCURVE",
"501 613 CURVE SMOOTH",
"94 694 LINE SMOOTH",
"77 697 OFFCURVE",
"60 692 OFFCURVE",
"60 673 CURVE SMOOTH",
"60 20 LINE SMOOTH",
"60 9 OFFCURVE",
"69 0 OFFCURVE",
"80 0 CURVE SMOOTH"
);
},
{
closed = 1;
nodes = (
"441 260 LINE",
"441 308 LINE",
"120 308 LINE",
"120 260 LINE",
"120 260 LINE",
"120 260 LINE"
);
}
);
width = 580;
}
);
unicode = 0050;
},
{
glyphname = Thorn;
lastChange = "2020-12-29 09:43:39 +0000";
layers = (
{
layerId = "A36D14D1-FF07-4574-A62D-30DF65569781";
paths = (
{
closed = 1;
nodes = (
"520 615 OFFCURVE",
"439 601 OFFCURVE",
"106 615 CURVE",
"127 558 LINE",
"381 558 LINE SMOOTH",
"396 558 OFFCURVE",
"438 563 OFFCURVE",
"438 547 CURVE SMOOTH",
"439 260 LINE",
"496 260 LINE SMOOTH",
"510 260 OFFCURVE",
"520 270 OFFCURVE",
"520 284 CURVE SMOOTH",
"520 591 LINE",
"520 591 LINE",
"520 591 LINE"
);
},
{
closed = 1;
nodes = (
"441 260 LINE",
"441 308 LINE",
"120 308 LINE",
"120 260 LINE",
"120 260 LINE",
"120 260 LINE"
);
},
{
closed = 1;
nodes = (
"139 685 LINE",
"94 694 LINE SMOOTH",
"77 697 OFFCURVE",
"60 692 OFFCURVE",
"60 673 CURVE SMOOTH",
"60 20 LINE SMOOTH",
"60 9 OFFCURVE",
"69 0 OFFCURVE",
"80 0 CURVE SMOOTH",
"121 0 LINE SMOOTH",
"132 0 OFFCURVE",
"141 9 OFFCURVE",
"141 20 CURVE SMOOTH",
"140 587 LINE",
"140 587 LINE",
"140 587 LINE"
);
}
);
width = 580;
}
);
unicode = 00DE;
},
{
glyphname = Q;
lastChange = "2020-12-29 09:43:39 +0000";
layers = (
{
components = (
{
name = O;
}
);
layerId = "A36D14D1-FF07-4574-A62D-30DF65569781";
paths = (
{
closed = 1;
nodes = (
"221 103 LINE",
"440 -126 LINE SMOOTH",
"448 -134 OFFCURVE",
"461 -134 OFFCURVE",
"469 -126 CURVE SMOOTH",
"478 -118 OFFCURVE",
"488 -107 OFFCURVE",
"469 -86 CURVE SMOOTH",
"251 142 LINE",
"251 142 LINE",
"251 142 LINE"
);
}
);
width = 574;
}
);
unicode = 0051;
},
{
glyphname = R;
lastChange = "2020-12-29 09:43:39 +0000";
layers = (
{
components = (
{
name = P;
}
);
layerId = "A36D14D1-FF07-4574-A62D-30DF65569781";
paths = (
{
closed = 1;
nodes = (
"214 279 LINE",
"466 2 LINE SMOOTH",
"475 -8 OFFCURVE",
"490 -8 OFFCURVE",
"500 2 CURVE SMOOTH",
"510 11 OFFCURVE",
"521 25 OFFCURVE",
"499 50 CURVE SMOOTH",
"270 301 LINE",
"270 301 LINE",
"270 301 LINE"
);
}
);
width = 572;
}
);
unicode = 0052;
},
{
glyphname = S;
lastChange = "2020-12-29 09:43:39 +0000";
layers = (
{
layerId = "A36D14D1-FF07-4574-A62D-30DF65569781";
paths = (
{
closed = 1;
nodes = (
"392 0 LINE SMOOTH",
"416 0 OFFCURVE",
"430 9 OFFCURVE",
"430 20 CURVE SMOOTH",
"432 283 LINE SMOOTH",
"432 298 OFFCURVE",
"421 308 OFFCURVE",
"407 308 CURVE SMOOTH",
"165 308 LINE SMOOTH",
"151 308 OFFCURVE",
"141 317 OFFCURVE",
"141 332 CURVE SMOOTH",
"140 587 LINE SMOOTH",
"140 617 OFFCURVE",
"153 631 OFFCURVE",
"167 628 CURVE SMOOTH",
"406 578 LINE SMOOTH",
"417 576 OFFCURVE",
"428 580 OFFCURVE",
"431 599 CURVE SMOOTH",
"434 619 OFFCURVE",
"425 629 OFFCURVE",
"413 631 CURVE SMOOTH",
"94 694 LINE SMOOTH",
"77 697 OFFCURVE",
"60 692 OFFCURVE",
"60 673 CURVE SMOOTH",
"60 284 LINE SMOOTH",
"60 270 OFFCURVE",
"70 260 OFFCURVE",
"84 260 CURVE SMOOTH",
"340 260 LINE SMOOTH",
"354 260 OFFCURVE",
"364 250 OFFCURVE",
"364 235 CURVE SMOOTH",
"362 48 LINE",
"87 48 LINE SMOOTH",
"70 48 OFFCURVE",
"59 36 OFFCURVE",
"60 20 CURVE SMOOTH",
"61 9 OFFCURVE",
"69 0 OFFCURVE",
"80 0 CURVE SMOOTH"
);
}
);
width = 492;
}
);
unicode = 0053;
},
{
glyphname = T;
lastChange = "2020-12-29 09:43:39 +0000";
layers = (
{
layerId = "A36D14D1-FF07-4574-A62D-30DF65569781";
paths = (
{
closed = 1;
nodes = (
"267 680 LINE SMOOTH",
"267 691 OFFCURVE",
"251 700 OFFCURVE",
"225 700 CURVE SMOOTH",
"202 700 OFFCURVE",
"186 692 OFFCURVE",
"186 673 CURVE SMOOTH",
"186 20 LINE SMOOTH",
"186 9 OFFCURVE",
"195 0 OFFCURVE",
"206 0 CURVE SMOOTH",
"247 0 LINE SMOOTH",
"258 0 OFFCURVE",
"267 9 OFFCURVE",
"267 20 CURVE SMOOTH"
);
},
{
closed = 1;
nodes = (
"60 670 OFFCURVE",
"70 660 OFFCURVE",
"84 660 CURVE SMOOTH",
"387 660 LINE SMOOTH",
"401 660 OFFCURVE",
"411 670 OFFCURVE",
"411 684 CURVE SMOOTH",
"411 698 OFFCURVE",
"401 708 OFFCURVE",
"387 708 CURVE SMOOTH",
"84 708 LINE SMOOTH",
"70 708 OFFCURVE",
"60 698 OFFCURVE",
"60 684 CURVE SMOOTH"
);
}
);
width = 471;
}
);
unicode = 0054;
},
{
glyphname = U;
lastChange = "2020-12-29 09:43:39 +0000";
layers = (
{
anchors = (
{
name = top;
position = "{258, 661}";
}
);
layerId = "A36D14D1-FF07-4574-A62D-30DF65569781";
paths = (
{
closed = 1;
nodes = (
"100 10 OFFCURVE",
"110 0 OFFCURVE",
"124 0 CURVE SMOOTH",
"427 0 LINE SMOOTH",
"441 0 OFFCURVE",
"451 10 OFFCURVE",
"451 24 CURVE SMOOTH",
"451 38 OFFCURVE",
"441 48 OFFCURVE",
"427 48 CURVE SMOOTH",
"124 48 LINE SMOOTH",
"110 48 OFFCURVE",
"100 38 OFFCURVE",
"100 24 CURVE SMOOTH"
);
},
{
closed = 1;
nodes = (
"141 680 LINE SMOOTH",
"141 691 OFFCURVE",
"125 700 OFFCURVE",
"99 700 CURVE SMOOTH",
"76 700 OFFCURVE",
"60 692 OFFCURVE",
"60 673 CURVE SMOOTH",
"60 20 LINE SMOOTH",
"60 9 OFFCURVE",
"69 0 OFFCURVE",
"80 0 CURVE SMOOTH",
"121 0 LINE SMOOTH",
"132 0 OFFCURVE",
"141 9 OFFCURVE",
"141 20 CURVE SMOOTH"
);
},
{
closed = 1;
nodes = (
"481 680 LINE SMOOTH",
"481 691 OFFCURVE",
"465 700 OFFCURVE",
"439 700 CURVE SMOOTH",
"416 700 OFFCURVE",
"400 692 OFFCURVE",
"400 673 CURVE SMOOTH",
"400 20 LINE SMOOTH",
"400 9 OFFCURVE",
"409 0 OFFCURVE",
"420 0 CURVE SMOOTH",
"461 0 LINE SMOOTH",
"472 0 OFFCURVE",
"481 9 OFFCURVE",
"481 20 CURVE SMOOTH"
);
}
);
width = 541;
}
);
unicode = 0055;
},
{
glyphname = Y;
lastChange = "2020-12-29 09:43:39 +0000";
layers = (
{
anchors = (
{
name = top;
position = "{331, 626}";
}
);
layerId = "A36D14D1-FF07-4574-A62D-30DF65569781";
paths = (
{
closed = 1;
nodes = (
"375 259 LINE",
"603 612 LINE SMOOTH",
"620 639 OFFCURVE",
"609 648 OFFCURVE",
"601 656 CURVE SMOOTH",
"592 665 OFFCURVE",
"551 672 OFFCURVE",
"542 657 CURVE SMOOTH",
"294 257 LINE",
"294 257 LINE",
"294 257 LINE"
);
},
{
closed = 1;
nodes = (
"355 0 LINE SMOOTH",
"366 0 OFFCURVE",
"375 9 OFFCURVE",
"375 20 CURVE SMOOTH",
"375 293 LINE SMOOTH",
"375 304 OFFCURVE",
"359 313 OFFCURVE",
"333 313 CURVE SMOOTH",
"310 313 OFFCURVE",
"294 305 OFFCURVE",
"294 286 CURVE SMOOTH",
"294 20 LINE SMOOTH",
"294 9 OFFCURVE",
"303 0 OFFCURVE",
"314 0 CURVE SMOOTH"
);
},
{
closed = 1;
nodes = (
"130 655 LINE SMOOTH",
"121 670 OFFCURVE",
"80 663 OFFCURVE",
"71 654 CURVE SMOOTH",
"63 645 OFFCURVE",
"52 637 OFFCURVE",
"69 610 CURVE SMOOTH",
"295 260 LINE",
"375 259 LINE",
"375 259 LINE",
"375 259 LINE"
);
}
);
width = 672;
}
);
unicode = 0059;
},
{
glyphname = Z;
lastChange = "2020-12-29 09:43:39 +0000";
layers = (
{
layerId = "A36D14D1-FF07-4574-A62D-30DF65569781";
paths = (
{
closed = 1;
nodes = (
"96 11 OFFCURVE",
"106 1 OFFCURVE",
"120 1 CURVE SMOOTH",
"423 1 LINE SMOOTH",
"437 1 OFFCURVE",
"447 11 OFFCURVE",
"447 25 CURVE SMOOTH",
"447 39 OFFCURVE",
"437 49 OFFCURVE",
"423 49 CURVE SMOOTH",
"120 49 LINE SMOOTH",
"106 49 OFFCURVE",
"96 39 OFFCURVE",
"96 25 CURVE SMOOTH"
);
},
{
closed = 1;
nodes = (
"439 703 OFFCURVE",
"398 707 OFFCURVE",
"390 691 CURVE SMOOTH",
"65 63 LINE SMOOTH",
"51 37 OFFCURVE",
"71 17 OFFCURVE",
"81 8 CURVE SMOOTH",
"91 -2 OFFCURVE",
"110 -2 OFFCURVE",
"115 8 CURVE SMOOTH",
"455 651 LINE SMOOTH",
"470 679 OFFCURVE",
"458 687 OFFCURVE",
"449 695 CURVE SMOOTH"
);
},
{
closed = 1;
nodes = (
"74 664 OFFCURVE",
"84 654 OFFCURVE",
"98 654 CURVE SMOOTH",
"401 654 LINE SMOOTH",
"415 654 OFFCURVE",
"425 664 OFFCURVE",
"425 678 CURVE SMOOTH",
"425 692 OFFCURVE",
"415 702 OFFCURVE",
"401 702 CURVE SMOOTH",
"98 702 LINE SMOOTH",
"84 702 OFFCURVE",
"74 692 OFFCURVE",
"74 678 CURVE SMOOTH"
);
}
);
width = 522;
}
);
unicode = 005A;
},
{
glyphname = a;
lastChange = "2020-12-29 09:19:18 +0000";
layers = (
{
anchors = (
{
name = top;
position = "{251, 504}";
}
);
layerId = "A36D14D1-FF07-4574-A62D-30DF65569781";
paths = (
{
closed = 1;
nodes = (
"400 0 LINE SMOOTH",
"429 0 OFFCURVE",
"451 22 OFFCURVE",
"451 51 CURVE SMOOTH",
"451 449 LINE SMOOTH",
"451 478 OFFCURVE",
"429 500 OFFCURVE",
"400 500 CURVE SMOOTH",
"147 500 LINE",
"101 500 LINE SMOOTH",
"72 500 OFFCURVE",
"50 478 OFFCURVE",
"50 449 CURVE SMOOTH",
"50 413 LINE",
"131 414 LINE",
"131 439 LINE SMOOTH",
"131 445 OFFCURVE",
"140 452 OFFCURVE",
"151 452 CURVE SMOOTH",
"350 452 LINE SMOOTH",
"361 452 OFFCURVE",
"370 447 OFFCURVE",
"370 439 CURVE SMOOTH",
"370 294 LINE",
"101 294 LINE SMOOTH",
"72 294 OFFCURVE",
"50 272 OFFCURVE",
"50 243 CURVE SMOOTH",
"50 51 LINE SMOOTH",
"50 22 OFFCURVE",
"72 0 OFFCURVE",
"101 0 CURVE SMOOTH"
);
},
{
closed = 1;
nodes = (
"140 48 OFFCURVE",
"131 58 OFFCURVE",
"131 71 CURVE SMOOTH",
"131 229 LINE SMOOTH",
"131 240 OFFCURVE",
"140 246 OFFCURVE",
"151 246 CURVE SMOOTH",
"350 246 LINE SMOOTH",
"361 246 OFFCURVE",
"370 236 OFFCURVE",
"370 225 CURVE SMOOTH",
"370 71 LINE SMOOTH",
"370 60 OFFCURVE",
"361 48 OFFCURVE",
"350 48 CURVE SMOOTH",
"151 48 LINE",
"151 48 LINE",
"151 48 LINE"
);
}
);
width = 501;
}
);
unicode = 0061;
},
{
glyphname = b;
lastChange = "2020-12-29 09:19:18 +0000";
layers = (
{
layerId = "A36D14D1-FF07-4574-A62D-30DF65569781";
paths = (
{
closed = 1;
nodes = (
"400 0 LINE SMOOTH",
"429 0 OFFCURVE",
"451 22 OFFCURVE",
"451 51 CURVE SMOOTH",
"451 449 LINE SMOOTH",
"451 478 OFFCURVE",
"429 500 OFFCURVE",
"400 500 CURVE SMOOTH",
"131 500 LINE",
"131 685 LINE SMOOTH",
"131 696 OFFCURVE",
"122 705 OFFCURVE",
"111 705 CURVE SMOOTH",
"70 705 LINE SMOOTH",
"59 705 OFFCURVE",
"50 696 OFFCURVE",
"50 685 CURVE SMOOTH",
"50 51 LINE SMOOTH",
"50 22 OFFCURVE",
"72 0 OFFCURVE",
"101 0 CURVE SMOOTH"
);
},
{
closed = 1;
nodes = (
"131 439 LINE SMOOTH",
"131 445 OFFCURVE",
"140 452 OFFCURVE",
"151 452 CURVE SMOOTH",
"350 452 LINE SMOOTH",
"361 452 OFFCURVE",
"370 447 OFFCURVE",
"370 439 CURVE SMOOTH",
"370 71 LINE SMOOTH",
"370 60 OFFCURVE",
"361 48 OFFCURVE",
"350 48 CURVE SMOOTH",
"151 48 LINE SMOOTH",
"140 48 OFFCURVE",
"131 58 OFFCURVE",
"131 71 CURVE SMOOTH"
);
}
);
width = 501;
}
);
unicode = 0062;
},
{
glyphname = c;
lastChange = "2020-12-29 09:19:18 +0000";
layers = (
{
layerId = "A36D14D1-FF07-4574-A62D-30DF65569781";
paths = (
{
closed = 1;
nodes = (
"131 439 LINE SMOOTH",
"131 450 OFFCURVE",
"140 459 OFFCURVE",
"151 459 CURVE SMOOTH",
"350 459 LINE SMOOTH",
"361 459 OFFCURVE",
"370 450 OFFCURVE",
"370 439 CURVE SMOOTH",
"370 438 LINE SMOOTH",
"370 424 OFFCURVE",
"380 414 OFFCURVE",
"394 414 CURVE SMOOTH",
"426 413 LINE SMOOTH",
"440 413 OFFCURVE",
"451 424 OFFCURVE",
"451 438 CURVE SMOOTH",
"451 449 LINE SMOOTH",
"451 478 OFFCURVE",
"429 500 OFFCURVE",
"400 500 CURVE SMOOTH",
"101 500 LINE SMOOTH",
"72 500 OFFCURVE",
"50 478 OFFCURVE",
"50 449 CURVE SMOOTH",
"50 51 LINE SMOOTH",
"50 22 OFFCURVE",
"72 0 OFFCURVE",
"101 0 CURVE SMOOTH",
"400 0 LINE SMOOTH",
"429 0 OFFCURVE",
"451 22 OFFCURVE",
"451 51 CURVE SMOOTH",
"451 60 OFFCURVE",
"441 67 OFFCURVE",
"427 67 CURVE SMOOTH",
"395 68 LINE SMOOTH",
"381 68 OFFCURVE",
"370 65 OFFCURVE",
"370 61 CURVE SMOOTH",
"370 50 OFFCURVE",
"361 41 OFFCURVE",
"350 41 CURVE SMOOTH",
"151 41 LINE SMOOTH",
"140 41 OFFCURVE",
"131 50 OFFCURVE",
"131 61 CURVE SMOOTH"
);
}
);
width = 501;
}
);
unicode = 0063;
},
{
glyphname = d;
lastChange = "2020-12-29 09:19:18 +0000";
layers = (
{
layerId = "A36D14D1-FF07-4574-A62D-30DF65569781";
paths = (
{
closed = 1;
nodes = (
"429 0 OFFCURVE",
"451 22 OFFCURVE",
"451 51 CURVE SMOOTH",
"451 688 LINE SMOOTH",
"451 699 OFFCURVE",
"442 708 OFFCURVE",
"431 708 CURVE SMOOTH",
"390 708 LINE SMOOTH",
"379 708 OFFCURVE",
"370 699 OFFCURVE",
"370 688 CURVE SMOOTH",
"370 500 LINE",
"101 500 LINE SMOOTH",
"72 500 OFFCURVE",
"50 478 OFFCURVE",
"50 449 CURVE SMOOTH",
"50 51 LINE SMOOTH",
"50 22 OFFCURVE",
"72 0 OFFCURVE",
"101 0 CURVE SMOOTH",
"400 0 LINE",
"400 0 LINE",
"400 0 LINE"
);
},
{
closed = 1;
nodes = (
"370 58 OFFCURVE",
"361 48 OFFCURVE",
"350 48 CURVE SMOOTH",
"151 48 LINE SMOOTH",
"140 48 OFFCURVE",
"131 60 OFFCURVE",
"131 71 CURVE SMOOTH",
"131 439 LINE SMOOTH",
"131 447 OFFCURVE",
"140 452 OFFCURVE",
"151 452 CURVE SMOOTH",
"350 452 LINE SMOOTH",
"361 452 OFFCURVE",
"370 445 OFFCURVE",
"370 439 CURVE SMOOTH",
"370 71 LINE",
"370 71 LINE",
"370 71 LINE"
);
}
);
width = 501;
}
);
unicode = 0064;
},
{
glyphname = eth;
lastChange = "2020-12-29 09:44:04 +0000";
layers = (
{
layerId = "A36D14D1-FF07-4574-A62D-30DF65569781";
paths = (
{
closed = 1;
nodes = (
"308 -32 OFFCURVE",
"368 60 OFFCURVE",
"374 225 CURVE",
"403 557 LINE",
"473 557 LINE",
"473 590 LINE",
"406 590 LINE",
"414 688 LINE SMOOTH",
"415 699 OFFCURVE",
"405 708 OFFCURVE",
"394 708 CURVE SMOOTH",
"353 708 LINE SMOOTH",
"342 708 OFFCURVE",
"333 699 OFFCURVE",
"333 688 CURVE SMOOTH",
"333 590 LINE",
"249 590 LINE",
"249 557 LINE",
"333 557 LINE",
"333 500 LINE",
"332 455 LINE",
"303 504 OFFCURVE",
"260 529 OFFCURVE",
"203 529 CURVE SMOOTH",
"96 529 OFFCURVE",
"58 442 OFFCURVE",
"51 284 CURVE SMOOTH",
"42 82 OFFCURVE",
"118 -32 OFFCURVE",
"203 -32 CURVE SMOOTH"
);
},
{
closed = 1;
nodes = (
"145 49 OFFCURVE",
"91 130 OFFCURVE",
"98 274 CURVE SMOOTH",
"103 386 OFFCURVE",
"130 448 OFFCURVE",
"206 448 CURVE SMOOTH",
"280 448 OFFCURVE",
"323 386 OFFCURVE",
"327 274 CURVE SMOOTH",
"332 130 OFFCURVE",
"289 49 OFFCURVE",
"206 49 CURVE SMOOTH"
);
}
);
width = 523;
}
);
unicode = 00F0;
},
{
glyphname = e;
lastChange = "2020-12-29 09:19:18 +0000";
layers = (
{
anchors = (
{
name = top;
position = "{252, 501}";
}
);
layerId = "A36D14D1-FF07-4574-A62D-30DF65569781";
paths = (
{
closed = 1;
nodes = (
"131 249 LINE",
"303 249 LINE SMOOTH",
"320 249 OFFCURVE",
"329 251 OFFCURVE",
"332 256 CURVE SMOOTH",
"408 381 LINE SMOOTH",
"420 401 OFFCURVE",
"437 421 OFFCURVE",
"438 449 CURVE SMOOTH",
"439 487 OFFCURVE",
"429 500 OFFCURVE",
"400 500 CURVE SMOOTH",
"101 500 LINE SMOOTH",
"72 500 OFFCURVE",
"50 478 OFFCURVE",
"50 449 CURVE SMOOTH",
"50 51 LINE SMOOTH",
"50 22 OFFCURVE",
"72 0 OFFCURVE",
"101 0 CURVE SMOOTH",
"400 0 LINE SMOOTH",
"429 0 OFFCURVE",
"451 22 OFFCURVE",
"451 51 CURVE SMOOTH",
"451 60 OFFCURVE",
"441 67 OFFCURVE",
"427 67 CURVE SMOOTH",
"395 68 LINE SMOOTH",
"381 68 OFFCURVE",
"370 65 OFFCURVE",
"370 61 CURVE SMOOTH",
"370 50 OFFCURVE",
"361 41 OFFCURVE",
"350 41 CURVE SMOOTH",
"151 41 LINE SMOOTH",
"140 41 OFFCURVE",
"131 50 OFFCURVE",
"131 61 CURVE SMOOTH"
);
},
{
closed = 1;
nodes = (
"131 450 OFFCURVE",
"140 459 OFFCURVE",
"151 459 CURVE SMOOTH",
"350 459 LINE SMOOTH",
"381 459 OFFCURVE",
"383 443 OFFCURVE",
"378 434 CURVE SMOOTH",
"308 314 LINE SMOOTH",
"303 306 OFFCURVE",
"292 302 OFFCURVE",
"257 303 CURVE SMOOTH",
"131 303 LINE",
"131 439 LINE",
"131 439 LINE",
"131 439 LINE"
);
}
);
width = 501;
}
);
unicode = 0065;
},
{
glyphname = f;
lastChange = "2020-12-29 09:19:18 +0000";
layers = (
{
layerId = "A36D14D1-FF07-4574-A62D-30DF65569781";
paths = (
{
closed = 1;
nodes = (
"215 0 LINE SMOOTH",
"226 0 OFFCURVE",
"235 9 OFFCURVE",
"235 20 CURVE SMOOTH",
"235 439 LINE SMOOTH",
"235 450 OFFCURVE",
"244 459 OFFCURVE",
"255 459 CURVE SMOOTH",
"379 459 LINE SMOOTH",
"390 459 OFFCURVE",
"399 468 OFFCURVE",
"399 479 CURVE SMOOTH",
"399 480 LINE SMOOTH",
"399 491 OFFCURVE",
"390 500 OFFCURVE",
"379 500 CURVE SMOOTH",
"255 500 LINE SMOOTH",
"244 500 OFFCURVE",
"235 509 OFFCURVE",
"235 520 CURVE SMOOTH",
"235 631 LINE SMOOTH",
"235 642 OFFCURVE",
"244 651 OFFCURVE",
"255 651 CURVE SMOOTH",
"380 651 LINE SMOOTH",
"390 651 OFFCURVE",
"404 660 OFFCURVE",
"404 680 CURVE SMOOTH",
"404 692 OFFCURVE",
"395 700 OFFCURVE",
"384 700 CURVE SMOOTH",
"185 699 LINE SMOOTH",
"170 699 OFFCURVE",
"154 679 OFFCURVE",
"154 660 CURVE SMOOTH",
"154 520 LINE SMOOTH",
"154 509 OFFCURVE",
"145 500 OFFCURVE",
"134 500 CURVE SMOOTH",
"70 500 LINE SMOOTH",
"59 500 OFFCURVE",
"50 491 OFFCURVE",
"50 480 CURVE SMOOTH",
"50 479 LINE SMOOTH",
"50 468 OFFCURVE",
"59 459 OFFCURVE",
"70 459 CURVE SMOOTH",
"134 459 LINE SMOOTH",
"145 459 OFFCURVE",
"154 450 OFFCURVE",
"154 439 CURVE SMOOTH",
"154 20 LINE SMOOTH",
"154 9 OFFCURVE",
"163 0 OFFCURVE",
"174 0 CURVE SMOOTH"
);
}
);
width = 454;
}
);
unicode = 0066;
},
{
glyphname = g;
lastChange = "2020-12-29 09:19:18 +0000";
layers = (
{
layerId = "A36D14D1-FF07-4574-A62D-30DF65569781";
paths = (
{
closed = 1;
nodes = (
"101 500 LINE SMOOTH",
"72 500 OFFCURVE",
"50 478 OFFCURVE",
"50 449 CURVE SMOOTH",
"50 51 LINE SMOOTH",
"50 22 OFFCURVE",
"72 0 OFFCURVE",
"101 0 CURVE SMOOTH",
"370 0 LINE",
"373 0 LINE",
"178 -164 LINE SMOOTH",
"167 -173 OFFCURVE",
"166 -187 OFFCURVE",
"175 -198 CURVE SMOOTH",
"184 -209 OFFCURVE",
"198 -210 OFFCURVE",
"209 -201 CURVE SMOOTH",
"441 -6 LINE SMOOTH",
"449 1 OFFCURVE",
"451 12 OFFCURVE",
"451 18 CURVE SMOOTH",
"451 449 LINE SMOOTH",
"451 478 OFFCURVE",
"429 500 OFFCURVE",
"400 500 CURVE SMOOTH"
);
},
{
closed = 1;
nodes = (
"131 429 LINE SMOOTH",
"131 440 OFFCURVE",
"140 452 OFFCURVE",
"151 452 CURVE SMOOTH",
"350 452 LINE SMOOTH",
"361 452 OFFCURVE",
"370 442 OFFCURVE",
"370 429 CURVE SMOOTH",
"370 61 LINE SMOOTH",
"370 55 OFFCURVE",
"361 48 OFFCURVE",
"350 48 CURVE SMOOTH",
"151 48 LINE SMOOTH",
"140 48 OFFCURVE",
"131 53 OFFCURVE",
"131 61 CURVE SMOOTH"
);
}
);
width = 501;
}
);
unicode = 0067;
},
{
glyphname = h;
lastChange = "2020-12-29 09:44:04 +0000";
layers = (
{
layerId = "A36D14D1-FF07-4574-A62D-30DF65569781";
paths = (
{
closed = 1;
nodes = (
"370 9 OFFCURVE",
"379 0 OFFCURVE",
"390 0 CURVE SMOOTH",
"431 0 LINE SMOOTH",
"442 0 OFFCURVE",
"451 9 OFFCURVE",
"451 20 CURVE SMOOTH",
"451 449 LINE SMOOTH",
"451 478 OFFCURVE",
"429 500 OFFCURVE",
"400 500 CURVE SMOOTH",
"101 500 LINE SMOOTH",
"72 500 OFFCURVE",
"50 478 OFFCURVE",
"50 449 CURVE SMOOTH",
"50 20 LINE SMOOTH",
"50 9 OFFCURVE",
"59 0 OFFCURVE",
"70 0 CURVE SMOOTH",
"111 0 LINE SMOOTH",
"122 0 OFFCURVE",
"131 9 OFFCURVE",
"131 20 CURVE SMOOTH",
"131 432 LINE SMOOTH",
"131 443 OFFCURVE",
"140 453 OFFCURVE",
"151 453 CURVE SMOOTH",
"350 453 LINE SMOOTH",
"361 453 OFFCURVE",
"370 443 OFFCURVE",
"370 432 CURVE SMOOTH",
"370 20 LINE",
"370 20 LINE",
"370 20 LINE"
);
},
{
closed = 1;
nodes = (
"50 310 LINE",
"125 310 LINE",
"125 684 LINE SMOOTH",
"125 695 OFFCURVE",
"116 704 OFFCURVE",
"105 704 CURVE SMOOTH",
"70 704 LINE SMOOTH",
"59 704 OFFCURVE",
"50 695 OFFCURVE",
"50 684 CURVE SMOOTH"
);
}
);
width = 501;
}
);
unicode = 0068;
},
{
glyphname = i;
lastChange = "2020-12-29 09:44:04 +0000";
layers = (
{
layerId = "A36D14D1-FF07-4574-A62D-30DF65569781";
paths = (
{
closed = 1;
nodes = (
"130 0 LINE SMOOTH",
"144 0 OFFCURVE",
"154 10 OFFCURVE",
"154 24 CURVE SMOOTH",
"154 27 LINE SMOOTH",
"154 36 OFFCURVE",
"149 43 OFFCURVE",
"140 47 CURVE SMOOTH",
"131 51 LINE",
"131 480 LINE SMOOTH",
"131 491 OFFCURVE",
"122 500 OFFCURVE",
"111 500 CURVE SMOOTH",
"70 500 LINE SMOOTH",
"59 500 OFFCURVE",
"50 491 OFFCURVE",
"50 480 CURVE SMOOTH",
"50 51 LINE SMOOTH",
"50 22 OFFCURVE",
"72 0 OFFCURVE",
"101 0 CURVE SMOOTH"
);
},
{
closed = 1;
nodes = (
"104 601 LINE SMOOTH",
"120 601 OFFCURVE",
"131 612 OFFCURVE",
"131 628 CURVE SMOOTH",
"131 679 LINE SMOOTH",
"131 695 OFFCURVE",
"120 706 OFFCURVE",
"104 706 CURVE SMOOTH",
"77 706 LINE SMOOTH",
"61 706 OFFCURVE",
"50 695 OFFCURVE",
"50 679 CURVE SMOOTH",
"50 628 LINE SMOOTH",
"50 612 OFFCURVE",
"61 601 OFFCURVE",
"77 601 CURVE SMOOTH"
);
}
);
width = 204;
}
);
unicode = 0069;
},
{
glyphname = idotless;
lastChange = "2020-12-29 09:44:04 +0000";
layers = (
{
anchors = (
{
name = "new anchor";
position = "{255, 501}";
},
{
name = top;
position = "{92, 500}";
}
);
layerId = "A36D14D1-FF07-4574-A62D-30DF65569781";
paths = (
{
closed = 1;
nodes = (
"130 0 LINE SMOOTH",
"144 0 OFFCURVE",
"154 10 OFFCURVE",
"154 24 CURVE SMOOTH",
"154 27 LINE SMOOTH",
"154 36 OFFCURVE",
"149 43 OFFCURVE",
"140 47 CURVE SMOOTH",
"131 51 LINE",
"131 480 LINE SMOOTH",
"131 491 OFFCURVE",
"122 500 OFFCURVE",
"111 500 CURVE SMOOTH",
"70 500 LINE SMOOTH",
"59 500 OFFCURVE",
"50 491 OFFCURVE",
"50 480 CURVE SMOOTH",
"50 51 LINE SMOOTH",
"50 22 OFFCURVE",
"72 0 OFFCURVE",
"101 0 CURVE SMOOTH"
);
}
);
width = 204;
}
);
unicode = 0131;
},
{
glyphname = j;
lastChange = "2020-12-29 09:44:04 +0000";
layers = (
{
layerId = "A36D14D1-FF07-4574-A62D-30DF65569781";
paths = (
{
closed = 1;
nodes = (
"187 601 OFFCURVE",
"198 612 OFFCURVE",
"198 628 CURVE SMOOTH",
"198 679 LINE SMOOTH",
"198 695 OFFCURVE",
"187 706 OFFCURVE",
"171 706 CURVE SMOOTH",
"144 706 LINE SMOOTH",
"128 706 OFFCURVE",
"117 695 OFFCURVE",
"117 679 CURVE SMOOTH",
"117 628 LINE SMOOTH",
"117 612 OFFCURVE",
"128 601 OFFCURVE",
"144 601 CURVE SMOOTH",
"171 601 LINE",
"171 601 LINE",
"171 601 LINE"
);
},
{
closed = 1;
nodes = (
"40 -174 OFFCURVE",
"63 -183 OFFCURVE",
"75 -189 CURVE SMOOTH",
"88 -194 OFFCURVE",
"101 -189 OFFCURVE",
"107 -177 CURVE SMOOTH",
"199 -6 LINE SMOOTH",
"202 -1 OFFCURVE",
"201 8 OFFCURVE",
"201 11 CURVE SMOOTH",
"201 480 LINE SMOOTH",
"201 491 OFFCURVE",
"192 500 OFFCURVE",
"181 500 CURVE SMOOTH",
"140 500 LINE SMOOTH",
"129 500 OFFCURVE",
"120 491 OFFCURVE",
"120 480 CURVE SMOOTH",
"120 12 LINE SMOOTH",
"120 10 OFFCURVE",
"120 1 OFFCURVE",
"117 -5 CURVE SMOOTH",
"54 -143 LINE",
"54 -143 LINE",
"54 -143 LINE"
);
}
);
width = 251;
}
);
unicode = 006A;
},
{
glyphname = k;
lastChange = "2020-12-29 09:19:18 +0000";
layers = (
{
layerId = "A36D14D1-FF07-4574-A62D-30DF65569781";
paths = (
{
closed = 1;
nodes = (
"111 -3 LINE SMOOTH",
"122 -3 OFFCURVE",
"131 13 OFFCURVE",
"131 32 CURVE SMOOTH",
"131 253 LINE",
"172 253 LINE",
"322 4 LINE",
"373 4 LINE",
"220 262 LINE",
"360 500 LINE",
"309 500 LINE",
"182 285 LINE",
"131 286 LINE",
"132 686 LINE SMOOTH",
"132 697 OFFCURVE",
"123 706 OFFCURVE",
"112 706 CURVE SMOOTH",
"71 706 LINE SMOOTH",
"60 706 OFFCURVE",
"51 697 OFFCURVE",
"51 686 CURVE SMOOTH",
"50 32 LINE SMOOTH",
"50 13 OFFCURVE",
"59 -3 OFFCURVE",
"70 -3 CURVE SMOOTH"
);
}
);
width = 423;
}
);
unicode = 006B;
},
{
glyphname = l;
lastChange = "2020-12-29 09:44:01 +0000";
layers = (
{
layerId = "A36D14D1-FF07-4574-A62D-30DF65569781";
paths = (
{
closed = 1;
nodes = (
"177 33 OFFCURVE",
"167 41 OFFCURVE",
"154 41 CURVE SMOOTH",
"151 41 LINE SMOOTH",
"140 41 OFFCURVE",
"131 50 OFFCURVE",
"131 61 CURVE SMOOTH",
"131 686 LINE SMOOTH",
"131 697 OFFCURVE",
"122 706 OFFCURVE",
"111 706 CURVE SMOOTH",
"70 706 LINE SMOOTH",
"59 706 OFFCURVE",
"50 697 OFFCURVE",
"50 686 CURVE SMOOTH",
"50 51 LINE SMOOTH",
"50 22 OFFCURVE",
"72 0 OFFCURVE",
"101 0 CURVE SMOOTH",
"153 0 LINE SMOOTH",
"167 0 OFFCURVE",
"178 10 OFFCURVE",
"178 21 CURVE SMOOTH"
);
}
);
width = 228;
}
);
unicode = 006C;
},
{
glyphname = m;
lastChange = "2020-12-29 09:19:18 +0000";
layers = (
{
layerId = "A36D14D1-FF07-4574-A62D-30DF65569781";
paths = (
{
closed = 1;
nodes = (
"381 481 LINE SMOOTH",
"381 492 OFFCURVE",
"365 501 OFFCURVE",
"339 501 CURVE SMOOTH",
"316 501 OFFCURVE",
"300 493 OFFCURVE",
"300 474 CURVE SMOOTH",
"300 20 LINE SMOOTH",
"300 9 OFFCURVE",
"309 0 OFFCURVE",
"320 0 CURVE SMOOTH",
"361 0 LINE SMOOTH",
"372 0 OFFCURVE",
"381 9 OFFCURVE",
"381 20 CURVE SMOOTH"
);
},
{
closed = 1;
nodes = (
"131 481 LINE SMOOTH",
"131 492 OFFCURVE",
"115 501 OFFCURVE",
"89 501 CURVE SMOOTH",
"66 501 OFFCURVE",
"50 493 OFFCURVE",
"50 474 CURVE SMOOTH",
"50 20 LINE SMOOTH",
"50 9 OFFCURVE",
"59 0 OFFCURVE",
"70 0 CURVE SMOOTH",
"111 0 LINE SMOOTH",
"122 0 OFFCURVE",
"131 9 OFFCURVE",
"131 20 CURVE SMOOTH"
);
},
{
closed = 1;
nodes = (
"631 481 LINE SMOOTH",
"631 492 OFFCURVE",
"615 501 OFFCURVE",
"589 501 CURVE SMOOTH",
"566 501 OFFCURVE",
"550 493 OFFCURVE",
"550 474 CURVE SMOOTH",
"550 20 LINE SMOOTH",
"550 9 OFFCURVE",
"559 0 OFFCURVE",
"570 0 CURVE SMOOTH",
"611 0 LINE SMOOTH",
"622 0 OFFCURVE",
"631 9 OFFCURVE",
"631 20 CURVE SMOOTH"
);
},
{
closed = 1;
nodes = (
"576 439 LINE SMOOTH",
"605 453 OFFCURVE",
"599 472 OFFCURVE",
"593 484 CURVE SMOOTH",
"587 497 OFFCURVE",
"573 502 OFFCURVE",
"561 496 CURVE SMOOTH",
"310 372 LINE",
"326 316 LINE",
"326 316 LINE",
"326 316 LINE"
);
},
{
closed = 1;
nodes = (
"326 439 LINE SMOOTH",
"355 452 OFFCURVE",
"349 472 OFFCURVE",
"343 484 CURVE SMOOTH",
"337 497 OFFCURVE",
"323 502 OFFCURVE",
"311 496 CURVE SMOOTH",
"60 382 LINE",
"76 326 LINE",
"76 326 LINE",
"76 326 LINE"
);
}
);
width = 681;
}
);
unicode = 006D;
},
{
glyphname = n;
lastChange = "2020-12-29 09:44:04 +0000";
layers = (
{
anchors = (
{
name = top;
position = "{257, 507}";
}
);
layerId = "A36D14D1-FF07-4574-A62D-30DF65569781";
paths = (
{
closed = 1;
nodes = (
"131 481 LINE SMOOTH",
"131 492 OFFCURVE",
"115 501 OFFCURVE",
"89 501 CURVE SMOOTH",
"66 501 OFFCURVE",
"50 493 OFFCURVE",
"50 474 CURVE SMOOTH",
"50 20 LINE SMOOTH",
"50 9 OFFCURVE",
"59 0 OFFCURVE",
"70 0 CURVE SMOOTH",
"111 0 LINE SMOOTH",
"122 0 OFFCURVE",
"131 9 OFFCURVE",
"131 20 CURVE SMOOTH"
);
},
{
closed = 1;
nodes = (
"448 481 LINE SMOOTH",
"448 492 OFFCURVE",
"432 501 OFFCURVE",
"406 501 CURVE SMOOTH",
"383 501 OFFCURVE",
"367 493 OFFCURVE",
"367 474 CURVE SMOOTH",
"367 20 LINE SMOOTH",
"367 9 OFFCURVE",
"376 0 OFFCURVE",
"387 0 CURVE SMOOTH",
"428 0 LINE SMOOTH",
"439 0 OFFCURVE",
"448 9 OFFCURVE",
"448 20 CURVE SMOOTH"
);
},
{
closed = 1;
nodes = (
"393 439 LINE SMOOTH",
"422 447 OFFCURVE",
"416 472 OFFCURVE",
"410 484 CURVE SMOOTH",
"404 497 OFFCURVE",
"390 499 OFFCURVE",
"378 496 CURVE SMOOTH",
"97 416 LINE",
"113 360 LINE",
"113 360 LINE",
"113 360 LINE"
);
}
);
width = 498;
}
);
unicode = 006E;
},
{
glyphname = o;
lastChange = "2020-12-29 09:44:04 +0000";
layers = (
{
anchors = (
{
name = top;
position = "{251, 504}";
}
);
layerId = "A36D14D1-FF07-4574-A62D-30DF65569781";
paths = (
{
closed = 1;
nodes = (
"91 500 LINE SMOOTH",
"68 500 OFFCURVE",
"50 482 OFFCURVE",
"50 459 CURVE SMOOTH",
"50 41 LINE SMOOTH",
"50 18 OFFCURVE",
"68 0 OFFCURVE",
"91 0 CURVE SMOOTH",
"410 0 LINE SMOOTH",
"433 0 OFFCURVE",
"451 18 OFFCURVE",
"451 41 CURVE SMOOTH",
"451 459 LINE SMOOTH",
"451 482 OFFCURVE",
"433 500 OFFCURVE",
"410 500 CURVE SMOOTH"
);
},
{
closed = 1;
nodes = (
"151 47 LINE SMOOTH",
"140 47 OFFCURVE",
"131 56 OFFCURVE",
"131 67 CURVE SMOOTH",
"131 433 LINE SMOOTH",
"131 444 OFFCURVE",
"140 453 OFFCURVE",
"151 453 CURVE SMOOTH",
"350 453 LINE SMOOTH",
"361 453 OFFCURVE",
"370 444 OFFCURVE",
"370 433 CURVE SMOOTH",
"370 67 LINE SMOOTH",
"370 56 OFFCURVE",
"361 47 OFFCURVE",
"350 47 CURVE SMOOTH"
);
}
);
width = 501;
}
);
unicode = 006F;
},
{
glyphname = oslash;
lastChange = "2020-12-29 09:44:04 +0000";
layers = (
{
components = (
{
name = o;
}
);
layerId = "A36D14D1-FF07-4574-A62D-30DF65569781";
paths = (
{
closed = 1;
nodes = (
"182 -66 LINE",
"478 681 LINE",
"405 681 LINE",
"110 -66 LINE",
"110 -66 LINE",
"110 -66 LINE"
);
}
);
width = 528;
}
);
unicode = 00F8;
},
{
glyphname = oe;
lastChange = "2020-12-29 09:44:04 +0000";
layers = (
{
anchors = (
{
name = top;
position = "{763, 501}";
}
);
layerId = "A36D14D1-FF07-4574-A62D-30DF65569781";
paths = (
{
closed = 1;
nodes = (
"91 500 LINE SMOOTH",
"68 500 OFFCURVE",
"50 482 OFFCURVE",
"50 459 CURVE SMOOTH",
"50 41 LINE SMOOTH",
"50 18 OFFCURVE",
"68 0 OFFCURVE",
"91 0 CURVE SMOOTH",
"410 0 LINE SMOOTH",
"433 0 OFFCURVE",
"451 18 OFFCURVE",
"451 41 CURVE SMOOTH",
"451 459 LINE SMOOTH",
"451 482 OFFCURVE",
"433 500 OFFCURVE",
"410 500 CURVE SMOOTH"
);
},
{
closed = 1;
nodes = (
"151 47 LINE SMOOTH",
"140 47 OFFCURVE",
"131 56 OFFCURVE",
"131 67 CURVE SMOOTH",
"131 433 LINE SMOOTH",
"131 444 OFFCURVE",
"140 453 OFFCURVE",
"151 453 CURVE SMOOTH",
"350 453 LINE SMOOTH",
"361 453 OFFCURVE",
"370 444 OFFCURVE",
"370 433 CURVE SMOOTH",
"370 67 LINE SMOOTH",
"370 56 OFFCURVE",
"361 47 OFFCURVE",
"350 47 CURVE SMOOTH"
);
},
{
closed = 1;
nodes = (
"452 249 LINE",
"624 249 LINE SMOOTH",
"641 249 OFFCURVE",
"650 251 OFFCURVE",
"653 256 CURVE SMOOTH",
"729 381 LINE SMOOTH",
"741 401 OFFCURVE",
"758 421 OFFCURVE",
"759 449 CURVE SMOOTH",
"760 487 OFFCURVE",
"750 500 OFFCURVE",
"721 500 CURVE SMOOTH",
"422 500 LINE SMOOTH",
"393 500 OFFCURVE",
"371 478 OFFCURVE",
"371 449 CURVE SMOOTH",
"371 51 LINE SMOOTH",
"371 22 OFFCURVE",
"393 0 OFFCURVE",
"422 0 CURVE SMOOTH",
"721 0 LINE SMOOTH",
"750 0 OFFCURVE",
"772 22 OFFCURVE",
"772 51 CURVE SMOOTH",
"772 60 OFFCURVE",
"762 67 OFFCURVE",
"748 67 CURVE SMOOTH",
"716 68 LINE SMOOTH",
"702 68 OFFCURVE",
"691 65 OFFCURVE",
"691 61 CURVE SMOOTH",
"691 50 OFFCURVE",
"682 41 OFFCURVE",
"671 41 CURVE SMOOTH",
"472 41 LINE SMOOTH",
"461 41 OFFCURVE",
"452 50 OFFCURVE",
"452 61 CURVE SMOOTH"
);
},
{
closed = 1;
nodes = (
"452 450 OFFCURVE",
"461 459 OFFCURVE",
"472 459 CURVE SMOOTH",
"671 459 LINE SMOOTH",
"702 459 OFFCURVE",
"704 443 OFFCURVE",
"699 434 CURVE SMOOTH",
"629 314 LINE SMOOTH",
"624 306 OFFCURVE",
"613 302 OFFCURVE",
"578 303 CURVE SMOOTH",
"452 303 LINE",
"452 439 LINE",
"452 439 LINE",
"452 439 LINE"
);
}
);
width = 822;
}
);
unicode = 0153;
},
{
glyphname = p;
lastChange = "2020-12-29 09:19:18 +0000";
layers = (
{
layerId = "A36D14D1-FF07-4574-A62D-30DF65569781";
paths = (
{
closed = 1;
nodes = (
"111 -200 LINE SMOOTH",
"122 -200 OFFCURVE",
"131 -191 OFFCURVE",
"131 -180 CURVE SMOOTH",
"131 0 LINE",
"400 0 LINE SMOOTH",
"429 0 OFFCURVE",
"451 12 OFFCURVE",
"451 41 CURVE SMOOTH",
"451 450 LINE",
"450.947 451.463 LINE SMOOTH",
"450 479 OFFCURVE",
"428.173 500 OFFCURVE",
"400 500 CURVE SMOOTH",
"101 500 LINE SMOOTH",
"72.827 500 OFFCURVE",
"51 479 OFFCURVE",
"50.053 451.463 CURVE SMOOTH",
"50 450 LINE",
"50 -180 LINE SMOOTH",
"50 -191 OFFCURVE",
"59 -200 OFFCURVE",
"70 -200 CURVE SMOOTH"
);
},
{
closed = 1;
nodes = (
"131 443 LINE SMOOTH",
"131 454 OFFCURVE",
"140 463 OFFCURVE",
"151 463 CURVE SMOOTH",
"350 463 LINE SMOOTH",
"361 463 OFFCURVE",
"370 454 OFFCURVE",
"370 443 CURVE SMOOTH",
"370 67 LINE SMOOTH",
"370 56 OFFCURVE",
"361 47 OFFCURVE",
"350 47 CURVE SMOOTH",
"151 47 LINE SMOOTH",
"140 47 OFFCURVE",
"131 56 OFFCURVE",
"131 67 CURVE SMOOTH"
);
}
);
width = 501;
}
);
unicode = 0070;
},
{
glyphname = thorn;
lastChange = "2020-12-29 09:44:01 +0000";
layers = (
{
anchors = (
{
name = top;
position = "{261, 504}";
}
);
layerId = "A36D14D1-FF07-4574-A62D-30DF65569781";
paths = (
{
closed = 1;
nodes = (
"101 500 LINE SMOOTH",
"78 500 OFFCURVE",
"60 482 OFFCURVE",
"60 459 CURVE SMOOTH",
"60 41 LINE SMOOTH",
"60 18 OFFCURVE",
"78 0 OFFCURVE",
"101 0 CURVE SMOOTH",
"420 0 LINE SMOOTH",
"443 0 OFFCURVE",
"461 18 OFFCURVE",
"461 41 CURVE SMOOTH",
"461 459 LINE SMOOTH",
"461 482 OFFCURVE",
"443 500 OFFCURVE",
"420 500 CURVE SMOOTH"
);
},
{
closed = 1;
nodes = (
"161 47 LINE SMOOTH",
"150 47 OFFCURVE",
"141 56 OFFCURVE",
"141 67 CURVE SMOOTH",
"141 433 LINE SMOOTH",
"141 444 OFFCURVE",
"150 453 OFFCURVE",
"161 453 CURVE SMOOTH",
"360 453 LINE SMOOTH",
"371 453 OFFCURVE",
"380 444 OFFCURVE",
"380 433 CURVE SMOOTH",
"380 67 LINE SMOOTH",
"380 56 OFFCURVE",
"371 47 OFFCURVE",
"360 47 CURVE SMOOTH"
);
},
{
closed = 1;
nodes = (
"131 620 LINE SMOOTH",
"131 631 OFFCURVE",
"115 640 OFFCURVE",
"89 640 CURVE SMOOTH",
"66 640 OFFCURVE",
"50 632 OFFCURVE",
"50 613 CURVE SMOOTH",
"50 -100 LINE SMOOTH",
"50 -111 OFFCURVE",
"59 -120 OFFCURVE",
"70 -120 CURVE SMOOTH",
"111 -120 LINE SMOOTH",
"122 -120 OFFCURVE",
"131 -111 OFFCURVE",
"131 -100 CURVE SMOOTH"
);
}
);
width = 511;
}
);
unicode = 00FE;
},
{
glyphname = q;
lastChange = "2020-12-29 09:19:18 +0000";
layers = (
{
layerId = "A36D14D1-FF07-4574-A62D-30DF65569781";
paths = (
{
closed = 1;
nodes = (
"442 -200 OFFCURVE",
"451 -191 OFFCURVE",
"451 -180 CURVE SMOOTH",
"451 450 LINE",
"451 451 LINE SMOOTH",
"450 479 OFFCURVE",
"428 500 OFFCURVE",
"400 500 CURVE SMOOTH",
"101 500 LINE SMOOTH",
"73 500 OFFCURVE",
"51 479 OFFCURVE",
"50 451 CURVE SMOOTH",
"50 450 LINE",
"50 41 LINE SMOOTH",
"50 12 OFFCURVE",
"72 0 OFFCURVE",
"101 0 CURVE SMOOTH",
"370 0 LINE",
"370 -180 LINE SMOOTH",
"370 -191 OFFCURVE",
"379 -200 OFFCURVE",
"390 -200 CURVE SMOOTH",
"431 -200 LINE",
"431 -200 LINE",
"431 -200 LINE"
);
},
{
closed = 1;
nodes = (
"370 56 OFFCURVE",
"361 47 OFFCURVE",
"350 47 CURVE SMOOTH",
"151 47 LINE SMOOTH",
"140 47 OFFCURVE",
"131 56 OFFCURVE",
"131 67 CURVE SMOOTH",
"131 443 LINE SMOOTH",
"131 454 OFFCURVE",
"140 463 OFFCURVE",
"151 463 CURVE SMOOTH",
"350 463 LINE SMOOTH",
"361 463 OFFCURVE",
"370 454 OFFCURVE",
"370 443 CURVE SMOOTH",
"370 67 LINE",
"370 67 LINE",
"370 67 LINE"
);
}
);
width = 501;
}
);
unicode = 0071;
},
{
glyphname = r;
lastChange = "2020-12-29 09:44:04 +0000";
layers = (
{
layerId = "A36D14D1-FF07-4574-A62D-30DF65569781";
paths = (
{
closed = 1;
nodes = (
"451 459 LINE SMOOTH",
"451 488 OFFCURVE",
"429 510 OFFCURVE",
"400 510 CURVE SMOOTH",
"101 510 LINE SMOOTH",
"72 510 OFFCURVE",
"50 488 OFFCURVE",
"50 459 CURVE SMOOTH",
"50 30 LINE SMOOTH",
"50 19 OFFCURVE",
"59 10 OFFCURVE",
"70 10 CURVE SMOOTH",
"111 10 LINE SMOOTH",
"122 10 OFFCURVE",
"131 19 OFFCURVE",
"131 30 CURVE SMOOTH",
"131 443 LINE SMOOTH",
"131 454 OFFCURVE",
"140 463 OFFCURVE",
"151 463 CURVE SMOOTH",
"350 463 LINE SMOOTH",
"361 463 OFFCURVE",
"370 454 OFFCURVE",
"370 443 CURVE SMOOTH",
"370 433 OFFCURVE",
"381 426 OFFCURVE",
"395 426 CURVE SMOOTH",
"427 427 LINE SMOOTH",
"440 427 OFFCURVE",
"451 439 OFFCURVE",
"451 452 CURVE SMOOTH"
);
}
);
width = 501;
}
);
unicode = 0072;
},
{
glyphname = s;
lastChange = "2020-12-29 09:19:18 +0000";
layers = (
{
layerId = "A36D14D1-FF07-4574-A62D-30DF65569781";
paths = (
{
closed = 1;
nodes = (
"340 241 LINE SMOOTH",
"360 241 OFFCURVE",
"370 237 OFFCURVE",
"370 229 CURVE SMOOTH",
"370 71 LINE SMOOTH",
"370 58 OFFCURVE",
"361 48 OFFCURVE",
"350 48 CURVE SMOOTH",
"151 48 LINE SMOOTH",
"140 48 OFFCURVE",
"131 60 OFFCURVE",
"131 71 CURVE SMOOTH",
"131 76 OFFCURVE",
"121 79 OFFCURVE",
"107 79 CURVE SMOOTH",
"75 80 LINE SMOOTH",
"61 80 OFFCURVE",
"50 69 OFFCURVE",
"50 55 CURVE SMOOTH",
"50 51 LINE SMOOTH",
"50 22 OFFCURVE",
"72 0 OFFCURVE",
"101 0 CURVE SMOOTH",
"400 0 LINE SMOOTH",
"429 0 OFFCURVE",
"451 22 OFFCURVE",
"451 51 CURVE SMOOTH",
"451 243 LINE SMOOTH",
"451 272 OFFCURVE",
"429 294 OFFCURVE",
"400 294 CURVE SMOOTH",
"131 294 LINE",
"131 439 LINE SMOOTH",
"131 447 OFFCURVE",
"140 452 OFFCURVE",
"151 452 CURVE SMOOTH",
"350 452 LINE SMOOTH",
"361 452 OFFCURVE",
"370 445 OFFCURVE",
"370 439 CURVE SMOOTH",
"370 438 LINE SMOOTH",
"370 424 OFFCURVE",
"380 414 OFFCURVE",
"394 414 CURVE SMOOTH",
"426 413 LINE SMOOTH",
"440 413 OFFCURVE",
"451 424 OFFCURVE",
"451 438 CURVE SMOOTH",
"451 449 LINE SMOOTH",
"451 478 OFFCURVE",
"429 500 OFFCURVE",
"400 500 CURVE SMOOTH",
"101 500 LINE SMOOTH",
"72 500 OFFCURVE",
"50 478 OFFCURVE",
"50 449 CURVE SMOOTH",
"50 265 LINE SMOOTH",
"50 251 OFFCURVE",
"60 241 OFFCURVE",
"74 241 CURVE SMOOTH"
);
}
);
width = 501;
}
);
unicode = 0073;
},
{
glyphname = germandbls;
lastChange = "2020-12-29 09:19:18 +0000";
layers = (
{
layerId = "A36D14D1-FF07-4574-A62D-30DF65569781";
paths = (
{
closed = 1;
nodes = (
"205 23 LINE SMOOTH",
"206 10 OFFCURVE",
"216 0 OFFCURVE",
"229 0 CURVE SMOOTH",
"400 0 LINE SMOOTH",
"429 0 OFFCURVE",
"451 22 OFFCURVE",
"451 51 CURVE SMOOTH",
"451 449 LINE SMOOTH",
"451 478 OFFCURVE",
"429 500 OFFCURVE",
"400 500 CURVE SMOOTH",
"131 500 LINE",
"131 685 LINE SMOOTH",
"131 696 OFFCURVE",
"122 705 OFFCURVE",
"111 705 CURVE SMOOTH",
"70 705 LINE SMOOTH",
"59 705 OFFCURVE",
"50 696 OFFCURVE",
"50 685 CURVE SMOOTH",
"50 51 LINE SMOOTH",
"50 22 OFFCURVE",
"72 0 OFFCURVE",
"101 0 CURVE SMOOTH",
"136 0 LINE",
"135 57 LINE",
"132 61 OFFCURVE",
"131 66 OFFCURVE",
"131 71 CURVE SMOOTH",
"131 439 LINE SMOOTH",
"131 445 OFFCURVE",
"140 452 OFFCURVE",
"151 452 CURVE SMOOTH",
"350 452 LINE SMOOTH",
"361 452 OFFCURVE",
"370 447 OFFCURVE",
"370 439 CURVE SMOOTH",
"370 71 LINE SMOOTH",
"370 60 OFFCURVE",
"361 48 OFFCURVE",
"350 48 CURVE SMOOTH",
"230 48 LINE SMOOTH",
"216 48 OFFCURVE",
"204 37 OFFCURVE",
"205 24 CURVE SMOOTH"
);
},
{
closed = 1;
nodes = (
"397 498 LINE",
"397 661 LINE SMOOTH",
"397 686 OFFCURVE",
"378 705 OFFCURVE",
"353 705 CURVE SMOOTH",
"94 705 LINE SMOOTH",
"69 705 OFFCURVE",
"50 686 OFFCURVE",
"50 661 CURVE SMOOTH",
"50 496 LINE",
"120 496 LINE",
"120 643 LINE SMOOTH",
"120 654 OFFCURVE",
"128 663 OFFCURVE",
"138 663 CURVE SMOOTH",
"309 663 LINE SMOOTH",
"319 663 OFFCURVE",
"327 653 OFFCURVE",
"327 643 CURVE SMOOTH",
"327 497 LINE",
"327 497 LINE",
"327 497 LINE"
);
}
);
width = 501;
}
);
unicode = 00DF;
},
{
glyphname = t;
lastChange = "2020-12-29 09:44:04 +0000";
layers = (
{
layerId = "A36D14D1-FF07-4574-A62D-30DF65569781";
paths = (
{
closed = 1;
nodes = (
"174 0 LINE SMOOTH",
"188 0 OFFCURVE",
"198 10 OFFCURVE",
"198 24 CURVE SMOOTH",
"198 27 LINE SMOOTH",
"198 36 OFFCURVE",
"193 43 OFFCURVE",
"184 47 CURVE SMOOTH",
"175 51 LINE",
"175 480 LINE SMOOTH",
"175 491 OFFCURVE",
"166 500 OFFCURVE",
"155 500 CURVE SMOOTH",
"114 500 LINE SMOOTH",
"103 500 OFFCURVE",
"94 491 OFFCURVE",
"94 480 CURVE SMOOTH",
"94 51 LINE SMOOTH",
"94 22 OFFCURVE",
"116 0 OFFCURVE",
"145 0 CURVE SMOOTH"
);
},
{
closed = 1;
nodes = (
"147 497 LINE SMOOTH",
"163 497 OFFCURVE",
"174 508 OFFCURVE",
"174 524 CURVE SMOOTH",
"174 679 LINE SMOOTH",
"174 695 OFFCURVE",
"163 706 OFFCURVE",
"147 706 CURVE SMOOTH",
"120 706 LINE SMOOTH",
"104 706 OFFCURVE",
"93 695 OFFCURVE",
"93 679 CURVE SMOOTH",
"93 524 LINE SMOOTH",
"93 508 OFFCURVE",
"104 497 OFFCURVE",
"120 497 CURVE SMOOTH"
);
},
{
closed = 1;
nodes = (
"50 480 OFFCURVE",
"60 470 OFFCURVE",
"74 470 CURVE SMOOTH",
"297 470 LINE SMOOTH",
"311 470 OFFCURVE",
"321 480 OFFCURVE",
"321 494 CURVE SMOOTH",
"321 508 OFFCURVE",
"311 518 OFFCURVE",
"297 518 CURVE SMOOTH",
"74 518 LINE SMOOTH",
"60 518 OFFCURVE",
"50 508 OFFCURVE",
"50 494 CURVE SMOOTH"
);
}
);
width = 371;
}
);
unicode = 0074;
},
{
glyphname = u;
lastChange = "2020-12-29 09:44:04 +0000";
layers = (
{
anchors = (
{
name = top;
position = "{244, 499}";
}
);
layerId = "A36D14D1-FF07-4574-A62D-30DF65569781";
paths = (
{
closed = 1;
nodes = (
"370 66 LINE SMOOTH",
"370 55 OFFCURVE",
"361 46 OFFCURVE",
"350 46 CURVE SMOOTH",
"151 46 LINE SMOOTH",
"140 46 OFFCURVE",
"131 55 OFFCURVE",
"131 66 CURVE SMOOTH",
"131 480 LINE SMOOTH",
"131 491 OFFCURVE",
"122 500 OFFCURVE",
"111 500 CURVE SMOOTH",
"70 500 LINE SMOOTH",
"59 500 OFFCURVE",
"50 491 OFFCURVE",
"50 480 CURVE SMOOTH",
"50 51 LINE SMOOTH",
"50 22 OFFCURVE",
"72 0 OFFCURVE",
"101 0 CURVE SMOOTH",
"400 0 LINE SMOOTH",
"429 0 OFFCURVE",
"451 22 OFFCURVE",
"451 51 CURVE SMOOTH",
"451 480 LINE SMOOTH",
"451 491 OFFCURVE",
"442 500 OFFCURVE",
"431 500 CURVE SMOOTH",
"390 500 LINE SMOOTH",
"379 500 OFFCURVE",
"370 491 OFFCURVE",
"370 480 CURVE SMOOTH"
);
}
);
width = 501;
}
);
unicode = 0075;
},
{
glyphname = v;
lastChange = "2020-12-29 09:44:04 +0000";
layers = (
{
layerId = "A36D14D1-FF07-4574-A62D-30DF65569781";
paths = (
{
closed = 1;
nodes = (
"419 501 OFFCURVE",
"393 495 OFFCURVE",
"390 486 CURVE SMOOTH",
"256 75 LINE",
"123 486 LINE SMOOTH",
"120 494 OFFCURVE",
"92 501 OFFCURVE",
"79 501 CURVE SMOOTH",
"59 501 OFFCURVE",
"45 484 OFFCURVE",
"52 464 CURVE SMOOTH",
"216 12 LINE SMOOTH",
"220 2 OFFCURVE",
"229 -2 OFFCURVE",
"256 -2 CURVE SMOOTH",
"282 -2 OFFCURVE",
"296 3 OFFCURVE",
"300 13 CURVE SMOOTH",
"463 463 LINE SMOOTH",
"470 482 OFFCURVE",
"457 499 OFFCURVE",
"437 500 CURVE SMOOTH"
);
}
);
width = 515;
}
);
unicode = 0076;
},
{
glyphname = w;
lastChange = "2020-12-29 09:44:04 +0000";
layers = (
{
layerId = "A36D14D1-FF07-4574-A62D-30DF65569781";
paths = (
{
closed = 1;
nodes = (
"469 83 LINE",
"383 320 LINE SMOOTH",
"378 334 OFFCURVE",
"364 342 OFFCURVE",
"352 342 CURVE SMOOTH",
"341 341 OFFCURVE",
"327 335 OFFCURVE",
"323 321 CURVE SMOOTH",
"250 85 LINE",
"105 489 LINE SMOOTH",
"101 499 OFFCURVE",
"83 500 OFFCURVE",
"63 490 CURVE SMOOTH",
"53 485 OFFCURVE",
"47 472 OFFCURVE",
"51 461 CURVE SMOOTH",
"208 6 LINE SMOOTH",
"212 -4 OFFCURVE",
"230 -5 OFFCURVE",
"255 2 CURVE SMOOTH",
"262 4 OFFCURVE",
"280 9 OFFCURVE",
"283 19 CURVE SMOOTH",
"350 251 LINE SMOOTH",
"351 254 OFFCURVE",
"351 256 OFFCURVE",
"353 256 CURVE SMOOTH",
"355 256 OFFCURVE",
"355 253 OFFCURVE",
"356 251 CURVE SMOOTH",
"431 26 LINE SMOOTH",
"433 18 OFFCURVE",
"444 7 OFFCURVE",
"463 1 CURVE SMOOTH",
"485 -7 OFFCURVE",
"503 -5 OFFCURVE",
"509 13 CURVE SMOOTH",
"664 461 LINE SMOOTH",
"668 472 OFFCURVE",
"660 485 OFFCURVE",
"637 495 CURVE SMOOTH",
"627 499 OFFCURVE",
"609 499 OFFCURVE",
"606 489 CURVE SMOOTH"
);
}
);
width = 715;
}
);
unicode = 0077;
},
{
glyphname = x;
lastChange = "2020-12-29 09:19:18 +0000";
layers = (
{
layerId = "A36D14D1-FF07-4574-A62D-30DF65569781";
paths = (
{
closed = 1;
nodes = (
"382 2 LINE SMOOTH",
"393 2 OFFCURVE",
"405 11 OFFCURVE",
"402 22 CURVE SMOOTH",
"342 221 LINE SMOOTH",
"336.841 237.625 OFFCURVE",
"330.366 251.949 OFFCURVE",
"320.317 261.147 CURVE",
"330.013 270.355 OFFCURVE",
"336.328 284.551 OFFCURVE",
"342 301 CURVE SMOOTH",
"402 480 LINE SMOOTH",
"406 491 OFFCURVE",
"393 500 OFFCURVE",
"382 500 CURVE SMOOTH",
"341 500 LINE SMOOTH",
"330 500 OFFCURVE",
"325 491 OFFCURVE",
"321 480 CURVE SMOOTH",
"261 298 LINE SMOOTH",
"257 287 OFFCURVE",
"252 278 OFFCURVE",
"241 278 CURVE SMOOTH",
"212 278 LINE SMOOTH",
"201 278 OFFCURVE",
"196 287 OFFCURVE",
"192 298 CURVE SMOOTH",
"132 480 LINE SMOOTH",
"128 491 OFFCURVE",
"123 500 OFFCURVE",
"112 500 CURVE SMOOTH",
"71 500 LINE SMOOTH",
"60 500 OFFCURVE",
"47 491 OFFCURVE",
"51 480 CURVE SMOOTH",
"111 301 LINE SMOOTH",
"116.672 284.551 OFFCURVE",
"122.987 270.355 OFFCURVE",
"132.683 261.147 CURVE",
"122.634 251.949 OFFCURVE",
"116.159 237.625 OFFCURVE",
"111 221 CURVE SMOOTH",
"51 22 LINE SMOOTH",
"48 11 OFFCURVE",
"60 2 OFFCURVE",
"71 2 CURVE SMOOTH",
"112 2 LINE SMOOTH",
"123 2 OFFCURVE",
"129 11 OFFCURVE",
"132 22 CURVE SMOOTH",
"192 227 LINE SMOOTH",
"195 238 OFFCURVE",
"201 247 OFFCURVE",
"212 247 CURVE SMOOTH",
"241 247 LINE SMOOTH",
"252 247 OFFCURVE",
"258 238 OFFCURVE",
"261 227 CURVE SMOOTH",
"321 22 LINE SMOOTH",
"324 11 OFFCURVE",
"330 2 OFFCURVE",
"341 2 CURVE SMOOTH"
);
}
);
width = 453;
}
);
unicode = 0078;
},
{
glyphname = y;
lastChange = "2020-12-29 09:19:18 +0000";
layers = (
{
anchors = (
{
name = top;
position = "{246, 500}";
}
);
layerId = "A36D14D1-FF07-4574-A62D-30DF65569781";
paths = (
{
closed = 1;
nodes = (
"370 66 LINE SMOOTH",
"370 54 OFFCURVE",
"362 48 OFFCURVE",
"350 48 CURVE SMOOTH",
"151 48 LINE SMOOTH",
"136 48 OFFCURVE",
"131 55 OFFCURVE",
"131 66 CURVE SMOOTH",
"131 480 LINE SMOOTH",
"131 491 OFFCURVE",
"122 500 OFFCURVE",
"111 500 CURVE SMOOTH",
"70 500 LINE SMOOTH",
"59 500 OFFCURVE",
"50 491 OFFCURVE",
"50 480 CURVE SMOOTH",
"50 51 LINE SMOOTH",
"50 22 OFFCURVE",
"72 0 OFFCURVE",
"101 0 CURVE SMOOTH",
"373 0 LINE",
"178 -164 LINE SMOOTH",
"167 -173 OFFCURVE",
"166 -187 OFFCURVE",
"175 -198 CURVE SMOOTH",
"184 -209 OFFCURVE",
"198 -210 OFFCURVE",
"209 -201 CURVE SMOOTH",
"441 -6 LINE SMOOTH",
"449 1 OFFCURVE",
"451 12 OFFCURVE",
"451 18 CURVE SMOOTH",
"451 480 LINE SMOOTH",
"451 491 OFFCURVE",
"442 500 OFFCURVE",
"431 500 CURVE SMOOTH",
"390 500 LINE SMOOTH",
"379 500 OFFCURVE",
"370 491 OFFCURVE",
"370 480 CURVE SMOOTH"
);
}
);
width = 501;
}
);
unicode = 0079;
},
{
glyphname = z;
lastChange = "2020-12-29 09:19:18 +0000";
layers = (
{
layerId = "A36D14D1-FF07-4574-A62D-30DF65569781";
paths = (
{
closed = 1;
nodes = (
"450 484 OFFCURVE",
"425 500 OFFCURVE",
"400 500 CURVE SMOOTH",
"101 500 LINE SMOOTH",
"72 500 OFFCURVE",
"50 478 OFFCURVE",
"50 449 CURVE SMOOTH",
"50 438 LINE SMOOTH",
"50 424 OFFCURVE",
"61 413 OFFCURVE",
"75 413 CURVE SMOOTH",
"107 414 LINE SMOOTH",
"121 414 OFFCURVE",
"131 424 OFFCURVE",
"131 438 CURVE SMOOTH",
"131 439 LINE SMOOTH",
"131 445 OFFCURVE",
"140 452 OFFCURVE",
"151 452 CURVE SMOOTH",
"349.16 452 LINE",
"62 75 LINE SMOOTH",
"58 70 OFFCURVE",
"55 59 OFFCURVE",
"55 53 CURVE SMOOTH",
"55 26 OFFCURVE",
"67 0 OFFCURVE",
"101 0 CURVE SMOOTH",
"400 0 LINE SMOOTH",
"429 0 OFFCURVE",
"451 22 OFFCURVE",
"451 51 CURVE SMOOTH",
"451 63 OFFCURVE",
"439 72 OFFCURVE",
"425 71 CURVE SMOOTH",
"382 69 LINE SMOOTH",
"375 69 OFFCURVE",
"370 65 OFFCURVE",
"366 58 CURVE SMOOTH",
"362 52 OFFCURVE",
"356 48 OFFCURVE",
"350 48 CURVE SMOOTH",
"151 48 LINE SMOOTH",
"143 48 OFFCURVE",
"136 51 OFFCURVE",
"135.706 56.268 CURVE",
"450 461 LINE",
"450 461 LINE",
"450 461 LINE"
);
}
);
width = 501;
}
);
unicode = 007A;
},
{
glyphname = ordfeminine;
lastChange = "2020-12-29 09:44:04 +0000";
layers = (
{
layerId = "A36D14D1-FF07-4574-A62D-30DF65569781";
paths = (
{
closed = 1;
nodes = (
"216 380 OFFCURVE",
"255 395 OFFCURVE",
"284 426 CURVE",
"286 395 OFFCURVE",
"303 380 OFFCURVE",
"335 380 CURVE SMOOTH",
"352 380 OFFCURVE",
"365 383 OFFCURVE",
"378 388 CURVE",
"378 432 LINE",
"374 431 OFFCURVE",
"370 430 OFFCURVE",
"367 430 CURVE SMOOTH",
"356 430 LINE SMOOTH",
"351 430 OFFCURVE",
"347 432 OFFCURVE",
"345 437 CURVE SMOOTH",
"343 442 OFFCURVE",
"342 450 OFFCURVE",
"342 462 CURVE SMOOTH",
"342 622 LINE SMOOTH",
"342 695 OFFCURVE",
"270 709 OFFCURVE",
"212 709 CURVE SMOOTH",
"138 709 OFFCURVE",
"68 682 OFFCURVE",
"65 603 CURVE",
"125 603 LINE",
"128 646 OFFCURVE",
"160 659 OFFCURVE",
"208 659 CURVE SMOOTH",
"246 659 OFFCURVE",
"285 655 OFFCURVE",
"285 610 CURVE SMOOTH",
"285 583 OFFCURVE",
"261 577 OFFCURVE",
"170 568 CURVE SMOOTH",
"111 563 OFFCURVE",
"50 540 OFFCURVE",
"50 469 CURVE SMOOTH",
"50 407 OFFCURVE",
"105 379 OFFCURVE",
"167 380 CURVE SMOOTH"
);
},
{
closed = 1;
nodes = (
"118 506 OFFCURVE",
"146 516 OFFCURVE",
"182 523 CURVE SMOOTH",
"201 526 OFFCURVE",
"219 529 OFFCURVE",
"238 532 CURVE SMOOTH",
"257 535 OFFCURVE",
"271 539 OFFCURVE",
"282 546 CURVE",
"282 499 LINE SMOOTH",
"282 466 OFFCURVE",
"251 430 OFFCURVE",
"180 430 CURVE SMOOTH",
"147 430 OFFCURVE",
"118 436 OFFCURVE",
"118 471 CURVE SMOOTH"
);
}
);
width = 428;
}
);
note = ordfeminine;
unicode = 00AA;
},
{
glyphname = ordmasculine;
lastChange = "2020-12-29 09:44:04 +0000";
layers = (
{
layerId = "A36D14D1-FF07-4574-A62D-30DF65569781";
paths = (
{
closed = 1;
nodes = (
"327 380 OFFCURVE",
"384 447 OFFCURVE",
"384 543 CURVE SMOOTH",
"384 637 OFFCURVE",
"323 712 OFFCURVE",
"217 709 CURVE SMOOTH",
"111 709 OFFCURVE",
"50 637 OFFCURVE",
"50 543 CURVE SMOOTH",
"50 446 OFFCURVE",
"114 380 OFFCURVE",
"218 380 CURVE SMOOTH"
);
},
{
closed = 1;
nodes = (
"313 463 OFFCURVE",
"259 436 OFFCURVE",
"216 437 CURVE SMOOTH",
"163 439 OFFCURVE",
"120 485 OFFCURVE",
"118 543 CURVE SMOOTH",
"118 623 OFFCURVE",
"161 659 OFFCURVE",
"217 659 CURVE SMOOTH",
"256 659 OFFCURVE",
"314 645 OFFCURVE",
"316 542 CURVE"
);
}
);
width = 434;
}
);
note = ordmasculine;
unicode = 00BA;
},
{
glyphname = "ha-ethiopic";
lastChange = "2020-12-29 09:19:18 +0000";
layers = (
{
layerId = "A36D14D1-FF07-4574-A62D-30DF65569781";
paths = (
{
closed = 1;
nodes = (
"370 61 LINE SMOOTH",
"370 50 OFFCURVE",
"361 41 OFFCURVE",
"350 41 CURVE SMOOTH",
"151 41 LINE SMOOTH",
"140 41 OFFCURVE",
"131 50 OFFCURVE",
"131 61 CURVE SMOOTH",
"131 480 LINE SMOOTH",
"131 491 OFFCURVE",
"122 500 OFFCURVE",
"111 500 CURVE SMOOTH",
"70 500 LINE SMOOTH",
"59 500 OFFCURVE",
"50 491 OFFCURVE",
"50 480 CURVE SMOOTH",
"50 51 LINE SMOOTH",
"50 22 OFFCURVE",
"72 0 OFFCURVE",
"101 0 CURVE SMOOTH",
"400 0 LINE SMOOTH",
"429 0 OFFCURVE",
"451 22 OFFCURVE",
"451 51 CURVE SMOOTH",
"451 480 LINE SMOOTH",
"451 491 OFFCURVE",
"442 500 OFFCURVE",
"431 500 CURVE SMOOTH",
"390 500 LINE SMOOTH",
"379 500 OFFCURVE",
"370 491 OFFCURVE",
"370 480 CURVE SMOOTH"
);
}
);
width = 501;
}
);
unicode = 1200;
},
{
glyphname = "hu-ethiopic";
lastChange = "2020-12-29 09:19:18 +0000";
layers = (
{
layerId = "A36D14D1-FF07-4574-A62D-30DF65569781";
paths = (
{
closed = 1;
nodes = (
"370 61 LINE SMOOTH",
"370 50 OFFCURVE",
"361 41 OFFCURVE",
"350 41 CURVE SMOOTH",
"151 41 LINE SMOOTH",
"140 41 OFFCURVE",
"131 50 OFFCURVE",
"131 61 CURVE SMOOTH",
"131 480 LINE SMOOTH",
"131 491 OFFCURVE",
"122 500 OFFCURVE",
"111 500 CURVE SMOOTH",
"70 500 LINE SMOOTH",
"59 500 OFFCURVE",
"50 491 OFFCURVE",
"50 480 CURVE SMOOTH",
"50 51 LINE SMOOTH",
"50 22 OFFCURVE",
"72 0 OFFCURVE",
"101 0 CURVE SMOOTH",
"400 0 LINE SMOOTH",
"429 0 OFFCURVE",
"451 22 OFFCURVE",
"451 51 CURVE SMOOTH",
"451 480 LINE SMOOTH",
"451 491 OFFCURVE",
"442 500 OFFCURVE",
"431 500 CURVE SMOOTH",
"390 500 LINE SMOOTH",
"379 500 OFFCURVE",
"370 491 OFFCURVE",
"370 480 CURVE SMOOTH"
);
},
{
closed = 1;
nodes = (
"552 306 OFFCURVE",
"543 324 OFFCURVE",
"532 324 CURVE SMOOTH",
"452 324 LINE",
"452 243 LINE",
"532 243 LINE SMOOTH",
"543 243 OFFCURVE",
"552 261 OFFCURVE",
"552 282 CURVE SMOOTH",
"552 284 LINE",
"552 284 LINE",
"552 284 LINE"
);
}
);
width = 602;
}
);
unicode = 1201;
},
{
glyphname = "hi-ethiopic";
lastChange = "2020-12-29 09:19:18 +0000";
layers = (
{
layerId = "A36D14D1-FF07-4574-A62D-30DF65569781";
paths = (
{
closed = 1;
nodes = (
"370 61 LINE SMOOTH",
"370 50 OFFCURVE",
"361 41 OFFCURVE",
"350 41 CURVE SMOOTH",
"151 41 LINE SMOOTH",
"140 41 OFFCURVE",
"131 50 OFFCURVE",
"131 61 CURVE SMOOTH",
"131 480 LINE SMOOTH",
"131 491 OFFCURVE",
"122 500 OFFCURVE",
"111 500 CURVE SMOOTH",
"70 500 LINE SMOOTH",
"59 500 OFFCURVE",
"50 491 OFFCURVE",
"50 480 CURVE SMOOTH",
"50 51 LINE SMOOTH",
"50 22 OFFCURVE",
"72 0 OFFCURVE",
"101 0 CURVE SMOOTH",
"400 0 LINE SMOOTH",
"429 0 OFFCURVE",
"451 22 OFFCURVE",
"451 51 CURVE SMOOTH",
"451 480 LINE SMOOTH",
"451 491 OFFCURVE",
"442 500 OFFCURVE",
"431 500 CURVE SMOOTH",
"390 500 LINE SMOOTH",
"379 500 OFFCURVE",
"370 491 OFFCURVE",
"370 480 CURVE SMOOTH"
);
},
{
closed = 1;
nodes = (
"430 -121 LINE",
"431 -5 LINE",
"388 -5 LINE",
"388 -142 LINE SMOOTH",
"388 -153 OFFCURVE",
"397 -162 OFFCURVE",
"408 -162 CURVE SMOOTH",
"500 -162 LINE SMOOTH",
"511 -162 OFFCURVE",
"520 -153 OFFCURVE",
"520 -142 CURVE SMOOTH",
"520 -141 LINE SMOOTH",
"520 -130 OFFCURVE",
"511 -121 OFFCURVE",
"500 -121 CURVE SMOOTH"
);
}
);
width = 570;
}
);
unicode = 1202;
},
{
glyphname = "haa-ethiopic";
lastChange = "2020-12-29 09:19:18 +0000";
layers = (
{
layerId = "A36D14D1-FF07-4574-A62D-30DF65569781";
paths = (
{
closed = 1;
nodes = (
"370 61 LINE SMOOTH",
"370 50 OFFCURVE",
"361 41 OFFCURVE",
"350 41 CURVE SMOOTH",
"151 41 LINE SMOOTH",
"140 41 OFFCURVE",
"131 50 OFFCURVE",
"131 61 CURVE SMOOTH",
"131 480 LINE SMOOTH",
"131 491 OFFCURVE",
"122 500 OFFCURVE",
"111 500 CURVE SMOOTH",
"70 500 LINE SMOOTH",
"59 500 OFFCURVE",
"50 491 OFFCURVE",
"50 480 CURVE SMOOTH",
"50 51 LINE SMOOTH",
"50 22 OFFCURVE",
"72 0 OFFCURVE",
"101 0 CURVE SMOOTH",
"400 0 LINE SMOOTH",
"429 0 OFFCURVE",
"451 22 OFFCURVE",
"451 51 CURVE SMOOTH",
"451 480 LINE SMOOTH",
"451 491 OFFCURVE",
"442 500 OFFCURVE",
"431 500 CURVE SMOOTH",
"390 500 LINE SMOOTH",
"379 500 OFFCURVE",
"370 491 OFFCURVE",
"370 480 CURVE SMOOTH"
);
},
{
closed = 1;
nodes = (
"401 -23 LINE",
"401 -180 LINE SMOOTH",
"401 -191 OFFCURVE",
"410 -200 OFFCURVE",
"421 -200 CURVE SMOOTH",
"422 -200 LINE SMOOTH",
"433 -200 OFFCURVE",
"442 -191 OFFCURVE",
"442 -180 CURVE SMOOTH",
"442 -23 LINE",
"442 -23 LINE",
"442 -23 LINE"
);
}
);
width = 501;
}
);
unicode = 1203;
},
{
glyphname = "hee-ethiopic";
lastChange = "2020-12-29 09:19:18 +0000";
layers = (
{
layerId = "A36D14D1-FF07-4574-A62D-30DF65569781";
paths = (
{
closed = 1;
nodes = (
"370 61 LINE SMOOTH",
"370 50 OFFCURVE",
"361 41 OFFCURVE",
"350 41 CURVE SMOOTH",
"151 41 LINE SMOOTH",
"140 41 OFFCURVE",
"131 50 OFFCURVE",
"131 61 CURVE SMOOTH",
"131 480 LINE SMOOTH",
"131 491 OFFCURVE",
"122 500 OFFCURVE",
"111 500 CURVE SMOOTH",
"70 500 LINE SMOOTH",
"59 500 OFFCURVE",
"50 491 OFFCURVE",
"50 480 CURVE SMOOTH",
"50 51 LINE SMOOTH",
"50 22 OFFCURVE",
"72 0 OFFCURVE",
"101 0 CURVE SMOOTH",
"400 0 LINE SMOOTH",
"429 0 OFFCURVE",
"451 22 OFFCURVE",
"451 51 CURVE SMOOTH",
"451 480 LINE SMOOTH",
"451 491 OFFCURVE",
"442 500 OFFCURVE",
"431 500 CURVE SMOOTH",
"390 500 LINE SMOOTH",
"379 500 OFFCURVE",
"370 491 OFFCURVE",
"370 480 CURVE SMOOTH"
);
},
{
closed = 1;
nodes = (
"466 -190 OFFCURVE",
"500 -153 OFFCURVE",
"500 -107 CURVE SMOOTH",
"500 -61 OFFCURVE",
"466 -24 OFFCURVE",
"421 -24 CURVE SMOOTH",
"376 -24 OFFCURVE",
"342 -61 OFFCURVE",
"342 -107 CURVE SMOOTH",
"342 -153 OFFCURVE",
"376 -190 OFFCURVE",
"421 -190 CURVE SMOOTH"
);
},
{
closed = 1;
nodes = (
"393 -158 OFFCURVE",
"372 -136 OFFCURVE",
"372 -107 CURVE SMOOTH",
"372 -78 OFFCURVE",
"393 -56 OFFCURVE",
"421 -56 CURVE SMOOTH",
"449 -56 OFFCURVE",
"470 -78 OFFCURVE",
"470 -107 CURVE SMOOTH",
"470 -136 OFFCURVE",
"449 -158 OFFCURVE",
"421 -158 CURVE SMOOTH"
);
}
);
width = 550;
}
);
unicode = 1204;
},
{
glyphname = "he-ethiopic";
lastChange = "2020-12-29 09:19:18 +0000";
layers = (
{
layerId = "A36D14D1-FF07-4574-A62D-30DF65569781";
paths = (
{
closed = 1;
nodes = (
"222 315 LINE SMOOTH",
"233 315 OFFCURVE",
"242 324 OFFCURVE",
"242 335 CURVE SMOOTH",
"242 336 LINE SMOOTH",
"242 347 OFFCURVE",
"233 356 OFFCURVE",
"222 356 CURVE SMOOTH",
"65 356 LINE",
"65 315 LINE",
"65 315 LINE",
"65 315 LINE"
);
},
{
closed = 1;
nodes = (
"370 61 LINE SMOOTH",
"370 50 OFFCURVE",
"361 41 OFFCURVE",
"350 41 CURVE SMOOTH",
"151 41 LINE SMOOTH",
"140 41 OFFCURVE",
"131 50 OFFCURVE",
"131 61 CURVE SMOOTH",
"131 480 LINE SMOOTH",
"131 491 OFFCURVE",
"122 500 OFFCURVE",
"111 500 CURVE SMOOTH",
"70 500 LINE SMOOTH",
"59 500 OFFCURVE",
"50 491 OFFCURVE",
"50 480 CURVE SMOOTH",
"50 51 LINE SMOOTH",
"50 22 OFFCURVE",
"72 0 OFFCURVE",
"101 0 CURVE SMOOTH",
"400 0 LINE SMOOTH",
"429 0 OFFCURVE",
"451 22 OFFCURVE",
"451 51 CURVE SMOOTH",
"451 480 LINE SMOOTH",
"451 491 OFFCURVE",
"442 500 OFFCURVE",
"431 500 CURVE SMOOTH",
"390 500 LINE SMOOTH",
"379 500 OFFCURVE",
"370 491 OFFCURVE",
"370 480 CURVE SMOOTH"
);
}
);
width = 501;
}
);
unicode = 1205;
},
{
glyphname = "ho-ethiopic";
lastChange = "2020-12-29 09:19:18 +0000";
layers = (
{
components = (
{
name = "ha-ethiopic";
}
);
layerId = "A36D14D1-FF07-4574-A62D-30DF65569781";
paths = (
{
closed = 1;
nodes = (
"341 371 OFFCURVE",
"375 408 OFFCURVE",
"375 454 CURVE SMOOTH",
"375 500 OFFCURVE",
"341 537 OFFCURVE",
"296 537 CURVE SMOOTH",
"251 537 OFFCURVE",
"217 500 OFFCURVE",
"217 454 CURVE SMOOTH",
"217 408 OFFCURVE",
"251 371 OFFCURVE",
"296 371 CURVE SMOOTH"
);
},
{
closed = 1;
nodes = (
"268 403 OFFCURVE",
"247 425 OFFCURVE",
"247 454 CURVE SMOOTH",
"247 483 OFFCURVE",
"268 505 OFFCURVE",
"296 505 CURVE SMOOTH",
"324 505 OFFCURVE",
"345 483 OFFCURVE",
"345 454 CURVE SMOOTH",
"345 425 OFFCURVE",
"324 403 OFFCURVE",
"296 403 CURVE SMOOTH"
);
}
);
width = 501;
}
);
unicode = 1206;
},
{
glyphname = "hoa-ethiopic";
lastChange = "2020-12-29 09:19:18 +0000";
layers = (
{
layerId = "A36D14D1-FF07-4574-A62D-30DF65569781";
paths = (
{
closed = 1;
nodes = (
"50 285 LINE SMOOTH",
"50 262 OFFCURVE",
"59 243 OFFCURVE",
"70 243 CURVE SMOOTH",
"150 243 LINE",
"150 329 LINE",
"70 329 LINE SMOOTH",
"59 329 OFFCURVE",
"50 310 OFFCURVE",
"50 287 CURVE SMOOTH"
);
},
{
closed = 1;
nodes = (
"523 469 OFFCURVE",
"557 506 OFFCURVE",
"557 552 CURVE SMOOTH",
"557 598 OFFCURVE",
"523 635 OFFCURVE",
"478 635 CURVE SMOOTH",
"433 635 OFFCURVE",
"399 598 OFFCURVE",
"399 552 CURVE SMOOTH",
"399 506 OFFCURVE",
"433 469 OFFCURVE",
"478 469 CURVE SMOOTH"
);
},
{
closed = 1;
nodes = (
"450 501 OFFCURVE",
"429 523 OFFCURVE",
"429 552 CURVE SMOOTH",
"429 581 OFFCURVE",
"450 603 OFFCURVE",
"478 603 CURVE SMOOTH",
"506 603 OFFCURVE",
"527 581 OFFCURVE",
"527 552 CURVE SMOOTH",
"527 523 OFFCURVE",
"506 501 OFFCURVE",
"478 501 CURVE SMOOTH"
);
},
{
closed = 1;
nodes = (
"441 61 LINE SMOOTH",
"441 50 OFFCURVE",
"432 41 OFFCURVE",
"421 41 CURVE SMOOTH",
"222 41 LINE SMOOTH",
"211 41 OFFCURVE",
"202 50 OFFCURVE",
"202 61 CURVE SMOOTH",
"202 480 LINE SMOOTH",
"202 491 OFFCURVE",
"193 500 OFFCURVE",
"182 500 CURVE SMOOTH",
"141 500 LINE SMOOTH",
"130 500 OFFCURVE",
"121 491 OFFCURVE",
"121 480 CURVE SMOOTH",
"121 51 LINE SMOOTH",
"121 22 OFFCURVE",
"143 0 OFFCURVE",
"172 0 CURVE SMOOTH",
"471 0 LINE SMOOTH",
"500 0 OFFCURVE",
"522 22 OFFCURVE",
"522 51 CURVE SMOOTH",
"522 480 LINE SMOOTH",
"522 491 OFFCURVE",
"513 500 OFFCURVE",
"502 500 CURVE SMOOTH",
"461 500 LINE SMOOTH",
"450 500 OFFCURVE",
"441 491 OFFCURVE",
"441 480 CURVE SMOOTH"
);
}
);
width = 607;
}
);
unicode = 1207;
},
{
glyphname = "la-ethiopic";
lastChange = "2020-12-29 09:19:18 +0000";
layers = (
{
layerId = "A36D14D1-FF07-4574-A62D-30DF65569781";
paths = (
{
closed = 1;
nodes = (
"370 9 OFFCURVE",
"379 0 OFFCURVE",
"390 0 CURVE SMOOTH",
"431 0 LINE SMOOTH",
"442 0 OFFCURVE",
"451 9 OFFCURVE",
"451 20 CURVE SMOOTH",
"451 449 LINE SMOOTH",
"451 478 OFFCURVE",
"429 500 OFFCURVE",
"400 500 CURVE SMOOTH",
"101 500 LINE SMOOTH",
"72 500 OFFCURVE",
"50 478 OFFCURVE",
"50 449 CURVE SMOOTH",
"50 20 LINE SMOOTH",
"50 9 OFFCURVE",
"59 0 OFFCURVE",
"70 0 CURVE SMOOTH",
"111 0 LINE SMOOTH",
"122 0 OFFCURVE",
"131 9 OFFCURVE",
"131 20 CURVE SMOOTH",
"131 439 LINE SMOOTH",
"131 450 OFFCURVE",
"140 459 OFFCURVE",
"151 459 CURVE SMOOTH",
"350 459 LINE SMOOTH",
"361 459 OFFCURVE",
"370 450 OFFCURVE",
"370 439 CURVE SMOOTH",
"370 20 LINE",
"370 20 LINE",
"370 20 LINE"
);
},
{
closed = 1;
nodes = (
"50 406 LINE",
"125 406 LINE",
"125 680 LINE SMOOTH",
"125 691 OFFCURVE",
"116 700 OFFCURVE",
"105 700 CURVE SMOOTH",
"70 700 LINE SMOOTH",
"59 700 OFFCURVE",
"50 691 OFFCURVE",
"50 680 CURVE SMOOTH"
);
}
);
width = 501;
}
);
unicode = 1208;
},
{
glyphname = "lu-ethiopic";
lastChange = "2020-12-29 09:19:18 +0000";
layers = (
{
layerId = "A36D14D1-FF07-4574-A62D-30DF65569781";
paths = (
{
closed = 1;
nodes = (
"370 9 OFFCURVE",
"379 0 OFFCURVE",
"390 0 CURVE SMOOTH",
"431 0 LINE SMOOTH",
"442 0 OFFCURVE",
"451 9 OFFCURVE",
"451 20 CURVE SMOOTH",
"451 449 LINE SMOOTH",
"451 478 OFFCURVE",
"429 500 OFFCURVE",
"400 500 CURVE SMOOTH",
"101 500 LINE SMOOTH",
"72 500 OFFCURVE",
"50 478 OFFCURVE",
"50 449 CURVE SMOOTH",
"50 20 LINE SMOOTH",
"50 9 OFFCURVE",
"59 0 OFFCURVE",
"70 0 CURVE SMOOTH",
"111 0 LINE SMOOTH",
"122 0 OFFCURVE",
"131 9 OFFCURVE",
"131 20 CURVE SMOOTH",
"131 439 LINE SMOOTH",
"131 450 OFFCURVE",
"140 459 OFFCURVE",
"151 459 CURVE SMOOTH",
"350 459 LINE SMOOTH",
"361 459 OFFCURVE",
"370 450 OFFCURVE",
"370 439 CURVE SMOOTH",
"370 20 LINE",
"370 20 LINE",
"370 20 LINE"
);
},
{
closed = 1;
nodes = (
"50 406 LINE",
"125 406 LINE",
"125 680 LINE SMOOTH",
"125 691 OFFCURVE",
"116 700 OFFCURVE",
"105 700 CURVE SMOOTH",
"70 700 LINE SMOOTH",
"59 700 OFFCURVE",
"50 691 OFFCURVE",
"50 680 CURVE SMOOTH"
);
},
{
closed = 1;
nodes = (
"542 306 OFFCURVE",
"533 324 OFFCURVE",
"522 324 CURVE SMOOTH",
"442 324 LINE",
"442 243 LINE",
"522 243 LINE SMOOTH",
"533 243 OFFCURVE",
"542 261 OFFCURVE",
"542 282 CURVE SMOOTH",
"542 284 LINE",
"542 284 LINE",
"542 284 LINE"
);
}
);
width = 592;
}
);
unicode = 1209;
},
{
glyphname = "li-ethiopic";
lastChange = "2020-12-29 09:19:18 +0000";
layers = (
{
layerId = "A36D14D1-FF07-4574-A62D-30DF65569781";
paths = (
{
closed = 1;
nodes = (
"370 9 OFFCURVE",
"379 0 OFFCURVE",
"390 0 CURVE SMOOTH",
"431 0 LINE SMOOTH",
"442 0 OFFCURVE",
"451 9 OFFCURVE",
"451 20 CURVE SMOOTH",
"451 449 LINE SMOOTH",
"451 478 OFFCURVE",
"429 500 OFFCURVE",
"400 500 CURVE SMOOTH",
"101 500 LINE SMOOTH",
"72 500 OFFCURVE",
"50 478 OFFCURVE",
"50 449 CURVE SMOOTH",
"50 20 LINE SMOOTH",
"50 9 OFFCURVE",
"59 0 OFFCURVE",
"70 0 CURVE SMOOTH",
"111 0 LINE SMOOTH",
"122 0 OFFCURVE",
"131 9 OFFCURVE",
"131 20 CURVE SMOOTH",
"131 439 LINE SMOOTH",
"131 450 OFFCURVE",
"140 459 OFFCURVE",
"151 459 CURVE SMOOTH",
"350 459 LINE SMOOTH",
"361 459 OFFCURVE",
"370 450 OFFCURVE",
"370 439 CURVE SMOOTH",
"370 20 LINE",
"370 20 LINE",
"370 20 LINE"
);
},
{
closed = 1;
nodes = (
"50 406 LINE",
"125 406 LINE",
"125 680 LINE SMOOTH",
"125 691 OFFCURVE",
"116 700 OFFCURVE",
"105 700 CURVE SMOOTH",
"70 700 LINE SMOOTH",
"59 700 OFFCURVE",
"50 691 OFFCURVE",
"50 680 CURVE SMOOTH"
);
},
{
closed = 1;
nodes = (
"554 63 OFFCURVE",
"545 81 OFFCURVE",
"534 81 CURVE SMOOTH",
"454 81 LINE",
"454 0 LINE",
"534 0 LINE SMOOTH",
"545 0 OFFCURVE",
"554 18 OFFCURVE",
"554 39 CURVE SMOOTH",
"554 41 LINE",
"554 41 LINE",
"554 41 LINE"
);
}
);
width = 604;
}
);
unicode = 120A;
},
{
glyphname = "laa-ethiopic";
lastChange = "2020-12-29 09:19:18 +0000";
layers = (
{
layerId = "A36D14D1-FF07-4574-A62D-30DF65569781";
paths = (
{
closed = 1;
nodes = (
"406 -23 LINE",
"406 -180 LINE SMOOTH",
"406 -191 OFFCURVE",
"415 -200 OFFCURVE",
"426 -200 CURVE SMOOTH",
"427 -200 LINE SMOOTH",
"438 -200 OFFCURVE",
"447 -191 OFFCURVE",
"447 -180 CURVE SMOOTH",
"447 -23 LINE",
"447 -23 LINE",
"447 -23 LINE"
);
},
{
closed = 1;
nodes = (
"370 9 OFFCURVE",
"379 0 OFFCURVE",
"390 0 CURVE SMOOTH",
"431 0 LINE SMOOTH",
"442 0 OFFCURVE",
"451 9 OFFCURVE",
"451 20 CURVE SMOOTH",
"451 449 LINE SMOOTH",
"451 478 OFFCURVE",
"429 500 OFFCURVE",
"400 500 CURVE SMOOTH",
"101 500 LINE SMOOTH",
"72 500 OFFCURVE",
"50 478 OFFCURVE",
"50 449 CURVE SMOOTH",
"50 20 LINE SMOOTH",
"50 9 OFFCURVE",
"59 0 OFFCURVE",
"70 0 CURVE SMOOTH",
"111 0 LINE SMOOTH",
"122 0 OFFCURVE",
"131 9 OFFCURVE",
"131 20 CURVE SMOOTH",
"131 439 LINE SMOOTH",
"131 450 OFFCURVE",
"140 459 OFFCURVE",
"151 459 CURVE SMOOTH",
"350 459 LINE SMOOTH",
"361 459 OFFCURVE",
"370 450 OFFCURVE",
"370 439 CURVE SMOOTH",
"370 20 LINE",
"370 20 LINE",
"370 20 LINE"
);
},
{
closed = 1;
nodes = (
"50 406 LINE",
"125 406 LINE",
"125 680 LINE SMOOTH",
"125 691 OFFCURVE",
"116 700 OFFCURVE",
"105 700 CURVE SMOOTH",
"70 700 LINE SMOOTH",
"59 700 OFFCURVE",
"50 691 OFFCURVE",
"50 680 CURVE SMOOTH"
);
}
);
width = 501;
}
);
unicode = 120B;
},
{
glyphname = "lee-ethiopic";
lastChange = "2020-12-29 09:19:18 +0000";
layers = (
{
layerId = "A36D14D1-FF07-4574-A62D-30DF65569781";
paths = (
{
closed = 1;
nodes = (
"381 0 OFFCURVE",
"415 37 OFFCURVE",
"415 83 CURVE SMOOTH",
"415 129 OFFCURVE",
"381 166 OFFCURVE",
"336 166 CURVE SMOOTH",
"291 166 OFFCURVE",
"257 129 OFFCURVE",
"257 83 CURVE SMOOTH",
"257 37 OFFCURVE",
"291 0 OFFCURVE",
"336 0 CURVE SMOOTH"
);
},
{
closed = 1;
nodes = (
"308 32 OFFCURVE",
"287 54 OFFCURVE",
"287 83 CURVE SMOOTH",
"287 112 OFFCURVE",
"308 134 OFFCURVE",
"336 134 CURVE SMOOTH",
"364 134 OFFCURVE",
"385 112 OFFCURVE",
"385 83 CURVE SMOOTH",
"385 54 OFFCURVE",
"364 32 OFFCURVE",
"336 32 CURVE SMOOTH"
);
},
{
closed = 1;
nodes = (
"370 9 OFFCURVE",
"379 0 OFFCURVE",
"390 0 CURVE SMOOTH",
"431 0 LINE SMOOTH",
"442 0 OFFCURVE",
"451 9 OFFCURVE",
"451 20 CURVE SMOOTH",
"451 449 LINE SMOOTH",
"451 478 OFFCURVE",
"429 500 OFFCURVE",
"400 500 CURVE SMOOTH",
"101 500 LINE SMOOTH",
"72 500 OFFCURVE",
"50 478 OFFCURVE",
"50 449 CURVE SMOOTH",
"50 20 LINE SMOOTH",
"50 9 OFFCURVE",
"59 0 OFFCURVE",
"70 0 CURVE SMOOTH",
"111 0 LINE SMOOTH",
"122 0 OFFCURVE",
"131 9 OFFCURVE",
"131 20 CURVE SMOOTH",
"131 439 LINE SMOOTH",
"131 450 OFFCURVE",
"140 459 OFFCURVE",
"151 459 CURVE SMOOTH",
"350 459 LINE SMOOTH",
"361 459 OFFCURVE",
"370 450 OFFCURVE",
"370 439 CURVE SMOOTH",
"370 20 LINE",
"370 20 LINE",
"370 20 LINE"
);
},
{
closed = 1;
nodes = (
"50 406 LINE",
"125 406 LINE",
"125 680 LINE SMOOTH",
"125 691 OFFCURVE",
"116 700 OFFCURVE",
"105 700 CURVE SMOOTH",
"70 700 LINE SMOOTH",
"59 700 OFFCURVE",
"50 691 OFFCURVE",
"50 680 CURVE SMOOTH"
);
}
);
width = 501;
}
);
unicode = 120C;
},
{
glyphname = "le-ethiopic";
lastChange = "2020-12-29 09:19:18 +0000";
layers = (
{
layerId = "A36D14D1-FF07-4574-A62D-30DF65569781";
paths = (
{
closed = 1;
nodes = (
"226 0 OFFCURVE",
"260 37 OFFCURVE",
"260 83 CURVE SMOOTH",
"260 129 OFFCURVE",
"226 166 OFFCURVE",
"181 166 CURVE SMOOTH",
"136 166 OFFCURVE",
"102 129 OFFCURVE",
"102 83 CURVE SMOOTH",
"102 37 OFFCURVE",
"136 0 OFFCURVE",
"181 0 CURVE SMOOTH"
);
},
{
closed = 1;
nodes = (
"153 32 OFFCURVE",
"132 54 OFFCURVE",
"132 83 CURVE SMOOTH",
"132 112 OFFCURVE",
"153 134 OFFCURVE",
"181 134 CURVE SMOOTH",
"209 134 OFFCURVE",
"230 112 OFFCURVE",
"230 83 CURVE SMOOTH",
"230 54 OFFCURVE",
"209 32 OFFCURVE",
"181 32 CURVE SMOOTH"
);
},
{
closed = 1;
nodes = (
"370 9 OFFCURVE",
"379 0 OFFCURVE",
"390 0 CURVE SMOOTH",
"431 0 LINE SMOOTH",
"442 0 OFFCURVE",
"451 9 OFFCURVE",
"451 20 CURVE SMOOTH",
"451 449 LINE SMOOTH",
"451 478 OFFCURVE",
"429 500 OFFCURVE",
"400 500 CURVE SMOOTH",
"101 500 LINE SMOOTH",
"72 500 OFFCURVE",
"50 478 OFFCURVE",
"50 449 CURVE SMOOTH",
"50 20 LINE SMOOTH",
"50 9 OFFCURVE",
"59 0 OFFCURVE",
"70 0 CURVE SMOOTH",
"111 0 LINE SMOOTH",
"122 0 OFFCURVE",
"131 9 OFFCURVE",
"131 20 CURVE SMOOTH",
"131 439 LINE SMOOTH",
"131 450 OFFCURVE",
"140 459 OFFCURVE",
"151 459 CURVE SMOOTH",
"350 459 LINE SMOOTH",
"361 459 OFFCURVE",
"370 450 OFFCURVE",
"370 439 CURVE SMOOTH",
"370 20 LINE",
"370 20 LINE",
"370 20 LINE"
);
},
{
closed = 1;
nodes = (
"50 406 LINE",
"125 406 LINE",
"125 680 LINE SMOOTH",
"125 691 OFFCURVE",
"116 700 OFFCURVE",
"105 700 CURVE SMOOTH",
"70 700 LINE SMOOTH",
"59 700 OFFCURVE",
"50 691 OFFCURVE",
"50 680 CURVE SMOOTH"
);
}
);
width = 501;
}
);
unicode = 120D;
},
{
glyphname = "lo-ethiopic";
lastChange = "2020-12-29 09:19:18 +0000";
layers = (
{
layerId = "A36D14D1-FF07-4574-A62D-30DF65569781";
paths = (
{
closed = 1;
nodes = (
"520 190 OFFCURVE",
"554 227 OFFCURVE",
"554 273 CURVE SMOOTH",
"554 319 OFFCURVE",
"520 356 OFFCURVE",
"475 356 CURVE SMOOTH",
"430 356 OFFCURVE",
"396 319 OFFCURVE",
"396 273 CURVE SMOOTH",
"396 227 OFFCURVE",
"430 190 OFFCURVE",
"475 190 CURVE SMOOTH"
);
},
{
closed = 1;
nodes = (
"447 222 OFFCURVE",
"426 244 OFFCURVE",
"426 273 CURVE SMOOTH",
"426 302 OFFCURVE",
"447 324 OFFCURVE",
"475 324 CURVE SMOOTH",
"503 324 OFFCURVE",
"524 302 OFFCURVE",
"524 273 CURVE SMOOTH",
"524 244 OFFCURVE",
"503 222 OFFCURVE",
"475 222 CURVE SMOOTH"
);
},
{
closed = 1;
nodes = (
"370 9 OFFCURVE",
"379 0 OFFCURVE",
"390 0 CURVE SMOOTH",
"431 0 LINE SMOOTH",
"442 0 OFFCURVE",
"451 9 OFFCURVE",
"451 20 CURVE SMOOTH",
"451 449 LINE SMOOTH",
"451 478 OFFCURVE",
"429 500 OFFCURVE",
"400 500 CURVE SMOOTH",
"101 500 LINE SMOOTH",
"72 500 OFFCURVE",
"50 478 OFFCURVE",
"50 449 CURVE SMOOTH",
"50 20 LINE SMOOTH",
"50 9 OFFCURVE",
"59 0 OFFCURVE",
"70 0 CURVE SMOOTH",
"111 0 LINE SMOOTH",
"122 0 OFFCURVE",
"131 9 OFFCURVE",
"131 20 CURVE SMOOTH",
"131 439 LINE SMOOTH",
"131 450 OFFCURVE",
"140 459 OFFCURVE",
"151 459 CURVE SMOOTH",
"350 459 LINE SMOOTH",
"361 459 OFFCURVE",
"370 450 OFFCURVE",
"370 439 CURVE SMOOTH",
"370 20 LINE",
"370 20 LINE",
"370 20 LINE"
);
},
{
closed = 1;
nodes = (
"50 406 LINE",
"125 406 LINE",
"125 680 LINE SMOOTH",
"125 691 OFFCURVE",
"116 700 OFFCURVE",
"105 700 CURVE SMOOTH",
"70 700 LINE SMOOTH",
"59 700 OFFCURVE",
"50 691 OFFCURVE",
"50 680 CURVE SMOOTH"
);
}
);
width = 604;
}
);
unicode = 120E;
},
{
glyphname = "lwa-ethiopic";
lastChange = "2020-12-29 09:19:18 +0000";
layers = (
{
components = (
{
name = _part.hoa;
transform = "{1, 0, 0, 1, -39, 0}";
}
);
layerId = "A36D14D1-FF07-4574-A62D-30DF65569781";
paths = (
{
closed = 1;
nodes = (
"370 9 OFFCURVE",
"379 0 OFFCURVE",
"390 0 CURVE SMOOTH",
"431 0 LINE SMOOTH",
"442 0 OFFCURVE",
"451 9 OFFCURVE",
"451 20 CURVE SMOOTH",
"451 449 LINE SMOOTH",
"451 478 OFFCURVE",
"429 500 OFFCURVE",
"400 500 CURVE SMOOTH",
"101 500 LINE SMOOTH",
"72 500 OFFCURVE",
"50 478 OFFCURVE",
"50 449 CURVE SMOOTH",
"50 20 LINE SMOOTH",
"50 9 OFFCURVE",
"59 0 OFFCURVE",
"70 0 CURVE SMOOTH",
"111 0 LINE SMOOTH",
"122 0 OFFCURVE",
"131 9 OFFCURVE",
"131 20 CURVE SMOOTH",
"131 439 LINE SMOOTH",
"131 450 OFFCURVE",
"140 459 OFFCURVE",
"151 459 CURVE SMOOTH",
"350 459 LINE SMOOTH",
"361 459 OFFCURVE",
"370 450 OFFCURVE",
"370 439 CURVE SMOOTH",
"370 20 LINE",
"370 20 LINE",
"370 20 LINE"
);
},
{
closed = 1;
nodes = (
"50 406 LINE",
"125 406 LINE",
"125 680 LINE SMOOTH",
"125 691 OFFCURVE",
"116 700 OFFCURVE",
"105 700 CURVE SMOOTH",
"70 700 LINE SMOOTH",
"59 700 OFFCURVE",
"50 691 OFFCURVE",
"50 680 CURVE SMOOTH"
);
}
);
width = 523;
}
);
unicode = 120F;
},
{
glyphname = "mu-ethiopic";
lastChange = "2020-12-29 09:19:18 +0000";
layers = (
{
components = (
{
name = _part.hoo;
transform = "{1, 0, 0, 1, 41, 0}";
}
);
layerId = "A36D14D1-FF07-4574-A62D-30DF65569781";
paths = (
{
closed = 1;
nodes = (
"69 500 LINE",
"58 499 OFFCURVE",
"50 491 OFFCURVE",
"50 480 CURVE SMOOTH",
"50 51 LINE SMOOTH",
"50 22 OFFCURVE",
"72 0 OFFCURVE",
"101 0 CURVE SMOOTH",
"238 0 LINE SMOOTH",
"249 0 OFFCURVE",
"258 9 OFFCURVE",
"258 20 CURVE SMOOTH",
"258 475 LINE",
"316 475 LINE",
"316 20 LINE SMOOTH",
"316 9 OFFCURVE",
"325 0 OFFCURVE",
"336 0 CURVE SMOOTH",
"480 0 LINE SMOOTH",
"509 0 OFFCURVE",
"531 22 OFFCURVE",
"531 51 CURVE SMOOTH",
"531 480 LINE SMOOTH",
"531 491 OFFCURVE",
"523 499 OFFCURVE",
"512 500 CURVE"
);
},
{
closed = 1;
nodes = (
"144 41 LINE SMOOTH",
"133 41 OFFCURVE",
"124 50 OFFCURVE",
"124 61 CURVE SMOOTH",
"124 455 LINE SMOOTH",
"124 466 OFFCURVE",
"133 475 OFFCURVE",
"144 475 CURVE SMOOTH",
"206 475 LINE",
"206 41 LINE",
"206 41 LINE",
"206 41 LINE"
);
},
{
closed = 1;
nodes = (
"368 41 LINE",
"368 475 LINE",
"441 475 LINE SMOOTH",
"452 475 OFFCURVE",
"461 466 OFFCURVE",
"461 455 CURVE SMOOTH",
"461 61 LINE SMOOTH",
"461 50 OFFCURVE",
"452 41 OFFCURVE",
"441 41 CURVE SMOOTH"
);
}
);
width = 671;
}
);
unicode = 1219;
},
{
glyphname = "mi-ethiopic";
lastChange = "2020-12-29 09:19:18 +0000";
layers = (
{
layerId = "A36D14D1-FF07-4574-A62D-30DF65569781";
paths = (
{
closed = 1;
nodes = (
"69 500 LINE",
"58 499 OFFCURVE",
"50 491 OFFCURVE",
"50 480 CURVE SMOOTH",
"50 51 LINE SMOOTH",
"50 22 OFFCURVE",
"72 0 OFFCURVE",
"101 0 CURVE SMOOTH",
"238 0 LINE SMOOTH",
"249 0 OFFCURVE",
"258 9 OFFCURVE",
"258 20 CURVE SMOOTH",
"258 475 LINE",
"316 475 LINE",
"316 20 LINE SMOOTH",
"316 9 OFFCURVE",
"325 0 OFFCURVE",
"336 0 CURVE SMOOTH",
"480 0 LINE SMOOTH",
"509 0 OFFCURVE",
"531 22 OFFCURVE",
"531 51 CURVE SMOOTH",
"531 480 LINE SMOOTH",
"531 491 OFFCURVE",
"523 499 OFFCURVE",
"512 500 CURVE"
);
},
{
closed = 1;
nodes = (
"144 41 LINE SMOOTH",
"133 41 OFFCURVE",
"124 50 OFFCURVE",
"124 61 CURVE SMOOTH",
"124 455 LINE SMOOTH",
"124 466 OFFCURVE",
"133 475 OFFCURVE",
"144 475 CURVE SMOOTH",
"206 475 LINE",
"206 41 LINE",
"206 41 LINE",
"206 41 LINE"
);
},
{
closed = 1;
nodes = (
"368 41 LINE",
"368 475 LINE",
"441 475 LINE SMOOTH",
"452 475 OFFCURVE",
"461 466 OFFCURVE",
"461 455 CURVE SMOOTH",
"461 61 LINE SMOOTH",
"461 50 OFFCURVE",
"452 41 OFFCURVE",
"441 41 CURVE SMOOTH"
);
},
{
closed = 1;
nodes = (
"450 -190 LINE",
"560 -190 LINE SMOOTH",
"571 -190 OFFCURVE",
"580 -181 OFFCURVE",
"580 -170 CURVE SMOOTH",
"580 -169 LINE SMOOTH",
"580 -158 OFFCURVE",
"571 -149 OFFCURVE",
"560 -149 CURVE SMOOTH",
"450 -149 LINE",
"450 -149 LINE",
"450 -149 LINE"
);
},
{
closed = 1;
nodes = (
"450 -8 LINE",
"450 -150 LINE",
"491 -150 LINE",
"491 -9 LINE",
"491 -9 LINE",
"491 -9 LINE"
);
}
);
width = 630;
}
);
unicode = 121A;
},
{
glyphname = "maa-ethiopic";
lastChange = "2020-12-29 09:19:18 +0000";
layers = (
{
layerId = "A36D14D1-FF07-4574-A62D-30DF65569781";
paths = (
{
closed = 1;
nodes = (
"69 500 LINE",
"58 499 OFFCURVE",
"50 491 OFFCURVE",
"50 480 CURVE SMOOTH",
"50 51 LINE SMOOTH",
"50 22 OFFCURVE",
"72 0 OFFCURVE",
"101 0 CURVE SMOOTH",
"238 0 LINE SMOOTH",
"249 0 OFFCURVE",
"258 9 OFFCURVE",
"258 20 CURVE SMOOTH",
"258 475 LINE",
"316 475 LINE",
"316 20 LINE SMOOTH",
"316 9 OFFCURVE",
"325 0 OFFCURVE",
"336 0 CURVE SMOOTH",
"480 0 LINE SMOOTH",
"509 0 OFFCURVE",
"531 22 OFFCURVE",
"531 51 CURVE SMOOTH",
"531 480 LINE SMOOTH",
"531 491 OFFCURVE",
"523 499 OFFCURVE",
"512 500 CURVE"
);
},
{
closed = 1;
nodes = (
"144 41 LINE SMOOTH",
"133 41 OFFCURVE",
"124 50 OFFCURVE",
"124 61 CURVE SMOOTH",
"124 455 LINE SMOOTH",
"124 466 OFFCURVE",
"133 475 OFFCURVE",
"144 475 CURVE SMOOTH",
"206 475 LINE",
"206 41 LINE",
"206 41 LINE",
"206 41 LINE"
);
},
{
closed = 1;
nodes = (
"368 41 LINE",
"368 475 LINE",
"441 475 LINE SMOOTH",
"452 475 OFFCURVE",
"461 466 OFFCURVE",
"461 455 CURVE SMOOTH",
"461 61 LINE SMOOTH",
"461 50 OFFCURVE",
"452 41 OFFCURVE",
"441 41 CURVE SMOOTH"
);
},
{
closed = 1;
nodes = (
"490 -23 LINE",
"490 -180 LINE SMOOTH",
"490 -191 OFFCURVE",
"499 -200 OFFCURVE",
"510 -200 CURVE SMOOTH",
"511 -200 LINE SMOOTH",
"522 -200 OFFCURVE",
"531 -191 OFFCURVE",
"531 -180 CURVE SMOOTH",
"531 -23 LINE",
"531 -23 LINE",
"531 -23 LINE"
);
}
);
width = 581;
}
);
unicode = 121B;
},
{
glyphname = "mee-ethiopic";
lastChange = "2020-12-29 09:19:18 +0000";
layers = (
{
layerId = "A36D14D1-FF07-4574-A62D-30DF65569781";
paths = (
{
closed = 1;
nodes = (
"69 500 LINE",
"58 499 OFFCURVE",
"50 491 OFFCURVE",
"50 480 CURVE SMOOTH",
"50 51 LINE SMOOTH",
"50 22 OFFCURVE",
"72 0 OFFCURVE",
"101 0 CURVE SMOOTH",
"238 0 LINE SMOOTH",
"249 0 OFFCURVE",
"258 9 OFFCURVE",
"258 20 CURVE SMOOTH",
"258 475 LINE",
"316 475 LINE",
"316 20 LINE SMOOTH",
"316 9 OFFCURVE",
"325 0 OFFCURVE",
"336 0 CURVE SMOOTH",
"480 0 LINE SMOOTH",
"509 0 OFFCURVE",
"531 22 OFFCURVE",
"531 51 CURVE SMOOTH",
"531 480 LINE SMOOTH",
"531 491 OFFCURVE",
"523 499 OFFCURVE",
"512 500 CURVE"
);
},
{
closed = 1;
nodes = (
"144 41 LINE SMOOTH",
"133 41 OFFCURVE",
"124 50 OFFCURVE",
"124 61 CURVE SMOOTH",
"124 455 LINE SMOOTH",
"124 466 OFFCURVE",
"133 475 OFFCURVE",
"144 475 CURVE SMOOTH",
"206 475 LINE",
"206 41 LINE",
"206 41 LINE",
"206 41 LINE"
);
},
{
closed = 1;
nodes = (
"368 41 LINE",
"368 475 LINE",
"441 475 LINE SMOOTH",
"452 475 OFFCURVE",
"461 466 OFFCURVE",
"461 455 CURVE SMOOTH",
"461 61 LINE SMOOTH",
"461 50 OFFCURVE",
"452 41 OFFCURVE",
"441 41 CURVE SMOOTH"
);
},
{
closed = 1;
nodes = (
"546 -180 OFFCURVE",
"580 -143 OFFCURVE",
"580 -97 CURVE SMOOTH",
"580 -51 OFFCURVE",
"546 -14 OFFCURVE",
"501 -14 CURVE SMOOTH",
"456 -14 OFFCURVE",
"422 -51 OFFCURVE",
"422 -97 CURVE SMOOTH",
"422 -143 OFFCURVE",
"456 -180 OFFCURVE",
"501 -180 CURVE SMOOTH"
);
},
{
closed = 1;
nodes = (
"473 -148 OFFCURVE",
"452 -126 OFFCURVE",
"452 -97 CURVE SMOOTH",
"452 -68 OFFCURVE",
"473 -46 OFFCURVE",
"501 -46 CURVE SMOOTH",
"529 -46 OFFCURVE",
"550 -68 OFFCURVE",
"550 -97 CURVE SMOOTH",
"550 -126 OFFCURVE",
"529 -148 OFFCURVE",
"501 -148 CURVE SMOOTH"
);
}
);
width = 630;
}
);
unicode = 121C;
},
{
glyphname = "me-ethiopic";
lastChange = "2020-12-29 09:19:18 +0000";
layers = (
{
layerId = "A36D14D1-FF07-4574-A62D-30DF65569781";
paths = (
{
closed = 1;
nodes = (
"69 500 LINE",
"58 499 OFFCURVE",
"50 491 OFFCURVE",
"50 480 CURVE SMOOTH",
"50 51 LINE SMOOTH",
"50 22 OFFCURVE",
"72 0 OFFCURVE",
"101 0 CURVE SMOOTH",
"238 0 LINE SMOOTH",
"249 0 OFFCURVE",
"258 9 OFFCURVE",
"258 20 CURVE SMOOTH",
"258 475 LINE",
"316 475 LINE",
"316 20 LINE SMOOTH",
"316 9 OFFCURVE",
"325 0 OFFCURVE",
"336 0 CURVE SMOOTH",
"480 0 LINE SMOOTH",
"509 0 OFFCURVE",
"531 22 OFFCURVE",
"531 51 CURVE SMOOTH",
"531 480 LINE SMOOTH",
"531 491 OFFCURVE",
"523 499 OFFCURVE",
"512 500 CURVE"
);
},
{
closed = 1;
nodes = (
"144 41 LINE SMOOTH",
"133 41 OFFCURVE",
"124 50 OFFCURVE",
"124 61 CURVE SMOOTH",
"124 455 LINE SMOOTH",
"124 466 OFFCURVE",
"133 475 OFFCURVE",
"144 475 CURVE SMOOTH",
"206 475 LINE",
"206 41 LINE",
"206 41 LINE",
"206 41 LINE"
);
},
{
closed = 1;
nodes = (
"368 41 LINE",
"368 475 LINE",
"441 475 LINE SMOOTH",
"452 475 OFFCURVE",
"461 466 OFFCURVE",
"461 455 CURVE SMOOTH",
"461 61 LINE SMOOTH",
"461 50 OFFCURVE",
"452 41 OFFCURVE",
"441 41 CURVE SMOOTH"
);
},
{
closed = 1;
nodes = (
"147 -115 LINE SMOOTH",
"136 -115 OFFCURVE",
"127 -124 OFFCURVE",
"127 -135 CURVE SMOOTH",
"127 -136 LINE SMOOTH",
"127 -147 OFFCURVE",
"136 -156 OFFCURVE",
"147 -156 CURVE SMOOTH",
"257 -156 LINE",
"257 -115 LINE",
"257 -115 LINE",
"257 -115 LINE"
);
},
{
closed = 1;
nodes = (
"217 -156 LINE",
"258 -156 LINE",
"258 -14 LINE",
"217 -15 LINE",
"217 -15 LINE",
"217 -15 LINE"
);
}
);
width = 581;
}
);
unicode = 121D;
},
{
glyphname = "mo-ethiopic";
lastChange = "2020-12-29 09:19:18 +0000";
layers = (
{
layerId = "A36D14D1-FF07-4574-A62D-30DF65569781";
paths = (
{
closed = 1;
nodes = (
"69 500 LINE",
"58 499 OFFCURVE",
"50 491 OFFCURVE",
"50 480 CURVE SMOOTH",
"50 51 LINE SMOOTH",
"50 22 OFFCURVE",
"72 0 OFFCURVE",
"101 0 CURVE SMOOTH",
"238 0 LINE SMOOTH",
"249 0 OFFCURVE",
"258 9 OFFCURVE",
"258 20 CURVE SMOOTH",
"258 475 LINE",
"316 475 LINE",
"316 20 LINE SMOOTH",
"316 9 OFFCURVE",
"325 0 OFFCURVE",
"336 0 CURVE SMOOTH",
"480 0 LINE SMOOTH",
"509 0 OFFCURVE",
"531 22 OFFCURVE",
"531 51 CURVE SMOOTH",
"531 480 LINE SMOOTH",
"531 491 OFFCURVE",
"523 499 OFFCURVE",
"512 500 CURVE"
);
},
{
closed = 1;
nodes = (
"144 41 LINE SMOOTH",
"133 41 OFFCURVE",
"124 50 OFFCURVE",
"124 61 CURVE SMOOTH",
"124 455 LINE SMOOTH",
"124 466 OFFCURVE",
"133 475 OFFCURVE",
"144 475 CURVE SMOOTH",
"206 475 LINE",
"206 41 LINE",
"206 41 LINE",
"206 41 LINE"
);
},
{
closed = 1;
nodes = (
"368 41 LINE",
"368 475 LINE",
"441 475 LINE SMOOTH",
"452 475 OFFCURVE",
"461 466 OFFCURVE",
"461 455 CURVE SMOOTH",
"461 61 LINE SMOOTH",
"461 50 OFFCURVE",
"452 41 OFFCURVE",
"441 41 CURVE SMOOTH"
);
},
{
closed = 1;
nodes = (
"217 -19 LINE",
"217 -176 LINE SMOOTH",
"217 -187 OFFCURVE",
"226 -196 OFFCURVE",
"237 -196 CURVE SMOOTH",
"238 -196 LINE SMOOTH",
"249 -196 OFFCURVE",
"258 -187 OFFCURVE",
"258 -176 CURVE SMOOTH",
"258 -19 LINE",
"258 -19 LINE",
"258 -19 LINE"
);
}
);
width = 581;
}
);
unicode = 121E;
},
{
glyphname = "mwa-ethiopic";
lastChange = "2020-12-29 09:19:18 +0000";
layers = (
{
components = (
{
name = _part.hoa;
transform = "{1, 0, 0, 1, 43, 0}";
}
);
layerId = "A36D14D1-FF07-4574-A62D-30DF65569781";
paths = (
{
closed = 1;
nodes = (
"69 500 LINE",
"58 499 OFFCURVE",
"50 491 OFFCURVE",
"50 480 CURVE SMOOTH",
"50 51 LINE SMOOTH",
"50 22 OFFCURVE",
"72 0 OFFCURVE",
"101 0 CURVE SMOOTH",
"238 0 LINE SMOOTH",
"249 0 OFFCURVE",
"258 9 OFFCURVE",
"258 20 CURVE SMOOTH",
"258 475 LINE",
"316 475 LINE",
"316 20 LINE SMOOTH",
"316 9 OFFCURVE",
"325 0 OFFCURVE",
"336 0 CURVE SMOOTH",
"480 0 LINE SMOOTH",
"509 0 OFFCURVE",
"531 22 OFFCURVE",
"531 51 CURVE SMOOTH",
"531 480 LINE SMOOTH",
"531 491 OFFCURVE",
"523 499 OFFCURVE",
"512 500 CURVE"
);
},
{
closed = 1;
nodes = (
"144 41 LINE SMOOTH",
"133 41 OFFCURVE",
"124 50 OFFCURVE",
"124 61 CURVE SMOOTH",
"124 455 LINE SMOOTH",
"124 466 OFFCURVE",
"133 475 OFFCURVE",
"144 475 CURVE SMOOTH",
"206 475 LINE",
"206 41 LINE",
"206 41 LINE",
"206 41 LINE"
);
},
{
closed = 1;
nodes = (
"368 41 LINE",
"368 475 LINE",
"441 475 LINE SMOOTH",
"452 475 OFFCURVE",
"461 466 OFFCURVE",
"461 455 CURVE SMOOTH",
"461 61 LINE SMOOTH",
"461 50 OFFCURVE",
"452 41 OFFCURVE",
"441 41 CURVE SMOOTH"
);
}
);
width = 605;
}
);
unicode = 121F;
},
{
glyphname = "sza-ethiopic";
lastChange = "2020-12-29 09:19:18 +0000";
layers = (
{
layerId = "A36D14D1-FF07-4574-A62D-30DF65569781";
paths = (
{
closed = 1;
nodes = (
"461 1 OFFCURVE",
"469 9 OFFCURVE",
"469 20 CURVE SMOOTH",
"469 480 LINE SMOOTH",
"469 491 OFFCURVE",
"460 500 OFFCURVE",
"449 500 CURVE SMOOTH",
"419 500 LINE SMOOTH",
"408 500 OFFCURVE",
"399 491 OFFCURVE",
"399 480 CURVE SMOOTH",
"399 45 LINE SMOOTH",
"399 34 OFFCURVE",
"390 25 OFFCURVE",
"379 25 CURVE SMOOTH",
"306 25 LINE SMOOTH",
"295 25 OFFCURVE",
"286 34 OFFCURVE",
"286 45 CURVE SMOOTH",
"286 480 LINE SMOOTH",
"286 491 OFFCURVE",
"277 500 OFFCURVE",
"266 500 CURVE SMOOTH",
"254 500 LINE SMOOTH",
"243 500 OFFCURVE",
"234 491 OFFCURVE",
"234 480 CURVE SMOOTH",
"234 45 LINE SMOOTH",
"234 34 OFFCURVE",
"225 25 OFFCURVE",
"214 25 CURVE SMOOTH",
"144 25 LINE SMOOTH",
"133 25 OFFCURVE",
"124 34 OFFCURVE",
"124 45 CURVE SMOOTH",
"124 480 LINE SMOOTH",
"124 491 OFFCURVE",
"115 500 OFFCURVE",
"104 500 CURVE SMOOTH",
"70 500 LINE SMOOTH",
"59 500 OFFCURVE",
"50 491 OFFCURVE",
"50 480 CURVE SMOOTH",
"50 20 LINE SMOOTH",
"50 9 OFFCURVE",
"58 1 OFFCURVE",
"69 0 CURVE",
"450 0 LINE",
"450 0 LINE",
"450 0 LINE"
);
}
);
width = 519;
}
);
unicode = 1220;
},
{
glyphname = "szu-ethiopic";
lastChange = "2020-12-29 09:19:18 +0000";
layers = (
{
components = (
{
name = _part.hoo;
transform = "{1, 0, 0, 1, -28, 0}";
}
);
layerId = "A36D14D1-FF07-4574-A62D-30DF65569781";
paths = (
{
closed = 1;
nodes = (
"461 1 OFFCURVE",
"469 9 OFFCURVE",
"469 20 CURVE SMOOTH",
"469 480 LINE SMOOTH",
"469 491 OFFCURVE",
"460 500 OFFCURVE",
"449 500 CURVE SMOOTH",
"419 500 LINE SMOOTH",
"408 500 OFFCURVE",
"399 491 OFFCURVE",
"399 480 CURVE SMOOTH",
"399 45 LINE SMOOTH",
"399 34 OFFCURVE",
"390 25 OFFCURVE",
"379 25 CURVE SMOOTH",
"306 25 LINE SMOOTH",
"295 25 OFFCURVE",
"286 34 OFFCURVE",
"286 45 CURVE SMOOTH",
"286 480 LINE SMOOTH",
"286 491 OFFCURVE",
"277 500 OFFCURVE",
"266 500 CURVE SMOOTH",
"254 500 LINE SMOOTH",
"243 500 OFFCURVE",
"234 491 OFFCURVE",
"234 480 CURVE SMOOTH",
"234 45 LINE SMOOTH",
"234 34 OFFCURVE",
"225 25 OFFCURVE",
"214 25 CURVE SMOOTH",
"144 25 LINE SMOOTH",
"133 25 OFFCURVE",
"124 34 OFFCURVE",
"124 45 CURVE SMOOTH",
"124 480 LINE SMOOTH",
"124 491 OFFCURVE",
"115 500 OFFCURVE",
"104 500 CURVE SMOOTH",
"70 500 LINE SMOOTH",
"59 500 OFFCURVE",
"50 491 OFFCURVE",
"50 480 CURVE SMOOTH",
"50 20 LINE SMOOTH",
"50 9 OFFCURVE",
"58 1 OFFCURVE",
"69 0 CURVE",
"450 0 LINE",
"450 0 LINE",
"450 0 LINE"
);
}
);
width = 602;
}
);
unicode = 1221;
},
{
glyphname = "szi-ethiopic";
lastChange = "2020-12-29 09:19:18 +0000";
layers = (
{
layerId = "A36D14D1-FF07-4574-A62D-30DF65569781";
paths = (
{
closed = 1;
nodes = (
"461 1 OFFCURVE",
"469 9 OFFCURVE",
"469 20 CURVE SMOOTH",
"469 480 LINE SMOOTH",
"469 491 OFFCURVE",
"460 500 OFFCURVE",
"449 500 CURVE SMOOTH",
"419 500 LINE SMOOTH",
"408 500 OFFCURVE",
"399 491 OFFCURVE",
"399 480 CURVE SMOOTH",
"399 45 LINE SMOOTH",
"399 34 OFFCURVE",
"390 25 OFFCURVE",
"379 25 CURVE SMOOTH",
"306 25 LINE SMOOTH",
"295 25 OFFCURVE",
"286 34 OFFCURVE",
"286 45 CURVE SMOOTH",
"286 480 LINE SMOOTH",
"286 491 OFFCURVE",
"277 500 OFFCURVE",
"266 500 CURVE SMOOTH",
"254 500 LINE SMOOTH",
"243 500 OFFCURVE",
"234 491 OFFCURVE",
"234 480 CURVE SMOOTH",
"234 45 LINE SMOOTH",
"234 34 OFFCURVE",
"225 25 OFFCURVE",
"214 25 CURVE SMOOTH",
"144 25 LINE SMOOTH",
"133 25 OFFCURVE",
"124 34 OFFCURVE",
"124 45 CURVE SMOOTH",
"124 480 LINE SMOOTH",
"124 491 OFFCURVE",
"115 500 OFFCURVE",
"104 500 CURVE SMOOTH",
"70 500 LINE SMOOTH",
"59 500 OFFCURVE",
"50 491 OFFCURVE",
"50 480 CURVE SMOOTH",
"50 20 LINE SMOOTH",
"50 9 OFFCURVE",
"58 1 OFFCURVE",
"69 0 CURVE",
"450 0 LINE",
"450 0 LINE",
"450 0 LINE"
);
},
{
closed = 1;
nodes = (
"390 -192 LINE",
"500 -192 LINE SMOOTH",
"511 -192 OFFCURVE",
"520 -183 OFFCURVE",
"520 -172 CURVE SMOOTH",
"520 -171 LINE SMOOTH",
"520 -160 OFFCURVE",
"511 -151 OFFCURVE",
"500 -151 CURVE SMOOTH",
"390 -151 LINE",
"390 -151 LINE",
"390 -151 LINE"
);
},
{
closed = 1;
nodes = (
"390 -20 LINE",
"390 -162 LINE",
"431 -162 LINE",
"431 -21 LINE",
"431 -21 LINE",
"431 -21 LINE"
);
}
);
width = 570;
}
);
unicode = 1222;
},
{
glyphname = "szaa-ethiopic";
lastChange = "2020-12-29 09:19:18 +0000";
layers = (
{
layerId = "A36D14D1-FF07-4574-A62D-30DF65569781";
paths = (
{
closed = 1;
nodes = (
"461 1 OFFCURVE",
"469 9 OFFCURVE",
"469 20 CURVE SMOOTH",
"469 480 LINE SMOOTH",
"469 491 OFFCURVE",
"460 500 OFFCURVE",
"449 500 CURVE SMOOTH",
"419 500 LINE SMOOTH",
"408 500 OFFCURVE",
"399 491 OFFCURVE",
"399 480 CURVE SMOOTH",
"399 45 LINE SMOOTH",
"399 34 OFFCURVE",
"390 25 OFFCURVE",
"379 25 CURVE SMOOTH",
"306 25 LINE SMOOTH",
"295 25 OFFCURVE",
"286 34 OFFCURVE",
"286 45 CURVE SMOOTH",
"286 480 LINE SMOOTH",
"286 491 OFFCURVE",
"277 500 OFFCURVE",
"266 500 CURVE SMOOTH",
"254 500 LINE SMOOTH",
"243 500 OFFCURVE",
"234 491 OFFCURVE",
"234 480 CURVE SMOOTH",
"234 45 LINE SMOOTH",
"234 34 OFFCURVE",
"225 25 OFFCURVE",
"214 25 CURVE SMOOTH",
"144 25 LINE SMOOTH",
"133 25 OFFCURVE",
"124 34 OFFCURVE",
"124 45 CURVE SMOOTH",
"124 480 LINE SMOOTH",
"124 491 OFFCURVE",
"115 500 OFFCURVE",
"104 500 CURVE SMOOTH",
"70 500 LINE SMOOTH",
"59 500 OFFCURVE",
"50 491 OFFCURVE",
"50 480 CURVE SMOOTH",
"50 20 LINE SMOOTH",
"50 9 OFFCURVE",
"58 1 OFFCURVE",
"69 0 CURVE",
"450 0 LINE",
"450 0 LINE",
"450 0 LINE"
);
},
{
closed = 1;
nodes = (
"400 -23 LINE",
"400 -180 LINE SMOOTH",
"400 -191 OFFCURVE",
"409 -200 OFFCURVE",
"420 -200 CURVE SMOOTH",
"421 -200 LINE SMOOTH",
"432 -200 OFFCURVE",
"441 -191 OFFCURVE",
"441 -180 CURVE SMOOTH",
"441 -23 LINE",
"441 -23 LINE",
"441 -23 LINE"
);
}
);
width = 519;
}
);
unicode = 1223;
},
{
glyphname = "szee-ethiopic";
lastChange = "2020-12-29 09:19:18 +0000";
layers = (
{
layerId = "A36D14D1-FF07-4574-A62D-30DF65569781";
paths = (
{
closed = 1;
nodes = (
"461 1 OFFCURVE",
"469 9 OFFCURVE",
"469 20 CURVE SMOOTH",
"469 480 LINE SMOOTH",
"469 491 OFFCURVE",
"460 500 OFFCURVE",
"449 500 CURVE SMOOTH",
"419 500 LINE SMOOTH",
"408 500 OFFCURVE",
"399 491 OFFCURVE",
"399 480 CURVE SMOOTH",
"399 45 LINE SMOOTH",
"399 34 OFFCURVE",
"390 25 OFFCURVE",
"379 25 CURVE SMOOTH",
"306 25 LINE SMOOTH",
"295 25 OFFCURVE",
"286 34 OFFCURVE",
"286 45 CURVE SMOOTH",
"286 480 LINE SMOOTH",
"286 491 OFFCURVE",
"277 500 OFFCURVE",
"266 500 CURVE SMOOTH",
"254 500 LINE SMOOTH",
"243 500 OFFCURVE",
"234 491 OFFCURVE",
"234 480 CURVE SMOOTH",
"234 45 LINE SMOOTH",
"234 34 OFFCURVE",
"225 25 OFFCURVE",
"214 25 CURVE SMOOTH",
"144 25 LINE SMOOTH",
"133 25 OFFCURVE",
"124 34 OFFCURVE",
"124 45 CURVE SMOOTH",
"124 480 LINE SMOOTH",
"124 491 OFFCURVE",
"115 500 OFFCURVE",
"104 500 CURVE SMOOTH",
"70 500 LINE SMOOTH",
"59 500 OFFCURVE",
"50 491 OFFCURVE",
"50 480 CURVE SMOOTH",
"50 20 LINE SMOOTH",
"50 9 OFFCURVE",
"58 1 OFFCURVE",
"69 0 CURVE",
"450 0 LINE",
"450 0 LINE",
"450 0 LINE"
);
},
{
closed = 1;
nodes = (
"475 -199 OFFCURVE",
"509 -162 OFFCURVE",
"509 -116 CURVE SMOOTH",
"509 -70 OFFCURVE",
"475 -33 OFFCURVE",
"430 -33 CURVE SMOOTH",
"385 -33 OFFCURVE",
"351 -70 OFFCURVE",
"351 -116 CURVE SMOOTH",
"351 -162 OFFCURVE",
"385 -199 OFFCURVE",
"430 -199 CURVE SMOOTH"
);
},
{
closed = 1;
nodes = (
"402 -167 OFFCURVE",
"381 -145 OFFCURVE",
"381 -116 CURVE SMOOTH",
"381 -87 OFFCURVE",
"402 -65 OFFCURVE",
"430 -65 CURVE SMOOTH",
"458 -65 OFFCURVE",
"479 -87 OFFCURVE",
"479 -116 CURVE SMOOTH",
"479 -145 OFFCURVE",
"458 -167 OFFCURVE",
"430 -167 CURVE SMOOTH"
);
}
);
width = 559;
}
);
unicode = 1224;
},
{
glyphname = "sze-ethiopic";
lastChange = "2020-12-29 09:19:18 +0000";
layers = (
{
layerId = "A36D14D1-FF07-4574-A62D-30DF65569781";
paths = (
{
closed = 1;
nodes = (
"461 1 OFFCURVE",
"469 9 OFFCURVE",
"469 20 CURVE SMOOTH",
"469 480 LINE SMOOTH",
"469 491 OFFCURVE",
"460 500 OFFCURVE",
"449 500 CURVE SMOOTH",
"419 500 LINE SMOOTH",
"408 500 OFFCURVE",
"399 491 OFFCURVE",
"399 480 CURVE SMOOTH",
"399 45 LINE SMOOTH",
"399 34 OFFCURVE",
"390 25 OFFCURVE",
"379 25 CURVE SMOOTH",
"306 25 LINE SMOOTH",
"295 25 OFFCURVE",
"286 34 OFFCURVE",
"286 45 CURVE SMOOTH",
"286 480 LINE SMOOTH",
"286 491 OFFCURVE",
"277 500 OFFCURVE",
"266 500 CURVE SMOOTH",
"254 500 LINE SMOOTH",
"243 500 OFFCURVE",
"234 491 OFFCURVE",
"234 480 CURVE SMOOTH",
"234 45 LINE SMOOTH",
"234 34 OFFCURVE",
"225 25 OFFCURVE",
"214 25 CURVE SMOOTH",
"144 25 LINE SMOOTH",
"133 25 OFFCURVE",
"124 34 OFFCURVE",
"124 45 CURVE SMOOTH",
"124 480 LINE SMOOTH",
"124 491 OFFCURVE",
"115 500 OFFCURVE",
"104 500 CURVE SMOOTH",
"70 500 LINE SMOOTH",
"59 500 OFFCURVE",
"50 491 OFFCURVE",
"50 480 CURVE SMOOTH",
"50 20 LINE SMOOTH",
"50 9 OFFCURVE",
"58 1 OFFCURVE",
"69 0 CURVE",
"450 0 LINE",
"450 0 LINE",
"450 0 LINE"
);
},
{
closed = 1;
nodes = (
"50 -23 LINE",
"50 -180 LINE SMOOTH",
"50 -191 OFFCURVE",
"59 -200 OFFCURVE",
"70 -200 CURVE SMOOTH",
"71 -200 LINE SMOOTH",
"82 -200 OFFCURVE",
"91 -191 OFFCURVE",
"91 -180 CURVE SMOOTH",
"91 -23 LINE",
"91 -23 LINE",
"91 -23 LINE"
);
}
);
width = 519;
}
);
unicode = 1225;
},
{
glyphname = "szo-ethiopic";
lastChange = "2020-12-29 09:19:18 +0000";
layers = (
{
layerId = "A36D14D1-FF07-4574-A62D-30DF65569781";
paths = (
{
closed = 1;
nodes = (
"461 1 OFFCURVE",
"469 9 OFFCURVE",
"469 20 CURVE SMOOTH",
"469 480 LINE SMOOTH",
"469 491 OFFCURVE",
"460 500 OFFCURVE",
"449 500 CURVE SMOOTH",
"419 500 LINE SMOOTH",
"408 500 OFFCURVE",
"399 491 OFFCURVE",
"399 480 CURVE SMOOTH",
"399 45 LINE SMOOTH",
"399 34 OFFCURVE",
"390 25 OFFCURVE",
"379 25 CURVE SMOOTH",
"306 25 LINE SMOOTH",
"295 25 OFFCURVE",
"286 34 OFFCURVE",
"286 45 CURVE SMOOTH",
"286 480 LINE SMOOTH",
"286 491 OFFCURVE",
"277 500 OFFCURVE",
"266 500 CURVE SMOOTH",
"254 500 LINE SMOOTH",
"243 500 OFFCURVE",
"234 491 OFFCURVE",
"234 480 CURVE SMOOTH",
"234 45 LINE SMOOTH",
"234 34 OFFCURVE",
"225 25 OFFCURVE",
"214 25 CURVE SMOOTH",
"144 25 LINE SMOOTH",
"133 25 OFFCURVE",
"124 34 OFFCURVE",
"124 45 CURVE SMOOTH",
"124 480 LINE SMOOTH",
"124 491 OFFCURVE",
"115 500 OFFCURVE",
"104 500 CURVE SMOOTH",
"70 500 LINE SMOOTH",
"59 500 OFFCURVE",
"50 491 OFFCURVE",
"50 480 CURVE SMOOTH",
"50 20 LINE SMOOTH",
"50 9 OFFCURVE",
"58 1 OFFCURVE",
"69 0 CURVE",
"450 0 LINE",
"450 0 LINE",
"450 0 LINE"
);
},
{
closed = 1;
nodes = (
"245 -11 LINE",
"245 -168 LINE SMOOTH",
"245 -179 OFFCURVE",
"254 -188 OFFCURVE",
"265 -188 CURVE SMOOTH",
"266 -188 LINE SMOOTH",
"277 -188 OFFCURVE",
"286 -179 OFFCURVE",
"286 -168 CURVE SMOOTH",
"286 -11 LINE",
"286 -11 LINE",
"286 -11 LINE"
);
}
);
width = 519;
}
);
unicode = 1226;
},
{
glyphname = "szwa-ethiopic";
lastChange = "2020-12-29 09:19:18 +0000";
layers = (
{
components = (
{
name = _part.hoa;
transform = "{1, 0, 0, 1, 1, 0}";
}
);
layerId = "A36D14D1-FF07-4574-A62D-30DF65569781";
paths = (
{
closed = 1;
nodes = (
"461 1 OFFCURVE",
"469 9 OFFCURVE",
"469 20 CURVE SMOOTH",
"469 480 LINE SMOOTH",
"469 491 OFFCURVE",
"460 500 OFFCURVE",
"449 500 CURVE SMOOTH",
"419 500 LINE SMOOTH",
"408 500 OFFCURVE",
"399 491 OFFCURVE",
"399 480 CURVE SMOOTH",
"399 45 LINE SMOOTH",
"399 34 OFFCURVE",
"390 25 OFFCURVE",
"379 25 CURVE SMOOTH",
"306 25 LINE SMOOTH",
"295 25 OFFCURVE",
"286 34 OFFCURVE",
"286 45 CURVE SMOOTH",
"286 480 LINE SMOOTH",
"286 491 OFFCURVE",
"277 500 OFFCURVE",
"266 500 CURVE SMOOTH",
"254 500 LINE SMOOTH",
"243 500 OFFCURVE",
"234 491 OFFCURVE",
"234 480 CURVE SMOOTH",
"234 45 LINE SMOOTH",
"234 34 OFFCURVE",
"225 25 OFFCURVE",
"214 25 CURVE SMOOTH",
"144 25 LINE SMOOTH",
"133 25 OFFCURVE",
"124 34 OFFCURVE",
"124 45 CURVE SMOOTH",
"124 480 LINE SMOOTH",
"124 491 OFFCURVE",
"115 500 OFFCURVE",
"104 500 CURVE SMOOTH",
"70 500 LINE SMOOTH",
"59 500 OFFCURVE",
"50 491 OFFCURVE",
"50 480 CURVE SMOOTH",
"50 20 LINE SMOOTH",
"50 9 OFFCURVE",
"58 1 OFFCURVE",
"69 0 CURVE",
"450 0 LINE",
"450 0 LINE",
"450 0 LINE"
);
}
);
width = 563;
}
);
unicode = 1227;
},
{
glyphname = "ra-ethiopic";
lastChange = "2020-12-29 09:19:18 +0000";
layers = (
{
layerId = "A36D14D1-FF07-4574-A62D-30DF65569781";
paths = (
{
closed = 1;
nodes = (
"370 78 LINE",
"370 61 LINE SMOOTH",
"370 50 OFFCURVE",
"361 41 OFFCURVE",
"350 41 CURVE SMOOTH",
"151 41 LINE SMOOTH",
"140 41 OFFCURVE",
"131 50 OFFCURVE",
"131 61 CURVE SMOOTH",
"131 480 LINE SMOOTH",
"131 491 OFFCURVE",
"122 500 OFFCURVE",
"111 500 CURVE SMOOTH",
"70 500 LINE SMOOTH",
"59 500 OFFCURVE",
"50 491 OFFCURVE",
"50 480 CURVE SMOOTH",
"50 51 LINE SMOOTH",
"50 22 OFFCURVE",
"72 0 OFFCURVE",
"101 0 CURVE SMOOTH",
"400 0 LINE SMOOTH",
"429 0 OFFCURVE",
"451 22 OFFCURVE",
"451 51 CURVE SMOOTH",
"451 76 LINE",
"451 76 LINE",
"451 76 LINE"
);
}
);
width = 501;
}
);
unicode = 1228;
},
{
glyphname = "ru-ethiopic";
lastChange = "2020-12-29 09:19:18 +0000";
layers = (
{
layerId = "A36D14D1-FF07-4574-A62D-30DF65569781";
paths = (
{
closed = 1;
nodes = (
"370 78 LINE",
"370 61 LINE SMOOTH",
"370 50 OFFCURVE",
"361 41 OFFCURVE",
"350 41 CURVE SMOOTH",
"151 41 LINE SMOOTH",
"140 41 OFFCURVE",
"131 50 OFFCURVE",
"131 61 CURVE SMOOTH",
"131 480 LINE SMOOTH",
"131 491 OFFCURVE",
"122 500 OFFCURVE",
"111 500 CURVE SMOOTH",
"70 500 LINE SMOOTH",
"59 500 OFFCURVE",
"50 491 OFFCURVE",
"50 480 CURVE SMOOTH",
"50 51 LINE SMOOTH",
"50 22 OFFCURVE",
"72 0 OFFCURVE",
"101 0 CURVE SMOOTH",
"400 0 LINE SMOOTH",
"429 0 OFFCURVE",
"451 22 OFFCURVE",
"451 51 CURVE SMOOTH",
"451 76 LINE",
"451 76 LINE",
"451 76 LINE"
);
},
{
closed = 1;
nodes = (
"260 -23 LINE",
"260 -180 LINE SMOOTH",
"260 -191 OFFCURVE",
"269 -200 OFFCURVE",
"280 -200 CURVE SMOOTH",
"281 -200 LINE SMOOTH",
"292 -200 OFFCURVE",
"301 -191 OFFCURVE",
"301 -180 CURVE SMOOTH",
"301 -23 LINE",
"301 -23 LINE",
"301 -23 LINE"
);
}
);
width = 501;
}
);
unicode = 1229;
},
{
glyphname = "ri-ethiopic";
lastChange = "2020-12-29 09:19:18 +0000";
layers = (
{
layerId = "A36D14D1-FF07-4574-A62D-30DF65569781";
paths = (
{
closed = 1;
nodes = (
"284 159 LINE",
"370 159 LINE",
"370 61 LINE SMOOTH",
"370 50 OFFCURVE",
"361 41 OFFCURVE",
"350 41 CURVE SMOOTH",
"151 41 LINE SMOOTH",
"140 41 OFFCURVE",
"131 50 OFFCURVE",
"131 61 CURVE SMOOTH",
"131 480 LINE SMOOTH",
"131 491 OFFCURVE",
"122 500 OFFCURVE",
"111 500 CURVE SMOOTH",
"70 500 LINE SMOOTH",
"59 500 OFFCURVE",
"50 491 OFFCURVE",
"50 480 CURVE SMOOTH",
"50 51 LINE SMOOTH",
"50 22 OFFCURVE",
"72 0 OFFCURVE",
"101 0 CURVE SMOOTH",
"400 0 LINE SMOOTH",
"429 0 OFFCURVE",
"451 22 OFFCURVE",
"451 51 CURVE SMOOTH",
"451 171 LINE SMOOTH",
"451 182 OFFCURVE",
"442 191 OFFCURVE",
"431 191 CURVE SMOOTH",
"284 191 LINE",
"284 191 LINE",
"284 191 LINE"
);
}
);
width = 501;
}
);
unicode = 122A;
},
{
glyphname = "raa-ethiopic";
lastChange = "2020-12-29 09:19:18 +0000";
layers = (
{
layerId = "A36D14D1-FF07-4574-A62D-30DF65569781";
paths = (
{
closed = 1;
nodes = (
"300 185 LINE SMOOTH",
"289 185 OFFCURVE",
"280 176 OFFCURVE",
"280 165 CURVE SMOOTH",
"280 61 LINE SMOOTH",
"280 50 OFFCURVE",
"271 41 OFFCURVE",
"260 41 CURVE SMOOTH",
"151 41 LINE SMOOTH",
"140 41 OFFCURVE",
"131 50 OFFCURVE",
"131 61 CURVE SMOOTH",
"131 480 LINE SMOOTH",
"131 491 OFFCURVE",
"122 500 OFFCURVE",
"111 500 CURVE SMOOTH",
"70 500 LINE SMOOTH",
"59 500 OFFCURVE",
"50 491 OFFCURVE",
"50 480 CURVE SMOOTH",
"50 51 LINE SMOOTH",
"50 22 OFFCURVE",
"72 0 OFFCURVE",
"101 0 CURVE SMOOTH",
"310 0 LINE SMOOTH",
"339 0 OFFCURVE",
"361 22 OFFCURVE",
"361 51 CURVE SMOOTH",
"361 141 LINE",
"446 141 LINE",
"446 185 LINE",
"446 185 LINE",
"446 185 LINE"
);
}
);
width = 496;
}
);
unicode = 122B;
},
{
glyphname = "ree-ethiopic";
lastChange = "2020-12-29 09:19:18 +0000";
layers = (
{
layerId = "A36D14D1-FF07-4574-A62D-30DF65569781";
paths = (
{
closed = 1;
nodes = (
"370 58 LINE",
"370 61 LINE SMOOTH",
"370 72 OFFCURVE",
"361 41 OFFCURVE",
"350 41 CURVE SMOOTH",
"151 41 LINE SMOOTH",
"140 41 OFFCURVE",
"131 50 OFFCURVE",
"131 61 CURVE SMOOTH",
"131 480 LINE SMOOTH",
"131 491 OFFCURVE",
"122 500 OFFCURVE",
"111 500 CURVE SMOOTH",
"70 500 LINE SMOOTH",
"59 500 OFFCURVE",
"50 491 OFFCURVE",
"50 480 CURVE SMOOTH",
"50 51 LINE SMOOTH",
"50 22 OFFCURVE",
"72 0 OFFCURVE",
"101 0 CURVE SMOOTH",
"400 0 LINE SMOOTH",
"429 0 OFFCURVE",
"451 22 OFFCURVE",
"451 51 CURVE SMOOTH",
"451 56 LINE",
"451 56 LINE",
"451 56 LINE"
);
},
{
closed = 1;
nodes = (
"426 33 OFFCURVE",
"460 70 OFFCURVE",
"460 116 CURVE SMOOTH",
"460 162 OFFCURVE",
"426 199 OFFCURVE",
"381 199 CURVE SMOOTH",
"336 199 OFFCURVE",
"302 162 OFFCURVE",
"302 116 CURVE SMOOTH",
"302 70 OFFCURVE",
"336 33 OFFCURVE",
"381 33 CURVE SMOOTH"
);
},
{
closed = 1;
nodes = (
"353 65 OFFCURVE",
"332 87 OFFCURVE",
"332 116 CURVE SMOOTH",
"332 145 OFFCURVE",
"353 167 OFFCURVE",
"381 167 CURVE SMOOTH",
"409 167 OFFCURVE",
"430 145 OFFCURVE",
"430 116 CURVE SMOOTH",
"430 87 OFFCURVE",
"409 65 OFFCURVE",
"381 65 CURVE SMOOTH"
);
}
);
width = 510;
}
);
unicode = 122C;
},
{
glyphname = "re-ethiopic";
lastChange = "2020-12-29 09:19:18 +0000";
layers = (
{
layerId = "A36D14D1-FF07-4574-A62D-30DF65569781";
paths = (
{
closed = 1;
nodes = (
"410 61 LINE SMOOTH",
"410 72 OFFCURVE",
"401 81 OFFCURVE",
"390 81 CURVE SMOOTH",
"111 81 LINE SMOOTH",
"100 81 OFFCURVE",
"91 90 OFFCURVE",
"91 101 CURVE SMOOTH",
"91 399 LINE SMOOTH",
"91 410 OFFCURVE",
"100 419 OFFCURVE",
"111 419 CURVE SMOOTH",
"387 419 LINE SMOOTH",
"398 419 OFFCURVE",
"407 428 OFFCURVE",
"407 439 CURVE SMOOTH",
"407 480 LINE SMOOTH",
"407 491 OFFCURVE",
"398 500 OFFCURVE",
"387 500 CURVE SMOOTH",
"101 500 LINE SMOOTH",
"72 500 OFFCURVE",
"50 478 OFFCURVE",
"50 449 CURVE SMOOTH",
"50 51 LINE SMOOTH",
"50 22 OFFCURVE",
"72 0 OFFCURVE",
"101 0 CURVE SMOOTH",
"390 0 LINE SMOOTH",
"402 0 OFFCURVE",
"411 9 OFFCURVE",
"411 21 CURVE SMOOTH"
);
}
);
width = 461;
}
);
unicode = 122D;
},
{
glyphname = "ro-ethiopic";
lastChange = "2020-12-29 09:19:18 +0000";
layers = (
{
layerId = "A36D14D1-FF07-4574-A62D-30DF65569781";
paths = (
{
closed = 1;
nodes = (
"410 61 LINE SMOOTH",
"410 72 OFFCURVE",
"401 81 OFFCURVE",
"390 81 CURVE SMOOTH",
"111 81 LINE SMOOTH",
"100 81 OFFCURVE",
"91 90 OFFCURVE",
"91 101 CURVE SMOOTH",
"91 399 LINE SMOOTH",
"91 410 OFFCURVE",
"100 419 OFFCURVE",
"111 419 CURVE SMOOTH",
"387 419 LINE SMOOTH",
"398 419 OFFCURVE",
"407 428 OFFCURVE",
"407 439 CURVE SMOOTH",
"407 480 LINE SMOOTH",
"407 491 OFFCURVE",
"398 500 OFFCURVE",
"387 500 CURVE SMOOTH",
"101 500 LINE SMOOTH",
"72 500 OFFCURVE",
"50 478 OFFCURVE",
"50 449 CURVE SMOOTH",
"50 51 LINE SMOOTH",
"50 22 OFFCURVE",
"72 0 OFFCURVE",
"101 0 CURVE SMOOTH",
"390 0 LINE SMOOTH",
"402 0 OFFCURVE",
"411 9 OFFCURVE",
"411 21 CURVE SMOOTH"
);
},
{
closed = 1;
nodes = (
"376 247 OFFCURVE",
"410 284 OFFCURVE",
"410 330 CURVE SMOOTH",
"410 376 OFFCURVE",
"376 413 OFFCURVE",
"331 413 CURVE SMOOTH",
"286 413 OFFCURVE",
"252 376 OFFCURVE",
"252 330 CURVE SMOOTH",
"252 284 OFFCURVE",
"286 247 OFFCURVE",
"331 247 CURVE SMOOTH"
);
},
{
closed = 1;
nodes = (
"303 279 OFFCURVE",
"282 301 OFFCURVE",
"282 330 CURVE SMOOTH",
"282 359 OFFCURVE",
"303 381 OFFCURVE",
"331 381 CURVE SMOOTH",
"359 381 OFFCURVE",
"380 359 OFFCURVE",
"380 330 CURVE SMOOTH",
"380 301 OFFCURVE",
"359 279 OFFCURVE",
"331 279 CURVE SMOOTH"
);
}
);
width = 461;
}
);
unicode = 122E;
},
{
glyphname = "rwa-ethiopic";
lastChange = "2020-12-29 09:19:18 +0000";
layers = (
{
components = (
{
name = "raa-ethiopic";
}
);
layerId = "A36D14D1-FF07-4574-A62D-30DF65569781";
paths = (
{
closed = 1;
nodes = (
"114 646 LINE",
"114 536 LINE SMOOTH",
"114 525 OFFCURVE",
"123 516 OFFCURVE",
"134 516 CURVE SMOOTH",
"135 516 LINE SMOOTH",
"146 516 OFFCURVE",
"155 525 OFFCURVE",
"155 536 CURVE SMOOTH",
"155 646 LINE",
"155 646 LINE",
"155 646 LINE"
);
},
{
closed = 1;
nodes = (
"206 647 LINE",
"64 647 LINE",
"64 606 LINE",
"205 606 LINE",
"205 606 LINE",
"205 606 LINE"
);
}
);
width = 496;
}
);
unicode = 122F;
},
{
glyphname = "sa-ethiopic";
lastChange = "2020-12-29 09:19:18 +0000";
layers = (
{
layerId = "A36D14D1-FF07-4574-A62D-30DF65569781";
paths = (
{
closed = 1;
nodes = (
"370 9 OFFCURVE",
"379 0 OFFCURVE",
"390 0 CURVE SMOOTH",
"431 0 LINE SMOOTH",
"442 0 OFFCURVE",
"451 9 OFFCURVE",
"451 20 CURVE SMOOTH",
"451 449 LINE SMOOTH",
"451 478 OFFCURVE",
"429 500 OFFCURVE",
"400 500 CURVE SMOOTH",
"101 500 LINE SMOOTH",
"72 500 OFFCURVE",
"50 478 OFFCURVE",
"50 449 CURVE SMOOTH",
"50 20 LINE SMOOTH",
"50 9 OFFCURVE",
"59 0 OFFCURVE",
"70 0 CURVE SMOOTH",
"111 0 LINE SMOOTH",
"122 0 OFFCURVE",
"131 9 OFFCURVE",
"131 20 CURVE SMOOTH",
"131 439 LINE SMOOTH",
"131 450 OFFCURVE",
"140 459 OFFCURVE",
"151 459 CURVE SMOOTH",
"350 459 LINE SMOOTH",
"361 459 OFFCURVE",
"370 450 OFFCURVE",
"370 439 CURVE SMOOTH",
"370 20 LINE",
"370 20 LINE",
"370 20 LINE"
);
},
{
closed = 1;
nodes = (
"273 666 LINE SMOOTH",
"273 677 OFFCURVE",
"264 686 OFFCURVE",
"253 686 CURVE SMOOTH",
"252 686 LINE SMOOTH",
"241 686 OFFCURVE",
"232 677 OFFCURVE",
"232 666 CURVE SMOOTH",
"232 509 LINE",
"273 509 LINE",
"273 509 LINE",
"273 509 LINE"
);
},
{
closed = 1;
nodes = (
"273 666 LINE SMOOTH",
"273 677 OFFCURVE",
"264 686 OFFCURVE",
"253 686 CURVE SMOOTH",
"252 686 LINE SMOOTH",
"241 686 OFFCURVE",
"232 677 OFFCURVE",
"232 666 CURVE SMOOTH",
"232 509 LINE",
"273 509 LINE",
"273 509 LINE",
"273 509 LINE"
);
}
);
width = 501;
}
);
unicode = 1230;
},
{
glyphname = "su-ethiopic";
lastChange = "2020-12-29 09:19:18 +0000";
layers = (
{
components = (
{
name = _part.hoo;
transform = "{1, 0, 0, 1, -39, 0}";
}
);
layerId = "A36D14D1-FF07-4574-A62D-30DF65569781";
paths = (
{
closed = 1;
nodes = (
"370 9 OFFCURVE",
"379 0 OFFCURVE",
"390 0 CURVE SMOOTH",
"431 0 LINE SMOOTH",
"442 0 OFFCURVE",
"451 9 OFFCURVE",
"451 20 CURVE SMOOTH",
"451 449 LINE SMOOTH",
"451 478 OFFCURVE",
"429 500 OFFCURVE",
"400 500 CURVE SMOOTH",
"101 500 LINE SMOOTH",
"72 500 OFFCURVE",
"50 478 OFFCURVE",
"50 449 CURVE SMOOTH",
"50 20 LINE SMOOTH",
"50 9 OFFCURVE",
"59 0 OFFCURVE",
"70 0 CURVE SMOOTH",
"111 0 LINE SMOOTH",
"122 0 OFFCURVE",
"131 9 OFFCURVE",
"131 20 CURVE SMOOTH",
"131 439 LINE SMOOTH",
"131 450 OFFCURVE",
"140 459 OFFCURVE",
"151 459 CURVE SMOOTH",
"350 459 LINE SMOOTH",
"361 459 OFFCURVE",
"370 450 OFFCURVE",
"370 439 CURVE SMOOTH",
"370 20 LINE",
"370 20 LINE",
"370 20 LINE"
);
},
{
closed = 1;
nodes = (
"273 666 LINE SMOOTH",
"273 677 OFFCURVE",
"264 686 OFFCURVE",
"253 686 CURVE SMOOTH",
"252 686 LINE SMOOTH",
"241 686 OFFCURVE",
"232 677 OFFCURVE",
"232 666 CURVE SMOOTH",
"232 509 LINE",
"273 509 LINE",
"273 509 LINE",
"273 509 LINE"
);
},
{
closed = 1;
nodes = (
"273 666 LINE SMOOTH",
"273 677 OFFCURVE",
"264 686 OFFCURVE",
"253 686 CURVE SMOOTH",
"252 686 LINE SMOOTH",
"241 686 OFFCURVE",
"232 677 OFFCURVE",
"232 666 CURVE SMOOTH",
"232 509 LINE",
"273 509 LINE",
"273 509 LINE",
"273 509 LINE"
);
}
);
width = 591;
}
);
unicode = 1231;
},
{
glyphname = "si-ethiopic";
lastChange = "2020-12-29 09:19:18 +0000";
layers = (
{
layerId = "A36D14D1-FF07-4574-A62D-30DF65569781";
paths = (
{
closed = 1;
nodes = (
"370 9 OFFCURVE",
"379 0 OFFCURVE",
"390 0 CURVE SMOOTH",
"431 0 LINE SMOOTH",
"442 0 OFFCURVE",
"451 9 OFFCURVE",
"451 20 CURVE SMOOTH",
"451 449 LINE SMOOTH",
"451 478 OFFCURVE",
"429 500 OFFCURVE",
"400 500 CURVE SMOOTH",
"101 500 LINE SMOOTH",
"72 500 OFFCURVE",
"50 478 OFFCURVE",
"50 449 CURVE SMOOTH",
"50 20 LINE SMOOTH",
"50 9 OFFCURVE",
"59 0 OFFCURVE",
"70 0 CURVE SMOOTH",
"111 0 LINE SMOOTH",
"122 0 OFFCURVE",
"131 9 OFFCURVE",
"131 20 CURVE SMOOTH",
"131 439 LINE SMOOTH",
"131 450 OFFCURVE",
"140 459 OFFCURVE",
"151 459 CURVE SMOOTH",
"350 459 LINE SMOOTH",
"361 459 OFFCURVE",
"370 450 OFFCURVE",
"370 439 CURVE SMOOTH",
"370 20 LINE",
"370 20 LINE",
"370 20 LINE"
);
},
{
closed = 1;
nodes = (
"273 666 LINE SMOOTH",
"273 677 OFFCURVE",
"264 686 OFFCURVE",
"253 686 CURVE SMOOTH",
"252 686 LINE SMOOTH",
"241 686 OFFCURVE",
"232 677 OFFCURVE",
"232 666 CURVE SMOOTH",
"232 509 LINE",
"273 509 LINE",
"273 509 LINE",
"273 509 LINE"
);
},
{
closed = 1;
nodes = (
"273 666 LINE SMOOTH",
"273 677 OFFCURVE",
"264 686 OFFCURVE",
"253 686 CURVE SMOOTH",
"252 686 LINE SMOOTH",
"241 686 OFFCURVE",
"232 677 OFFCURVE",
"232 666 CURVE SMOOTH",
"232 509 LINE",
"273 509 LINE",
"273 509 LINE",
"273 509 LINE"
);
},
{
closed = 1;
nodes = (
"373 -162 LINE",
"483 -162 LINE SMOOTH",
"494 -162 OFFCURVE",
"503 -153 OFFCURVE",
"503 -142 CURVE SMOOTH",
"503 -141 LINE SMOOTH",
"503 -130 OFFCURVE",
"494 -121 OFFCURVE",
"483 -121 CURVE SMOOTH",
"373 -121 LINE",
"373 -121 LINE",
"373 -121 LINE"
);
},
{
closed = 1;
nodes = (
"372 -20 LINE",
"372 -162 LINE",
"413 -162 LINE",
"413 -21 LINE",
"413 -21 LINE",
"413 -21 LINE"
);
}
);
width = 553;
}
);
unicode = 1232;
},
{
glyphname = "saa-ethiopic";
lastChange = "2020-12-29 09:19:18 +0000";
layers = (
{
layerId = "A36D14D1-FF07-4574-A62D-30DF65569781";
paths = (
{
closed = 1;
nodes = (
"370 9 OFFCURVE",
"379 0 OFFCURVE",
"390 0 CURVE SMOOTH",
"431 0 LINE SMOOTH",
"442 0 OFFCURVE",
"451 9 OFFCURVE",
"451 20 CURVE SMOOTH",
"451 449 LINE SMOOTH",
"451 478 OFFCURVE",
"429 500 OFFCURVE",
"400 500 CURVE SMOOTH",
"101 500 LINE SMOOTH",
"72 500 OFFCURVE",
"50 478 OFFCURVE",
"50 449 CURVE SMOOTH",
"50 20 LINE SMOOTH",
"50 9 OFFCURVE",
"59 0 OFFCURVE",
"70 0 CURVE SMOOTH",
"111 0 LINE SMOOTH",
"122 0 OFFCURVE",
"131 9 OFFCURVE",
"131 20 CURVE SMOOTH",
"131 439 LINE SMOOTH",
"131 450 OFFCURVE",
"140 459 OFFCURVE",
"151 459 CURVE SMOOTH",
"350 459 LINE SMOOTH",
"361 459 OFFCURVE",
"370 450 OFFCURVE",
"370 439 CURVE SMOOTH",
"370 20 LINE",
"370 20 LINE",
"370 20 LINE"
);
},
{
closed = 1;
nodes = (
"273 666 LINE SMOOTH",
"273 677 OFFCURVE",
"264 686 OFFCURVE",
"253 686 CURVE SMOOTH",
"252 686 LINE SMOOTH",
"241 686 OFFCURVE",
"232 677 OFFCURVE",
"232 666 CURVE SMOOTH",
"232 509 LINE",
"273 509 LINE",
"273 509 LINE",
"273 509 LINE"
);
},
{
closed = 1;
nodes = (
"273 666 LINE SMOOTH",
"273 677 OFFCURVE",
"264 686 OFFCURVE",
"253 686 CURVE SMOOTH",
"252 686 LINE SMOOTH",
"241 686 OFFCURVE",
"232 677 OFFCURVE",
"232 666 CURVE SMOOTH",
"232 509 LINE",
"273 509 LINE",
"273 509 LINE",
"273 509 LINE"
);
},
{
closed = 1;
nodes = (
"380 -23 LINE",
"380 -180 LINE SMOOTH",
"380 -191 OFFCURVE",
"389 -200 OFFCURVE",
"400 -200 CURVE SMOOTH",
"401 -200 LINE SMOOTH",
"412 -200 OFFCURVE",
"421 -191 OFFCURVE",
"421 -180 CURVE SMOOTH",
"421 -23 LINE",
"421 -23 LINE",
"421 -23 LINE"
);
}
);
width = 501;
}
);
unicode = 1233;
},
{
glyphname = "see-ethiopic";
lastChange = "2020-12-29 09:19:18 +0000";
layers = (
{
layerId = "A36D14D1-FF07-4574-A62D-30DF65569781";
paths = (
{
closed = 1;
nodes = (
"370 9 OFFCURVE",
"379 0 OFFCURVE",
"390 0 CURVE SMOOTH",
"431 0 LINE SMOOTH",
"442 0 OFFCURVE",
"451 9 OFFCURVE",
"451 20 CURVE SMOOTH",
"451 449 LINE SMOOTH",
"451 478 OFFCURVE",
"429 500 OFFCURVE",
"400 500 CURVE SMOOTH",
"101 500 LINE SMOOTH",
"72 500 OFFCURVE",
"50 478 OFFCURVE",
"50 449 CURVE SMOOTH",
"50 20 LINE SMOOTH",
"50 9 OFFCURVE",
"59 0 OFFCURVE",
"70 0 CURVE SMOOTH",
"111 0 LINE SMOOTH",
"122 0 OFFCURVE",
"131 9 OFFCURVE",
"131 20 CURVE SMOOTH",
"131 439 LINE SMOOTH",
"131 450 OFFCURVE",
"140 459 OFFCURVE",
"151 459 CURVE SMOOTH",
"350 459 LINE SMOOTH",
"361 459 OFFCURVE",
"370 450 OFFCURVE",
"370 439 CURVE SMOOTH",
"370 20 LINE",
"370 20 LINE",
"370 20 LINE"
);
},
{
closed = 1;
nodes = (
"273 666 LINE SMOOTH",
"273 677 OFFCURVE",
"264 686 OFFCURVE",
"253 686 CURVE SMOOTH",
"252 686 LINE SMOOTH",
"241 686 OFFCURVE",
"232 677 OFFCURVE",
"232 666 CURVE SMOOTH",
"232 509 LINE",
"273 509 LINE",
"273 509 LINE",
"273 509 LINE"
);
},
{
closed = 1;
nodes = (
"273 666 LINE SMOOTH",
"273 677 OFFCURVE",
"264 686 OFFCURVE",
"253 686 CURVE SMOOTH",
"252 686 LINE SMOOTH",
"241 686 OFFCURVE",
"232 677 OFFCURVE",
"232 666 CURVE SMOOTH",
"232 509 LINE",
"273 509 LINE",
"273 509 LINE",
"273 509 LINE"
);
},
{
closed = 1;
nodes = (
"416 -160 OFFCURVE",
"450 -123 OFFCURVE",
"450 -77 CURVE SMOOTH",
"450 -31 OFFCURVE",
"416 6 OFFCURVE",
"371 6 CURVE SMOOTH",
"326 6 OFFCURVE",
"292 -31 OFFCURVE",
"292 -77 CURVE SMOOTH",
"292 -123 OFFCURVE",
"326 -160 OFFCURVE",
"371 -160 CURVE SMOOTH"
);
},
{
closed = 1;
nodes = (
"343 -128 OFFCURVE",
"322 -106 OFFCURVE",
"322 -77 CURVE SMOOTH",
"322 -48 OFFCURVE",
"343 -26 OFFCURVE",
"371 -26 CURVE SMOOTH",
"399 -26 OFFCURVE",
"420 -48 OFFCURVE",
"420 -77 CURVE SMOOTH",
"420 -106 OFFCURVE",
"399 -128 OFFCURVE",
"371 -128 CURVE SMOOTH"
);
}
);
width = 501;
}
);
unicode = 1234;
},
{
glyphname = "se-ethiopic";
lastChange = "2020-12-29 09:19:18 +0000";
layers = (
{
layerId = "A36D14D1-FF07-4574-A62D-30DF65569781";
paths = (
{
closed = 1;
nodes = (
"370 9 OFFCURVE",
"379 0 OFFCURVE",
"390 0 CURVE SMOOTH",
"431 0 LINE SMOOTH",
"442 0 OFFCURVE",
"451 9 OFFCURVE",
"451 20 CURVE SMOOTH",
"451 449 LINE SMOOTH",
"451 478 OFFCURVE",
"429 500 OFFCURVE",
"400 500 CURVE SMOOTH",
"101 500 LINE SMOOTH",
"72 500 OFFCURVE",
"50 478 OFFCURVE",
"50 449 CURVE SMOOTH",
"50 20 LINE SMOOTH",
"50 9 OFFCURVE",
"59 0 OFFCURVE",
"70 0 CURVE SMOOTH",
"111 0 LINE SMOOTH",
"122 0 OFFCURVE",
"131 9 OFFCURVE",
"131 20 CURVE SMOOTH",
"131 439 LINE SMOOTH",
"131 450 OFFCURVE",
"140 459 OFFCURVE",
"151 459 CURVE SMOOTH",
"350 459 LINE SMOOTH",
"361 459 OFFCURVE",
"370 450 OFFCURVE",
"370 439 CURVE SMOOTH",
"370 20 LINE",
"370 20 LINE",
"370 20 LINE"
);
},
{
closed = 1;
nodes = (
"188 664 LINE SMOOTH",
"181 673 OFFCURVE",
"168 676 OFFCURVE",
"160 668 CURVE SMOOTH",
"159 667 LINE SMOOTH",
"151 659 OFFCURVE",
"149 649 OFFCURVE",
"155 640 CURVE SMOOTH",
"247 513 LINE",
"280 537 LINE",
"280 537 LINE",
"280 537 LINE"
);
}
);
width = 501;
}
);
unicode = 1235;
},
{
glyphname = "so-ethiopic";
lastChange = "2020-12-29 09:19:18 +0000";
layers = (
{
layerId = "A36D14D1-FF07-4574-A62D-30DF65569781";
paths = (
{
closed = 1;
nodes = (
"370 9 OFFCURVE",
"379 0 OFFCURVE",
"390 0 CURVE SMOOTH",
"431 0 LINE SMOOTH",
"442 0 OFFCURVE",
"451 9 OFFCURVE",
"451 20 CURVE SMOOTH",
"451 449 LINE SMOOTH",
"451 478 OFFCURVE",
"429 500 OFFCURVE",
"400 500 CURVE SMOOTH",
"101 500 LINE SMOOTH",
"72 500 OFFCURVE",
"50 478 OFFCURVE",
"50 449 CURVE SMOOTH",
"50 20 LINE SMOOTH",
"50 9 OFFCURVE",
"59 0 OFFCURVE",
"70 0 CURVE SMOOTH",
"111 0 LINE SMOOTH",
"122 0 OFFCURVE",
"131 9 OFFCURVE",
"131 20 CURVE SMOOTH",
"131 439 LINE SMOOTH",
"131 450 OFFCURVE",
"140 459 OFFCURVE",
"151 459 CURVE SMOOTH",
"350 459 LINE SMOOTH",
"361 459 OFFCURVE",
"370 450 OFFCURVE",
"370 439 CURVE SMOOTH",
"370 20 LINE",
"370 20 LINE",
"370 20 LINE"
);
},
{
closed = 1;
nodes = (
"273 666 LINE SMOOTH",
"273 677 OFFCURVE",
"264 686 OFFCURVE",
"253 686 CURVE SMOOTH",
"252 686 LINE SMOOTH",
"241 686 OFFCURVE",
"232 677 OFFCURVE",
"232 666 CURVE SMOOTH",
"232 509 LINE",
"273 509 LINE",
"273 509 LINE",
"273 509 LINE"
);
},
{
closed = 1;
nodes = (
"273 666 LINE SMOOTH",
"273 677 OFFCURVE",
"264 686 OFFCURVE",
"253 686 CURVE SMOOTH",
"252 686 LINE SMOOTH",
"241 686 OFFCURVE",
"232 677 OFFCURVE",
"232 666 CURVE SMOOTH",
"232 509 LINE",
"273 509 LINE",
"273 509 LINE",
"273 509 LINE"
);
},
{
closed = 1;
nodes = (
"50 -23 LINE",
"50 -180 LINE SMOOTH",
"50 -191 OFFCURVE",
"59 -200 OFFCURVE",
"70 -200 CURVE SMOOTH",
"71 -200 LINE SMOOTH",
"82 -200 OFFCURVE",
"91 -191 OFFCURVE",
"91 -180 CURVE SMOOTH",
"91 -23 LINE",
"91 -23 LINE",
"91 -23 LINE"
);
}
);
width = 501;
}
);
unicode = 1236;
},
{
glyphname = "swa-ethiopic";
lastChange = "2020-12-29 09:19:18 +0000";
layers = (
{
components = (
{
name = _part.hoa;
transform = "{1, 0, 0, 1, -39, 0}";
}
);
layerId = "A36D14D1-FF07-4574-A62D-30DF65569781";
paths = (
{
closed = 1;
nodes = (
"370 9 OFFCURVE",
"379 0 OFFCURVE",
"390 0 CURVE SMOOTH",
"431 0 LINE SMOOTH",
"442 0 OFFCURVE",
"451 9 OFFCURVE",
"451 20 CURVE SMOOTH",
"451 449 LINE SMOOTH",
"451 478 OFFCURVE",
"429 500 OFFCURVE",
"400 500 CURVE SMOOTH",
"101 500 LINE SMOOTH",
"72 500 OFFCURVE",
"50 478 OFFCURVE",
"50 449 CURVE SMOOTH",
"50 20 LINE SMOOTH",
"50 9 OFFCURVE",
"59 0 OFFCURVE",
"70 0 CURVE SMOOTH",
"111 0 LINE SMOOTH",
"122 0 OFFCURVE",
"131 9 OFFCURVE",
"131 20 CURVE SMOOTH",
"131 439 LINE SMOOTH",
"131 450 OFFCURVE",
"140 459 OFFCURVE",
"151 459 CURVE SMOOTH",
"350 459 LINE SMOOTH",
"361 459 OFFCURVE",
"370 450 OFFCURVE",
"370 439 CURVE SMOOTH",
"370 20 LINE",
"370 20 LINE",
"370 20 LINE"
);
},
{
closed = 1;
nodes = (
"273 666 LINE SMOOTH",
"273 677 OFFCURVE",
"264 686 OFFCURVE",
"253 686 CURVE SMOOTH",
"252 686 LINE SMOOTH",
"241 686 OFFCURVE",
"232 677 OFFCURVE",
"232 666 CURVE SMOOTH",
"232 509 LINE",
"273 509 LINE",
"273 509 LINE",
"273 509 LINE"
);
},
{
closed = 1;
nodes = (
"273 666 LINE SMOOTH",
"273 677 OFFCURVE",
"264 686 OFFCURVE",
"253 686 CURVE SMOOTH",
"252 686 LINE SMOOTH",
"241 686 OFFCURVE",
"232 677 OFFCURVE",
"232 666 CURVE SMOOTH",
"232 509 LINE",
"273 509 LINE",
"273 509 LINE",
"273 509 LINE"
);
}
);
width = 523;
}
);
unicode = 1237;
},
{
glyphname = "sha-ethiopic";
lastChange = "2020-12-29 09:19:18 +0000";
layers = (
{
layerId = "A36D14D1-FF07-4574-A62D-30DF65569781";
paths = (
{
closed = 1;
nodes = (
"142 674 LINE",
"376 674 LINE",
"376 700 LINE",
"142 700 LINE",
"142 700 LINE",
"142 700 LINE"
);
},
{
closed = 1;
nodes = (
"370 9 OFFCURVE",
"379 0 OFFCURVE",
"390 0 CURVE SMOOTH",
"431 0 LINE SMOOTH",
"442 0 OFFCURVE",
"451 9 OFFCURVE",
"451 20 CURVE SMOOTH",
"451 449 LINE SMOOTH",
"451 478 OFFCURVE",
"429 500 OFFCURVE",
"400 500 CURVE SMOOTH",
"101 500 LINE SMOOTH",
"72 500 OFFCURVE",
"50 478 OFFCURVE",
"50 449 CURVE SMOOTH",
"50 20 LINE SMOOTH",
"50 9 OFFCURVE",
"59 0 OFFCURVE",
"70 0 CURVE SMOOTH",
"111 0 LINE SMOOTH",
"122 0 OFFCURVE",
"131 9 OFFCURVE",
"131 20 CURVE SMOOTH",
"131 439 LINE SMOOTH",
"131 450 OFFCURVE",
"140 459 OFFCURVE",
"151 459 CURVE SMOOTH",
"350 459 LINE SMOOTH",
"361 459 OFFCURVE",
"370 450 OFFCURVE",
"370 439 CURVE SMOOTH",
"370 20 LINE",
"370 20 LINE",
"370 20 LINE"
);
},
{
closed = 1;
nodes = (
"273 666 LINE SMOOTH",
"273 677 OFFCURVE",
"264 686 OFFCURVE",
"253 686 CURVE SMOOTH",
"252 686 LINE SMOOTH",
"241 686 OFFCURVE",
"232 677 OFFCURVE",
"232 666 CURVE SMOOTH",
"232 509 LINE",
"273 509 LINE",
"273 509 LINE",
"273 509 LINE"
);
},
{
closed = 1;
nodes = (
"273 666 LINE SMOOTH",
"273 677 OFFCURVE",
"264 686 OFFCURVE",
"253 686 CURVE SMOOTH",
"252 686 LINE SMOOTH",
"241 686 OFFCURVE",
"232 677 OFFCURVE",
"232 666 CURVE SMOOTH",
"232 509 LINE",
"273 509 LINE",
"273 509 LINE",
"273 509 LINE"
);
}
);
width = 501;
}
);
unicode = 1238;
},
{
glyphname = "shu-ethiopic";
lastChange = "2020-12-29 09:19:18 +0000";
layers = (
{
components = (
{
name = _part.hoo;
transform = "{1, 0, 0, 1, -39, 0}";
}
);
layerId = "A36D14D1-FF07-4574-A62D-30DF65569781";
paths = (
{
closed = 1;
nodes = (
"142 674 LINE",
"376 674 LINE",
"376 700 LINE",
"142 700 LINE",
"142 700 LINE",
"142 700 LINE"
);
},
{
closed = 1;
nodes = (
"370 9 OFFCURVE",
"379 0 OFFCURVE",
"390 0 CURVE SMOOTH",
"431 0 LINE SMOOTH",
"442 0 OFFCURVE",
"451 9 OFFCURVE",
"451 20 CURVE SMOOTH",
"451 449 LINE SMOOTH",
"451 478 OFFCURVE",
"429 500 OFFCURVE",
"400 500 CURVE SMOOTH",
"101 500 LINE SMOOTH",
"72 500 OFFCURVE",
"50 478 OFFCURVE",
"50 449 CURVE SMOOTH",
"50 20 LINE SMOOTH",
"50 9 OFFCURVE",
"59 0 OFFCURVE",
"70 0 CURVE SMOOTH",
"111 0 LINE SMOOTH",
"122 0 OFFCURVE",
"131 9 OFFCURVE",
"131 20 CURVE SMOOTH",
"131 439 LINE SMOOTH",
"131 450 OFFCURVE",
"140 459 OFFCURVE",
"151 459 CURVE SMOOTH",
"350 459 LINE SMOOTH",
"361 459 OFFCURVE",
"370 450 OFFCURVE",
"370 439 CURVE SMOOTH",
"370 20 LINE",
"370 20 LINE",
"370 20 LINE"
);
},
{
closed = 1;
nodes = (
"273 666 LINE SMOOTH",
"273 677 OFFCURVE",
"264 686 OFFCURVE",
"253 686 CURVE SMOOTH",
"252 686 LINE SMOOTH",
"241 686 OFFCURVE",
"232 677 OFFCURVE",
"232 666 CURVE SMOOTH",
"232 509 LINE",
"273 509 LINE",
"273 509 LINE",
"273 509 LINE"
);
},
{
closed = 1;
nodes = (
"273 666 LINE SMOOTH",
"273 677 OFFCURVE",
"264 686 OFFCURVE",
"253 686 CURVE SMOOTH",
"252 686 LINE SMOOTH",
"241 686 OFFCURVE",
"232 677 OFFCURVE",
"232 666 CURVE SMOOTH",
"232 509 LINE",
"273 509 LINE",
"273 509 LINE",
"273 509 LINE"
);
}
);
width = 591;
}
);
unicode = 1239;
},
{
glyphname = "shi-ethiopic";
lastChange = "2020-12-29 09:19:18 +0000";
layers = (
{
layerId = "A36D14D1-FF07-4574-A62D-30DF65569781";
paths = (
{
closed = 1;
nodes = (
"142 674 LINE",
"376 674 LINE",
"376 700 LINE",
"142 700 LINE",
"142 700 LINE",
"142 700 LINE"
);
},
{
closed = 1;
nodes = (
"370 9 OFFCURVE",
"379 0 OFFCURVE",
"390 0 CURVE SMOOTH",
"431 0 LINE SMOOTH",
"442 0 OFFCURVE",
"451 9 OFFCURVE",
"451 20 CURVE SMOOTH",
"451 449 LINE SMOOTH",
"451 478 OFFCURVE",
"429 500 OFFCURVE",
"400 500 CURVE SMOOTH",
"101 500 LINE SMOOTH",
"72 500 OFFCURVE",
"50 478 OFFCURVE",
"50 449 CURVE SMOOTH",
"50 20 LINE SMOOTH",
"50 9 OFFCURVE",
"59 0 OFFCURVE",
"70 0 CURVE SMOOTH",
"111 0 LINE SMOOTH",
"122 0 OFFCURVE",
"131 9 OFFCURVE",
"131 20 CURVE SMOOTH",
"131 439 LINE SMOOTH",
"131 450 OFFCURVE",
"140 459 OFFCURVE",
"151 459 CURVE SMOOTH",
"350 459 LINE SMOOTH",
"361 459 OFFCURVE",
"370 450 OFFCURVE",
"370 439 CURVE SMOOTH",
"370 20 LINE",
"370 20 LINE",
"370 20 LINE"
);
},
{
closed = 1;
nodes = (
"273 666 LINE SMOOTH",
"273 677 OFFCURVE",
"264 686 OFFCURVE",
"253 686 CURVE SMOOTH",
"252 686 LINE SMOOTH",
"241 686 OFFCURVE",
"232 677 OFFCURVE",
"232 666 CURVE SMOOTH",
"232 509 LINE",
"273 509 LINE",
"273 509 LINE",
"273 509 LINE"
);
},
{
closed = 1;
nodes = (
"273 666 LINE SMOOTH",
"273 677 OFFCURVE",
"264 686 OFFCURVE",
"253 686 CURVE SMOOTH",
"252 686 LINE SMOOTH",
"241 686 OFFCURVE",
"232 677 OFFCURVE",
"232 666 CURVE SMOOTH",
"232 509 LINE",
"273 509 LINE",
"273 509 LINE",
"273 509 LINE"
);
},
{
closed = 1;
nodes = (
"373 -162 LINE",
"483 -162 LINE SMOOTH",
"494 -162 OFFCURVE",
"503 -153 OFFCURVE",
"503 -142 CURVE SMOOTH",
"503 -141 LINE SMOOTH",
"503 -130 OFFCURVE",
"494 -121 OFFCURVE",
"483 -121 CURVE SMOOTH",
"373 -121 LINE",
"373 -121 LINE",
"373 -121 LINE"
);
},
{
closed = 1;
nodes = (
"372 -20 LINE",
"372 -162 LINE",
"413 -162 LINE",
"413 -21 LINE",
"413 -21 LINE",
"413 -21 LINE"
);
}
);
width = 553;
}
);
unicode = 123A;
},
{
glyphname = "shaa-ethiopic";
lastChange = "2020-12-29 09:19:18 +0000";
layers = (
{
layerId = "A36D14D1-FF07-4574-A62D-30DF65569781";
paths = (
{
closed = 1;
nodes = (
"142 674 LINE",
"376 674 LINE",
"376 700 LINE",
"142 700 LINE",
"142 700 LINE",
"142 700 LINE"
);
},
{
closed = 1;
nodes = (
"370 9 OFFCURVE",
"379 0 OFFCURVE",
"390 0 CURVE SMOOTH",
"431 0 LINE SMOOTH",
"442 0 OFFCURVE",
"451 9 OFFCURVE",
"451 20 CURVE SMOOTH",
"451 449 LINE SMOOTH",
"451 478 OFFCURVE",
"429 500 OFFCURVE",
"400 500 CURVE SMOOTH",
"101 500 LINE SMOOTH",
"72 500 OFFCURVE",
"50 478 OFFCURVE",
"50 449 CURVE SMOOTH",
"50 20 LINE SMOOTH",
"50 9 OFFCURVE",
"59 0 OFFCURVE",
"70 0 CURVE SMOOTH",
"111 0 LINE SMOOTH",
"122 0 OFFCURVE",
"131 9 OFFCURVE",
"131 20 CURVE SMOOTH",
"131 439 LINE SMOOTH",
"131 450 OFFCURVE",
"140 459 OFFCURVE",
"151 459 CURVE SMOOTH",
"350 459 LINE SMOOTH",
"361 459 OFFCURVE",
"370 450 OFFCURVE",
"370 439 CURVE SMOOTH",
"370 20 LINE",
"370 20 LINE",
"370 20 LINE"
);
},
{
closed = 1;
nodes = (
"273 666 LINE SMOOTH",
"273 677 OFFCURVE",
"264 686 OFFCURVE",
"253 686 CURVE SMOOTH",
"252 686 LINE SMOOTH",
"241 686 OFFCURVE",
"232 677 OFFCURVE",
"232 666 CURVE SMOOTH",
"232 509 LINE",
"273 509 LINE",
"273 509 LINE",
"273 509 LINE"
);
},
{
closed = 1;
nodes = (
"273 666 LINE SMOOTH",
"273 677 OFFCURVE",
"264 686 OFFCURVE",
"253 686 CURVE SMOOTH",
"252 686 LINE SMOOTH",
"241 686 OFFCURVE",
"232 677 OFFCURVE",
"232 666 CURVE SMOOTH",
"232 509 LINE",
"273 509 LINE",
"273 509 LINE",
"273 509 LINE"
);
},
{
closed = 1;
nodes = (
"380 -23 LINE",
"380 -180 LINE SMOOTH",
"380 -191 OFFCURVE",
"389 -200 OFFCURVE",
"400 -200 CURVE SMOOTH",
"401 -200 LINE SMOOTH",
"412 -200 OFFCURVE",
"421 -191 OFFCURVE",
"421 -180 CURVE SMOOTH",
"421 -23 LINE",
"421 -23 LINE",
"421 -23 LINE"
);
}
);
width = 501;
}
);
unicode = 123B;
},
{
glyphname = "shee-ethiopic";
lastChange = "2020-12-29 09:19:18 +0000";
layers = (
{
layerId = "A36D14D1-FF07-4574-A62D-30DF65569781";
paths = (
{
closed = 1;
nodes = (
"142 674 LINE",
"376 674 LINE",
"376 700 LINE",
"142 700 LINE",
"142 700 LINE",
"142 700 LINE"
);
},
{
closed = 1;
nodes = (
"370 9 OFFCURVE",
"379 0 OFFCURVE",
"390 0 CURVE SMOOTH",
"431 0 LINE SMOOTH",
"442 0 OFFCURVE",
"451 9 OFFCURVE",
"451 20 CURVE SMOOTH",
"451 449 LINE SMOOTH",
"451 478 OFFCURVE",
"429 500 OFFCURVE",
"400 500 CURVE SMOOTH",
"101 500 LINE SMOOTH",
"72 500 OFFCURVE",
"50 478 OFFCURVE",
"50 449 CURVE SMOOTH",
"50 20 LINE SMOOTH",
"50 9 OFFCURVE",
"59 0 OFFCURVE",
"70 0 CURVE SMOOTH",
"111 0 LINE SMOOTH",
"122 0 OFFCURVE",
"131 9 OFFCURVE",
"131 20 CURVE SMOOTH",
"131 439 LINE SMOOTH",
"131 450 OFFCURVE",
"140 459 OFFCURVE",
"151 459 CURVE SMOOTH",
"350 459 LINE SMOOTH",
"361 459 OFFCURVE",
"370 450 OFFCURVE",
"370 439 CURVE SMOOTH",
"370 20 LINE",
"370 20 LINE",
"370 20 LINE"
);
},
{
closed = 1;
nodes = (
"273 666 LINE SMOOTH",
"273 677 OFFCURVE",
"264 686 OFFCURVE",
"253 686 CURVE SMOOTH",
"252 686 LINE SMOOTH",
"241 686 OFFCURVE",
"232 677 OFFCURVE",
"232 666 CURVE SMOOTH",
"232 509 LINE",
"273 509 LINE",
"273 509 LINE",
"273 509 LINE"
);
},
{
closed = 1;
nodes = (
"273 666 LINE SMOOTH",
"273 677 OFFCURVE",
"264 686 OFFCURVE",
"253 686 CURVE SMOOTH",
"252 686 LINE SMOOTH",
"241 686 OFFCURVE",
"232 677 OFFCURVE",
"232 666 CURVE SMOOTH",
"232 509 LINE",
"273 509 LINE",
"273 509 LINE",
"273 509 LINE"
);
},
{
closed = 1;
nodes = (
"472 -160 OFFCURVE",
"506 -123 OFFCURVE",
"506 -77 CURVE SMOOTH",
"506 -31 OFFCURVE",
"472 6 OFFCURVE",
"427 6 CURVE SMOOTH",
"382 6 OFFCURVE",
"348 -31 OFFCURVE",
"348 -77 CURVE SMOOTH",
"348 -123 OFFCURVE",
"382 -160 OFFCURVE",
"427 -160 CURVE SMOOTH"
);
},
{
closed = 1;
nodes = (
"399 -128 OFFCURVE",
"378 -106 OFFCURVE",
"378 -77 CURVE SMOOTH",
"378 -48 OFFCURVE",
"399 -26 OFFCURVE",
"427 -26 CURVE SMOOTH",
"455 -26 OFFCURVE",
"476 -48 OFFCURVE",
"476 -77 CURVE SMOOTH",
"476 -106 OFFCURVE",
"455 -128 OFFCURVE",
"427 -128 CURVE SMOOTH"
);
}
);
width = 556;
}
);
unicode = 123C;
},
{
glyphname = "she-ethiopic";
lastChange = "2020-12-29 09:19:18 +0000";
layers = (
{
layerId = "A36D14D1-FF07-4574-A62D-30DF65569781";
paths = (
{
closed = 1;
nodes = (
"72 647 LINE",
"306 647 LINE",
"306 673 LINE",
"72 673 LINE",
"72 673 LINE",
"72 673 LINE"
);
},
{
closed = 1;
nodes = (
"370 9 OFFCURVE",
"379 0 OFFCURVE",
"390 0 CURVE SMOOTH",
"431 0 LINE SMOOTH",
"442 0 OFFCURVE",
"451 9 OFFCURVE",
"451 20 CURVE SMOOTH",
"451 449 LINE SMOOTH",
"451 478 OFFCURVE",
"429 500 OFFCURVE",
"400 500 CURVE SMOOTH",
"101 500 LINE SMOOTH",
"72 500 OFFCURVE",
"50 478 OFFCURVE",
"50 449 CURVE SMOOTH",
"50 20 LINE SMOOTH",
"50 9 OFFCURVE",
"59 0 OFFCURVE",
"70 0 CURVE SMOOTH",
"111 0 LINE SMOOTH",
"122 0 OFFCURVE",
"131 9 OFFCURVE",
"131 20 CURVE SMOOTH",
"131 439 LINE SMOOTH",
"131 450 OFFCURVE",
"140 459 OFFCURVE",
"151 459 CURVE SMOOTH",
"350 459 LINE SMOOTH",
"361 459 OFFCURVE",
"370 450 OFFCURVE",
"370 439 CURVE SMOOTH",
"370 20 LINE",
"370 20 LINE",
"370 20 LINE"
);
},
{
closed = 1;
nodes = (
"188 664 LINE SMOOTH",
"181 673 OFFCURVE",
"168 676 OFFCURVE",
"160 668 CURVE SMOOTH",
"159 667 LINE SMOOTH",
"151 659 OFFCURVE",
"149 649 OFFCURVE",
"155 640 CURVE SMOOTH",
"247 513 LINE",
"280 537 LINE",
"280 537 LINE",
"280 537 LINE"
);
}
);
width = 501;
}
);
unicode = 123D;
},
{
glyphname = "sho-ethiopic";
lastChange = "2020-12-29 09:19:18 +0000";
layers = (
{
layerId = "A36D14D1-FF07-4574-A62D-30DF65569781";
paths = (
{
closed = 1;
nodes = (
"142 674 LINE",
"376 674 LINE",
"376 700 LINE",
"142 700 LINE",
"142 700 LINE",
"142 700 LINE"
);
},
{
closed = 1;
nodes = (
"370 9 OFFCURVE",
"379 0 OFFCURVE",
"390 0 CURVE SMOOTH",
"431 0 LINE SMOOTH",
"442 0 OFFCURVE",
"451 9 OFFCURVE",
"451 20 CURVE SMOOTH",
"451 449 LINE SMOOTH",
"451 478 OFFCURVE",
"429 500 OFFCURVE",
"400 500 CURVE SMOOTH",
"101 500 LINE SMOOTH",
"72 500 OFFCURVE",
"50 478 OFFCURVE",
"50 449 CURVE SMOOTH",
"50 20 LINE SMOOTH",
"50 9 OFFCURVE",
"59 0 OFFCURVE",
"70 0 CURVE SMOOTH",
"111 0 LINE SMOOTH",
"122 0 OFFCURVE",
"131 9 OFFCURVE",
"131 20 CURVE SMOOTH",
"131 439 LINE SMOOTH",
"131 450 OFFCURVE",
"140 459 OFFCURVE",
"151 459 CURVE SMOOTH",
"350 459 LINE SMOOTH",
"361 459 OFFCURVE",
"370 450 OFFCURVE",
"370 439 CURVE SMOOTH",
"370 20 LINE",
"370 20 LINE",
"370 20 LINE"
);
},
{
closed = 1;
nodes = (
"273 666 LINE SMOOTH",
"273 677 OFFCURVE",
"264 686 OFFCURVE",
"253 686 CURVE SMOOTH",
"252 686 LINE SMOOTH",
"241 686 OFFCURVE",
"232 677 OFFCURVE",
"232 666 CURVE SMOOTH",
"232 509 LINE",
"273 509 LINE",
"273 509 LINE",
"273 509 LINE"
);
},
{
closed = 1;
nodes = (
"273 666 LINE SMOOTH",
"273 677 OFFCURVE",
"264 686 OFFCURVE",
"253 686 CURVE SMOOTH",
"252 686 LINE SMOOTH",
"241 686 OFFCURVE",
"232 677 OFFCURVE",
"232 666 CURVE SMOOTH",
"232 509 LINE",
"273 509 LINE",
"273 509 LINE",
"273 509 LINE"
);
},
{
closed = 1;
nodes = (
"50 -23 LINE",
"50 -180 LINE SMOOTH",
"50 -191 OFFCURVE",
"59 -200 OFFCURVE",
"70 -200 CURVE SMOOTH",
"71 -200 LINE SMOOTH",
"82 -200 OFFCURVE",
"91 -191 OFFCURVE",
"91 -180 CURVE SMOOTH",
"91 -23 LINE",
"91 -23 LINE",
"91 -23 LINE"
);
}
);
width = 501;
}
);
unicode = 123E;
},
{
glyphname = "shwa-ethiopic";
lastChange = "2020-12-29 09:19:18 +0000";
layers = (
{
components = (
{
name = _part.hoa;
transform = "{1, 0, 0, 1, -39, 0}";
}
);
layerId = "A36D14D1-FF07-4574-A62D-30DF65569781";
paths = (
{
closed = 1;
nodes = (
"142 674 LINE",
"376 674 LINE",
"376 700 LINE",
"142 700 LINE",
"142 700 LINE",
"142 700 LINE"
);
},
{
closed = 1;
nodes = (
"273 666 LINE SMOOTH",
"273 677 OFFCURVE",
"264 686 OFFCURVE",
"253 686 CURVE SMOOTH",
"252 686 LINE SMOOTH",
"241 686 OFFCURVE",
"232 677 OFFCURVE",
"232 666 CURVE SMOOTH",
"232 509 LINE",
"273 509 LINE",
"273 509 LINE",
"273 509 LINE"
);
},
{
closed = 1;
nodes = (
"370 9 OFFCURVE",
"379 0 OFFCURVE",
"390 0 CURVE SMOOTH",
"431 0 LINE SMOOTH",
"442 0 OFFCURVE",
"451 9 OFFCURVE",
"451 20 CURVE SMOOTH",
"451 449 LINE SMOOTH",
"451 478 OFFCURVE",
"429 500 OFFCURVE",
"400 500 CURVE SMOOTH",
"101 500 LINE SMOOTH",
"72 500 OFFCURVE",
"50 478 OFFCURVE",
"50 449 CURVE SMOOTH",
"50 20 LINE SMOOTH",
"50 9 OFFCURVE",
"59 0 OFFCURVE",
"70 0 CURVE SMOOTH",
"111 0 LINE SMOOTH",
"122 0 OFFCURVE",
"131 9 OFFCURVE",
"131 20 CURVE SMOOTH",
"131 439 LINE SMOOTH",
"131 450 OFFCURVE",
"140 459 OFFCURVE",
"151 459 CURVE SMOOTH",
"350 459 LINE SMOOTH",
"361 459 OFFCURVE",
"370 450 OFFCURVE",
"370 439 CURVE SMOOTH",
"370 20 LINE",
"370 20 LINE",
"370 20 LINE"
);
},
{
closed = 1;
nodes = (
"273 666 LINE SMOOTH",
"273 677 OFFCURVE",
"264 686 OFFCURVE",
"253 686 CURVE SMOOTH",
"252 686 LINE SMOOTH",
"241 686 OFFCURVE",
"232 677 OFFCURVE",
"232 666 CURVE SMOOTH",
"232 509 LINE",
"273 509 LINE",
"273 509 LINE",
"273 509 LINE"
);
},
{
closed = 1;
nodes = (
"273 666 LINE SMOOTH",
"273 677 OFFCURVE",
"264 686 OFFCURVE",
"253 686 CURVE SMOOTH",
"252 686 LINE SMOOTH",
"241 686 OFFCURVE",
"232 677 OFFCURVE",
"232 666 CURVE SMOOTH",
"232 509 LINE",
"273 509 LINE",
"273 509 LINE",
"273 509 LINE"
);
}
);
width = 523;
}
);
unicode = 123F;
},
{
glyphname = "qa-ethiopic";
lastChange = "2020-12-29 09:19:18 +0000";
layers = (
{
layerId = "A36D14D1-FF07-4574-A62D-30DF65569781";
paths = (
{
closed = 1;
nodes = (
"91 500 LINE SMOOTH",
"68 500 OFFCURVE",
"50 482 OFFCURVE",
"50 459 CURVE SMOOTH",
"50 51 LINE SMOOTH",
"50 22 OFFCURVE",
"72 0 OFFCURVE",
"101 0 CURVE SMOOTH",
"400 0 LINE SMOOTH",
"429 0 OFFCURVE",
"451 22 OFFCURVE",
"451 51 CURVE SMOOTH",
"451 459 LINE SMOOTH",
"451 482 OFFCURVE",
"433 500 OFFCURVE",
"410 500 CURVE SMOOTH"
);
},
{
closed = 1;
nodes = (
"141 41 LINE SMOOTH",
"130 41 OFFCURVE",
"121 50 OFFCURVE",
"121 61 CURVE SMOOTH",
"121 455 LINE SMOOTH",
"121 466 OFFCURVE",
"130 475 OFFCURVE",
"141 475 CURVE SMOOTH",
"226 475 LINE",
"226 41 LINE",
"226 41 LINE",
"226 41 LINE"
);
},
{
closed = 1;
nodes = (
"268 41 LINE",
"268 475 LINE",
"354 475 LINE SMOOTH",
"365 475 OFFCURVE",
"374 466 OFFCURVE",
"374 455 CURVE SMOOTH",
"374 61 LINE SMOOTH",
"374 50 OFFCURVE",
"365 41 OFFCURVE",
"354 41 CURVE SMOOTH"
);
},
{
closed = 1;
nodes = (
"224 -113 LINE",
"265 -113 LINE",
"265 601 LINE",
"224 601 LINE",
"224 601 LINE",
"224 601 LINE"
);
}
);
width = 501;
}
);
unicode = 1240;
},
{
glyphname = "qu-ethiopic";
lastChange = "2020-12-29 09:19:18 +0000";
layers = (
{
components = (
{
name = _part.hoo;
transform = "{1, 0, 0, 1, -49, 0}";
}
);
layerId = "A36D14D1-FF07-4574-A62D-30DF65569781";
paths = (
{
closed = 1;
nodes = (
"91 500 LINE SMOOTH",
"68 500 OFFCURVE",
"50 482 OFFCURVE",
"50 459 CURVE SMOOTH",
"50 51 LINE SMOOTH",
"50 22 OFFCURVE",
"72 0 OFFCURVE",
"101 0 CURVE SMOOTH",
"400 0 LINE SMOOTH",
"429 0 OFFCURVE",
"451 22 OFFCURVE",
"451 51 CURVE SMOOTH",
"451 459 LINE SMOOTH",
"451 482 OFFCURVE",
"433 500 OFFCURVE",
"410 500 CURVE SMOOTH"
);
},
{
closed = 1;
nodes = (
"141 41 LINE SMOOTH",
"130 41 OFFCURVE",
"121 50 OFFCURVE",
"121 61 CURVE SMOOTH",
"121 455 LINE SMOOTH",
"121 466 OFFCURVE",
"130 475 OFFCURVE",
"141 475 CURVE SMOOTH",
"226 475 LINE",
"226 41 LINE",
"226 41 LINE",
"226 41 LINE"
);
},
{
closed = 1;
nodes = (
"268 41 LINE",
"268 475 LINE",
"354 475 LINE SMOOTH",
"365 475 OFFCURVE",
"374 466 OFFCURVE",
"374 455 CURVE SMOOTH",
"374 61 LINE SMOOTH",
"374 50 OFFCURVE",
"365 41 OFFCURVE",
"354 41 CURVE SMOOTH"
);
},
{
closed = 1;
nodes = (
"224 -113 LINE",
"265 -113 LINE",
"265 601 LINE",
"224 601 LINE",
"224 601 LINE",
"224 601 LINE"
);
}
);
width = 581;
}
);
unicode = 1241;
},
{
glyphname = "qi-ethiopic";
lastChange = "2020-12-29 09:19:18 +0000";
layers = (
{
layerId = "A36D14D1-FF07-4574-A62D-30DF65569781";
paths = (
{
closed = 1;
nodes = (
"91 500 LINE SMOOTH",
"68 500 OFFCURVE",
"50 482 OFFCURVE",
"50 459 CURVE SMOOTH",
"50 51 LINE SMOOTH",
"50 22 OFFCURVE",
"72 0 OFFCURVE",
"101 0 CURVE SMOOTH",
"400 0 LINE SMOOTH",
"429 0 OFFCURVE",
"451 22 OFFCURVE",
"451 51 CURVE SMOOTH",
"451 459 LINE SMOOTH",
"451 482 OFFCURVE",
"433 500 OFFCURVE",
"410 500 CURVE SMOOTH"
);
},
{
closed = 1;
nodes = (
"141 41 LINE SMOOTH",
"130 41 OFFCURVE",
"121 50 OFFCURVE",
"121 61 CURVE SMOOTH",
"121 455 LINE SMOOTH",
"121 466 OFFCURVE",
"130 475 OFFCURVE",
"141 475 CURVE SMOOTH",
"226 475 LINE",
"226 41 LINE",
"226 41 LINE",
"226 41 LINE"
);
},
{
closed = 1;
nodes = (
"268 41 LINE",
"268 475 LINE",
"354 475 LINE SMOOTH",
"365 475 OFFCURVE",
"374 466 OFFCURVE",
"374 455 CURVE SMOOTH",
"374 61 LINE SMOOTH",
"374 50 OFFCURVE",
"365 41 OFFCURVE",
"354 41 CURVE SMOOTH"
);
},
{
closed = 1;
nodes = (
"224 -113 LINE",
"265 -113 LINE",
"265 601 LINE",
"224 601 LINE",
"224 601 LINE",
"224 601 LINE"
);
},
{
closed = 1;
nodes = (
"225 -162 LINE",
"335 -162 LINE SMOOTH",
"346 -162 OFFCURVE",
"355 -153 OFFCURVE",
"355 -142 CURVE SMOOTH",
"355 -141 LINE SMOOTH",
"355 -130 OFFCURVE",
"346 -121 OFFCURVE",
"335 -121 CURVE SMOOTH",
"225 -121 LINE",
"225 -121 LINE",
"225 -121 LINE"
);
},
{
closed = 1;
nodes = (
"224 -20 LINE",
"224 -162 LINE",
"265 -162 LINE",
"265 -21 LINE",
"265 -21 LINE",
"265 -21 LINE"
);
}
);
width = 501;
}
);
unicode = 1242;
},
{
glyphname = "qaa-ethiopic";
lastChange = "2020-12-29 09:19:18 +0000";
layers = (
{
layerId = "A36D14D1-FF07-4574-A62D-30DF65569781";
paths = (
{
closed = 1;
nodes = (
"91 500 LINE SMOOTH",
"68 500 OFFCURVE",
"50 482 OFFCURVE",
"50 459 CURVE SMOOTH",
"50 51 LINE SMOOTH",
"50 22 OFFCURVE",
"72 0 OFFCURVE",
"101 0 CURVE SMOOTH",
"400 0 LINE SMOOTH",
"429 0 OFFCURVE",
"451 22 OFFCURVE",
"451 51 CURVE SMOOTH",
"451 459 LINE SMOOTH",
"451 482 OFFCURVE",
"433 500 OFFCURVE",
"410 500 CURVE SMOOTH"
);
},
{
closed = 1;
nodes = (
"141 41 LINE SMOOTH",
"130 41 OFFCURVE",
"121 50 OFFCURVE",
"121 61 CURVE SMOOTH",
"121 455 LINE SMOOTH",
"121 466 OFFCURVE",
"130 475 OFFCURVE",
"141 475 CURVE SMOOTH",
"226 475 LINE",
"226 41 LINE",
"226 41 LINE",
"226 41 LINE"
);
},
{
closed = 1;
nodes = (
"268 41 LINE",
"268 475 LINE",
"354 475 LINE SMOOTH",
"365 475 OFFCURVE",
"374 466 OFFCURVE",
"374 455 CURVE SMOOTH",
"374 61 LINE SMOOTH",
"374 50 OFFCURVE",
"365 41 OFFCURVE",
"354 41 CURVE SMOOTH"
);
},
{
closed = 1;
nodes = (
"224 -113 LINE",
"265 -113 LINE",
"265 601 LINE",
"224 601 LINE",
"224 601 LINE",
"224 601 LINE"
);
},
{
closed = 1;
nodes = (
"154 -121 LINE SMOOTH",
"143 -121 OFFCURVE",
"134 -130 OFFCURVE",
"134 -141 CURVE SMOOTH",
"134 -142 LINE SMOOTH",
"134 -153 OFFCURVE",
"143 -162 OFFCURVE",
"154 -162 CURVE SMOOTH",
"264 -162 LINE",
"264 -121 LINE",
"264 -121 LINE",
"264 -121 LINE"
);
},
{
closed = 1;
nodes = (
"224 -162 LINE",
"265 -162 LINE",
"265 -20 LINE",
"224 -21 LINE",
"224 -21 LINE",
"224 -21 LINE"
);
}
);
width = 501;
}
);
unicode = 1243;
},
{
glyphname = "qee-ethiopic";
lastChange = "2020-12-29 09:19:18 +0000";
layers = (
{
layerId = "A36D14D1-FF07-4574-A62D-30DF65569781";
paths = (
{
closed = 1;
nodes = (
"91 500 LINE SMOOTH",
"68 500 OFFCURVE",
"50 482 OFFCURVE",
"50 459 CURVE SMOOTH",
"50 51 LINE SMOOTH",
"50 22 OFFCURVE",
"72 0 OFFCURVE",
"101 0 CURVE SMOOTH",
"400 0 LINE SMOOTH",
"429 0 OFFCURVE",
"451 22 OFFCURVE",
"451 51 CURVE SMOOTH",
"451 459 LINE SMOOTH",
"451 482 OFFCURVE",
"433 500 OFFCURVE",
"410 500 CURVE SMOOTH"
);
},
{
closed = 1;
nodes = (
"141 41 LINE SMOOTH",
"130 41 OFFCURVE",
"121 50 OFFCURVE",
"121 61 CURVE SMOOTH",
"121 455 LINE SMOOTH",
"121 466 OFFCURVE",
"130 475 OFFCURVE",
"141 475 CURVE SMOOTH",
"226 475 LINE",
"226 41 LINE",
"226 41 LINE",
"226 41 LINE"
);
},
{
closed = 1;
nodes = (
"268 41 LINE",
"268 475 LINE",
"354 475 LINE SMOOTH",
"365 475 OFFCURVE",
"374 466 OFFCURVE",
"374 455 CURVE SMOOTH",
"374 61 LINE SMOOTH",
"374 50 OFFCURVE",
"365 41 OFFCURVE",
"354 41 CURVE SMOOTH"
);
},
{
closed = 1;
nodes = (
"224 -113 LINE",
"265 -113 LINE",
"265 601 LINE",
"224 601 LINE",
"224 601 LINE",
"224 601 LINE"
);
},
{
closed = 1;
nodes = (
"386 -200 OFFCURVE",
"420 -163 OFFCURVE",
"420 -117 CURVE SMOOTH",
"420 -71 OFFCURVE",
"386 -34 OFFCURVE",
"341 -34 CURVE SMOOTH",
"296 -34 OFFCURVE",
"262 -71 OFFCURVE",
"262 -117 CURVE SMOOTH",
"262 -163 OFFCURVE",
"296 -200 OFFCURVE",
"341 -200 CURVE SMOOTH"
);
},
{
closed = 1;
nodes = (
"313 -168 OFFCURVE",
"292 -146 OFFCURVE",
"292 -117 CURVE SMOOTH",
"292 -88 OFFCURVE",
"313 -66 OFFCURVE",
"341 -66 CURVE SMOOTH",
"369 -66 OFFCURVE",
"390 -88 OFFCURVE",
"390 -117 CURVE SMOOTH",
"390 -146 OFFCURVE",
"369 -168 OFFCURVE",
"341 -168 CURVE SMOOTH"
);
}
);
width = 501;
}
);
unicode = 1244;
},
{
glyphname = "qe-ethiopic";
lastChange = "2020-12-29 09:19:18 +0000";
layers = (
{
layerId = "A36D14D1-FF07-4574-A62D-30DF65569781";
paths = (
{
closed = 1;
nodes = (
"91 500 LINE SMOOTH",
"68 500 OFFCURVE",
"50 482 OFFCURVE",
"50 459 CURVE SMOOTH",
"50 51 LINE SMOOTH",
"50 22 OFFCURVE",
"72 0 OFFCURVE",
"101 0 CURVE SMOOTH",
"400 0 LINE SMOOTH",
"429 0 OFFCURVE",
"451 22 OFFCURVE",
"451 51 CURVE SMOOTH",
"451 459 LINE SMOOTH",
"451 482 OFFCURVE",
"433 500 OFFCURVE",
"410 500 CURVE SMOOTH"
);
},
{
closed = 1;
nodes = (
"141 41 LINE SMOOTH",
"130 41 OFFCURVE",
"121 50 OFFCURVE",
"121 61 CURVE SMOOTH",
"121 455 LINE SMOOTH",
"121 466 OFFCURVE",
"130 475 OFFCURVE",
"141 475 CURVE SMOOTH",
"226 475 LINE",
"226 41 LINE",
"226 41 LINE",
"226 41 LINE"
);
},
{
closed = 1;
nodes = (
"268 41 LINE",
"268 475 LINE",
"354 475 LINE SMOOTH",
"365 475 OFFCURVE",
"374 466 OFFCURVE",
"374 455 CURVE SMOOTH",
"374 61 LINE SMOOTH",
"374 50 OFFCURVE",
"365 41 OFFCURVE",
"354 41 CURVE SMOOTH"
);
},
{
closed = 1;
nodes = (
"224 -113 LINE",
"265 -113 LINE",
"265 601 LINE",
"224 601 LINE",
"224 601 LINE",
"224 601 LINE"
);
},
{
closed = 1;
nodes = (
"91 555 LINE",
"201 555 LINE SMOOTH",
"212 555 OFFCURVE",
"221 564 OFFCURVE",
"221 575 CURVE SMOOTH",
"221 576 LINE SMOOTH",
"221 587 OFFCURVE",
"212 596 OFFCURVE",
"201 596 CURVE SMOOTH",
"91 596 LINE",
"91 596 LINE",
"91 596 LINE"
);
},
{
closed = 1;
nodes = (
"90 697 LINE",
"90 555 LINE",
"131 555 LINE",
"131 696 LINE",
"131 696 LINE",
"131 696 LINE"
);
}
);
width = 501;
}
);
unicode = 1245;
},
{
glyphname = "qo-ethiopic";
lastChange = "2020-12-29 09:19:18 +0000";
layers = (
{
layerId = "A36D14D1-FF07-4574-A62D-30DF65569781";
paths = (
{
closed = 1;
nodes = (
"91 500 LINE SMOOTH",
"68 500 OFFCURVE",
"50 482 OFFCURVE",
"50 459 CURVE SMOOTH",
"50 51 LINE SMOOTH",
"50 22 OFFCURVE",
"72 0 OFFCURVE",
"101 0 CURVE SMOOTH",
"400 0 LINE SMOOTH",
"429 0 OFFCURVE",
"451 22 OFFCURVE",
"451 51 CURVE SMOOTH",
"451 459 LINE SMOOTH",
"451 482 OFFCURVE",
"433 500 OFFCURVE",
"410 500 CURVE SMOOTH"
);
},
{
closed = 1;
nodes = (
"141 41 LINE SMOOTH",
"130 41 OFFCURVE",
"121 50 OFFCURVE",
"121 61 CURVE SMOOTH",
"121 455 LINE SMOOTH",
"121 466 OFFCURVE",
"130 475 OFFCURVE",
"141 475 CURVE SMOOTH",
"226 475 LINE",
"226 41 LINE",
"226 41 LINE",
"226 41 LINE"
);
},
{
closed = 1;
nodes = (
"268 41 LINE",
"268 475 LINE",
"354 475 LINE SMOOTH",
"365 475 OFFCURVE",
"374 466 OFFCURVE",
"374 455 CURVE SMOOTH",
"374 61 LINE SMOOTH",
"374 50 OFFCURVE",
"365 41 OFFCURVE",
"354 41 CURVE SMOOTH"
);
},
{
closed = 1;
nodes = (
"224 -113 LINE",
"265 -113 LINE",
"265 530 LINE",
"224 530 LINE",
"224 530 LINE",
"224 530 LINE"
);
},
{
closed = 1;
nodes = (
"287 537 OFFCURVE",
"321 574 OFFCURVE",
"321 620 CURVE SMOOTH",
"321 666 OFFCURVE",
"287 703 OFFCURVE",
"242 703 CURVE SMOOTH",
"197 703 OFFCURVE",
"163 666 OFFCURVE",
"163 620 CURVE SMOOTH",
"163 574 OFFCURVE",
"197 537 OFFCURVE",
"242 537 CURVE SMOOTH"
);
},
{
closed = 1;
nodes = (
"214 569 OFFCURVE",
"193 591 OFFCURVE",
"193 620 CURVE SMOOTH",
"193 649 OFFCURVE",
"214 671 OFFCURVE",
"242 671 CURVE SMOOTH",
"270 671 OFFCURVE",
"291 649 OFFCURVE",
"291 620 CURVE SMOOTH",
"291 591 OFFCURVE",
"270 569 OFFCURVE",
"242 569 CURVE SMOOTH"
);
}
);
width = 501;
}
);
unicode = 1246;
},
{
glyphname = "qoa-ethiopic";
lastChange = "2020-12-29 09:19:18 +0000";
layers = (
{
layerId = "A36D14D1-FF07-4574-A62D-30DF65569781";
paths = (
{
closed = 1;
nodes = (
"91 500 LINE SMOOTH",
"68 500 OFFCURVE",
"50 482 OFFCURVE",
"50 459 CURVE SMOOTH",
"50 51 LINE SMOOTH",
"50 22 OFFCURVE",
"72 0 OFFCURVE",
"101 0 CURVE SMOOTH",
"400 0 LINE SMOOTH",
"429 0 OFFCURVE",
"451 22 OFFCURVE",
"451 51 CURVE SMOOTH",
"451 459 LINE SMOOTH",
"451 482 OFFCURVE",
"433 500 OFFCURVE",
"410 500 CURVE SMOOTH"
);
},
{
closed = 1;
nodes = (
"141 41 LINE SMOOTH",
"130 41 OFFCURVE",
"121 50 OFFCURVE",
"121 61 CURVE SMOOTH",
"121 455 LINE SMOOTH",
"121 466 OFFCURVE",
"130 475 OFFCURVE",
"141 475 CURVE SMOOTH",
"226 475 LINE",
"226 41 LINE",
"226 41 LINE",
"226 41 LINE"
);
},
{
closed = 1;
nodes = (
"268 41 LINE",
"268 475 LINE",
"354 475 LINE SMOOTH",
"365 475 OFFCURVE",
"374 466 OFFCURVE",
"374 455 CURVE SMOOTH",
"374 61 LINE SMOOTH",
"374 50 OFFCURVE",
"365 41 OFFCURVE",
"354 41 CURVE SMOOTH"
);
},
{
closed = 1;
nodes = (
"224 -113 LINE",
"265 -113 LINE",
"265 521 LINE",
"224 521 LINE",
"224 521 LINE",
"224 521 LINE"
);
},
{
closed = 1;
nodes = (
"287 537 OFFCURVE",
"321 574 OFFCURVE",
"321 620 CURVE SMOOTH",
"321 666 OFFCURVE",
"287 703 OFFCURVE",
"242 703 CURVE SMOOTH",
"197 703 OFFCURVE",
"163 666 OFFCURVE",
"163 620 CURVE SMOOTH",
"163 574 OFFCURVE",
"197 537 OFFCURVE",
"242 537 CURVE SMOOTH"
);
},
{
closed = 1;
nodes = (
"214 569 OFFCURVE",
"193 591 OFFCURVE",
"193 620 CURVE SMOOTH",
"193 649 OFFCURVE",
"214 671 OFFCURVE",
"242 671 CURVE SMOOTH",
"270 671 OFFCURVE",
"291 649 OFFCURVE",
"291 620 CURVE SMOOTH",
"291 591 OFFCURVE",
"270 569 OFFCURVE",
"242 569 CURVE SMOOTH"
);
},
{
closed = 1;
nodes = (
"154 -121 LINE SMOOTH",
"143 -121 OFFCURVE",
"134 -130 OFFCURVE",
"134 -141 CURVE SMOOTH",
"134 -142 LINE SMOOTH",
"134 -153 OFFCURVE",
"143 -162 OFFCURVE",
"154 -162 CURVE SMOOTH",
"264 -162 LINE",
"264 -121 LINE",
"264 -121 LINE",
"264 -121 LINE"
);
},
{
closed = 1;
nodes = (
"224 -162 LINE",
"265 -162 LINE",
"265 -20 LINE",
"224 -21 LINE",
"224 -21 LINE",
"224 -21 LINE"
);
}
);
width = 501;
}
);
unicode = 1247;
},
{
glyphname = "qwaa-ethiopic";
lastChange = "2020-12-29 09:19:18 +0000";
layers = (
{
layerId = "A36D14D1-FF07-4574-A62D-30DF65569781";
paths = (
{
closed = 1;
nodes = (
"69 500 LINE",
"58 499 OFFCURVE",
"50 491 OFFCURVE",
"50 480 CURVE SMOOTH",
"50 51 LINE SMOOTH",
"50 22 OFFCURVE",
"72 0 OFFCURVE",
"101 0 CURVE SMOOTH",
"400 0 LINE SMOOTH",
"429 0 OFFCURVE",
"451 22 OFFCURVE",
"451 51 CURVE SMOOTH",
"451 480 LINE SMOOTH",
"451 491 OFFCURVE",
"443 499 OFFCURVE",
"432 500 CURVE"
);
},
{
closed = 1;
nodes = (
"151 41 LINE SMOOTH",
"140 41 OFFCURVE",
"131 50 OFFCURVE",
"131 61 CURVE SMOOTH",
"131 455 LINE SMOOTH",
"131 466 OFFCURVE",
"140 475 OFFCURVE",
"151 475 CURVE SMOOTH",
"226 475 LINE",
"226 41 LINE",
"226 41 LINE",
"226 41 LINE"
);
},
{
closed = 1;
nodes = (
"268 41 LINE",
"268 475 LINE",
"352 475 LINE SMOOTH",
"363 475 OFFCURVE",
"372 466 OFFCURVE",
"372 455 CURVE SMOOTH",
"372 61 LINE SMOOTH",
"372 50 OFFCURVE",
"363 41 OFFCURVE",
"352 41 CURVE SMOOTH"
);
},
{
closed = 1;
nodes = (
"224 -113 LINE",
"265 -113 LINE",
"265 601 LINE",
"224 601 LINE",
"224 601 LINE",
"224 601 LINE"
);
},
{
closed = 1;
nodes = (
"154 -41 LINE SMOOTH",
"143 -41 OFFCURVE",
"134 -50 OFFCURVE",
"134 -61 CURVE SMOOTH",
"134 -62 LINE SMOOTH",
"134 -73 OFFCURVE",
"143 -82 OFFCURVE",
"154 -82 CURVE SMOOTH",
"264 -82 LINE",
"264 -41 LINE",
"264 -41 LINE",
"264 -41 LINE"
);
},
{
closed = 1;
nodes = (
"224 -162 LINE",
"265 -162 LINE",
"265 -20 LINE",
"224 -21 LINE",
"224 -21 LINE",
"224 -21 LINE"
);
}
);
width = 501;
}
);
unicode = 124B;
},
{
glyphname = "ba-ethiopic";
lastChange = "2020-12-29 09:19:18 +0000";
layers = (
{
layerId = "A36D14D1-FF07-4574-A62D-30DF65569781";
paths = (
{
closed = 1;
nodes = (
"370 9 OFFCURVE",
"379 0 OFFCURVE",
"390 0 CURVE SMOOTH",
"431 0 LINE SMOOTH",
"442 0 OFFCURVE",
"451 9 OFFCURVE",
"451 20 CURVE SMOOTH",
"451 449 LINE SMOOTH",
"451 478 OFFCURVE",
"429 500 OFFCURVE",
"400 500 CURVE SMOOTH",
"101 500 LINE SMOOTH",
"72 500 OFFCURVE",
"50 478 OFFCURVE",
"50 449 CURVE SMOOTH",
"50 20 LINE SMOOTH",
"50 9 OFFCURVE",
"59 0 OFFCURVE",
"70 0 CURVE SMOOTH",
"111 0 LINE SMOOTH",
"122 0 OFFCURVE",
"131 9 OFFCURVE",
"131 20 CURVE SMOOTH",
"131 439 LINE SMOOTH",
"131 450 OFFCURVE",
"140 459 OFFCURVE",
"151 459 CURVE SMOOTH",
"350 459 LINE SMOOTH",
"361 459 OFFCURVE",
"370 450 OFFCURVE",
"370 439 CURVE SMOOTH",
"370 20 LINE",
"370 20 LINE",
"370 20 LINE"
);
}
);
width = 501;
}
);
unicode = 1260;
},
{
glyphname = "bu-ethiopic";
lastChange = "2020-12-29 09:19:18 +0000";
layers = (
{
components = (
{
name = _part.hoo;
transform = "{1, 0, 0, 1, -39, 0}";
}
);
layerId = "A36D14D1-FF07-4574-A62D-30DF65569781";
paths = (
{
closed = 1;
nodes = (
"370 9 OFFCURVE",
"379 0 OFFCURVE",
"390 0 CURVE SMOOTH",
"431 0 LINE SMOOTH",
"442 0 OFFCURVE",
"451 9 OFFCURVE",
"451 20 CURVE SMOOTH",
"451 449 LINE SMOOTH",
"451 478 OFFCURVE",
"429 500 OFFCURVE",
"400 500 CURVE SMOOTH",
"101 500 LINE SMOOTH",
"72 500 OFFCURVE",
"50 478 OFFCURVE",
"50 449 CURVE SMOOTH",
"50 20 LINE SMOOTH",
"50 9 OFFCURVE",
"59 0 OFFCURVE",
"70 0 CURVE SMOOTH",
"111 0 LINE SMOOTH",
"122 0 OFFCURVE",
"131 9 OFFCURVE",
"131 20 CURVE SMOOTH",
"131 439 LINE SMOOTH",
"131 450 OFFCURVE",
"140 459 OFFCURVE",
"151 459 CURVE SMOOTH",
"350 459 LINE SMOOTH",
"361 459 OFFCURVE",
"370 450 OFFCURVE",
"370 439 CURVE SMOOTH",
"370 20 LINE",
"370 20 LINE",
"370 20 LINE"
);
}
);
width = 591;
}
);
unicode = 1261;
},
{
glyphname = "bi-ethiopic";
lastChange = "2020-12-29 09:19:18 +0000";
layers = (
{
layerId = "A36D14D1-FF07-4574-A62D-30DF65569781";
paths = (
{
closed = 1;
nodes = (
"370 9 OFFCURVE",
"379 0 OFFCURVE",
"390 0 CURVE SMOOTH",
"431 0 LINE SMOOTH",
"442 0 OFFCURVE",
"451 9 OFFCURVE",
"451 20 CURVE SMOOTH",
"451 449 LINE SMOOTH",
"451 478 OFFCURVE",
"429 500 OFFCURVE",
"400 500 CURVE SMOOTH",
"101 500 LINE SMOOTH",
"72 500 OFFCURVE",
"50 478 OFFCURVE",
"50 449 CURVE SMOOTH",
"50 20 LINE SMOOTH",
"50 9 OFFCURVE",
"59 0 OFFCURVE",
"70 0 CURVE SMOOTH",
"111 0 LINE SMOOTH",
"122 0 OFFCURVE",
"131 9 OFFCURVE",
"131 20 CURVE SMOOTH",
"131 439 LINE SMOOTH",
"131 450 OFFCURVE",
"140 459 OFFCURVE",
"151 459 CURVE SMOOTH",
"350 459 LINE SMOOTH",
"361 459 OFFCURVE",
"370 450 OFFCURVE",
"370 439 CURVE SMOOTH",
"370 20 LINE",
"370 20 LINE",
"370 20 LINE"
);
},
{
closed = 1;
nodes = (
"373 -162 LINE",
"483 -162 LINE SMOOTH",
"494 -162 OFFCURVE",
"503 -153 OFFCURVE",
"503 -142 CURVE SMOOTH",
"503 -141 LINE SMOOTH",
"503 -130 OFFCURVE",
"494 -121 OFFCURVE",
"483 -121 CURVE SMOOTH",
"373 -121 LINE",
"373 -121 LINE",
"373 -121 LINE"
);
},
{
closed = 1;
nodes = (
"372 -20 LINE",
"372 -162 LINE",
"413 -162 LINE",
"413 -21 LINE",
"413 -21 LINE",
"413 -21 LINE"
);
}
);
width = 553;
}
);
unicode = 1262;
},
{
glyphname = "baa-ethiopic";
lastChange = "2020-12-29 09:19:18 +0000";
layers = (
{
layerId = "A36D14D1-FF07-4574-A62D-30DF65569781";
paths = (
{
closed = 1;
nodes = (
"370 9 OFFCURVE",
"379 0 OFFCURVE",
"390 0 CURVE SMOOTH",
"431 0 LINE SMOOTH",
"442 0 OFFCURVE",
"451 9 OFFCURVE",
"451 20 CURVE SMOOTH",
"451 449 LINE SMOOTH",
"451 478 OFFCURVE",
"429 500 OFFCURVE",
"400 500 CURVE SMOOTH",
"101 500 LINE SMOOTH",
"72 500 OFFCURVE",
"50 478 OFFCURVE",
"50 449 CURVE SMOOTH",
"50 20 LINE SMOOTH",
"50 9 OFFCURVE",
"59 0 OFFCURVE",
"70 0 CURVE SMOOTH",
"111 0 LINE SMOOTH",
"122 0 OFFCURVE",
"131 9 OFFCURVE",
"131 20 CURVE SMOOTH",
"131 439 LINE SMOOTH",
"131 450 OFFCURVE",
"140 459 OFFCURVE",
"151 459 CURVE SMOOTH",
"350 459 LINE SMOOTH",
"361 459 OFFCURVE",
"370 450 OFFCURVE",
"370 439 CURVE SMOOTH",
"370 20 LINE",
"370 20 LINE",
"370 20 LINE"
);
},
{
closed = 1;
nodes = (
"380 -23 LINE",
"380 -180 LINE SMOOTH",
"380 -191 OFFCURVE",
"389 -200 OFFCURVE",
"400 -200 CURVE SMOOTH",
"401 -200 LINE SMOOTH",
"412 -200 OFFCURVE",
"421 -191 OFFCURVE",
"421 -180 CURVE SMOOTH",
"421 -23 LINE",
"421 -23 LINE",
"421 -23 LINE"
);
}
);
width = 501;
}
);
unicode = 1263;
},
{
glyphname = "bee-ethiopic";
lastChange = "2020-12-29 09:19:18 +0000";
layers = (
{
layerId = "A36D14D1-FF07-4574-A62D-30DF65569781";
paths = (
{
closed = 1;
nodes = (
"370 9 OFFCURVE",
"379 0 OFFCURVE",
"390 0 CURVE SMOOTH",
"431 0 LINE SMOOTH",
"442 0 OFFCURVE",
"451 9 OFFCURVE",
"451 20 CURVE SMOOTH",
"451 449 LINE SMOOTH",
"451 478 OFFCURVE",
"429 500 OFFCURVE",
"400 500 CURVE SMOOTH",
"101 500 LINE SMOOTH",
"72 500 OFFCURVE",
"50 478 OFFCURVE",
"50 449 CURVE SMOOTH",
"50 20 LINE SMOOTH",
"50 9 OFFCURVE",
"59 0 OFFCURVE",
"70 0 CURVE SMOOTH",
"111 0 LINE SMOOTH",
"122 0 OFFCURVE",
"131 9 OFFCURVE",
"131 20 CURVE SMOOTH",
"131 439 LINE SMOOTH",
"131 450 OFFCURVE",
"140 459 OFFCURVE",
"151 459 CURVE SMOOTH",
"350 459 LINE SMOOTH",
"361 459 OFFCURVE",
"370 450 OFFCURVE",
"370 439 CURVE SMOOTH",
"370 20 LINE",
"370 20 LINE",
"370 20 LINE"
);
},
{
closed = 1;
nodes = (
"466 -150 OFFCURVE",
"500 -113 OFFCURVE",
"500 -67 CURVE SMOOTH",
"500 -21 OFFCURVE",
"466 16 OFFCURVE",
"421 16 CURVE SMOOTH",
"376 16 OFFCURVE",
"342 -21 OFFCURVE",
"342 -67 CURVE SMOOTH",
"342 -113 OFFCURVE",
"376 -150 OFFCURVE",
"421 -150 CURVE SMOOTH"
);
},
{
closed = 1;
nodes = (
"393 -118 OFFCURVE",
"372 -96 OFFCURVE",
"372 -67 CURVE SMOOTH",
"372 -38 OFFCURVE",
"393 -16 OFFCURVE",
"421 -16 CURVE SMOOTH",
"449 -16 OFFCURVE",
"470 -38 OFFCURVE",
"470 -67 CURVE SMOOTH",
"470 -96 OFFCURVE",
"449 -118 OFFCURVE",
"421 -118 CURVE SMOOTH"
);
}
);
width = 550;
}
);
unicode = 1264;
},
{
glyphname = "be-ethiopic";
lastChange = "2020-12-29 09:19:18 +0000";
layers = (
{
layerId = "A36D14D1-FF07-4574-A62D-30DF65569781";
paths = (
{
closed = 1;
nodes = (
"436 9 OFFCURVE",
"445 0 OFFCURVE",
"456 0 CURVE SMOOTH",
"497 0 LINE SMOOTH",
"508 0 OFFCURVE",
"517 9 OFFCURVE",
"517 20 CURVE SMOOTH",
"517 449 LINE SMOOTH",
"517 478 OFFCURVE",
"495 500 OFFCURVE",
"466 500 CURVE SMOOTH",
"167 500 LINE SMOOTH",
"138 500 OFFCURVE",
"116 478 OFFCURVE",
"116 449 CURVE SMOOTH",
"116 20 LINE SMOOTH",
"116 9 OFFCURVE",
"125 0 OFFCURVE",
"136 0 CURVE SMOOTH",
"177 0 LINE SMOOTH",
"188 0 OFFCURVE",
"197 9 OFFCURVE",
"197 20 CURVE SMOOTH",
"197 439 LINE SMOOTH",
"197 450 OFFCURVE",
"206 459 OFFCURVE",
"217 459 CURVE SMOOTH",
"416 459 LINE SMOOTH",
"427 459 OFFCURVE",
"436 450 OFFCURVE",
"436 439 CURVE SMOOTH",
"436 20 LINE",
"436 20 LINE",
"436 20 LINE"
);
},
{
closed = 1;
nodes = (
"50 282 LINE SMOOTH",
"50 261 OFFCURVE",
"59 243 OFFCURVE",
"70 243 CURVE SMOOTH",
"150 243 LINE",
"150 324 LINE",
"70 324 LINE SMOOTH",
"59 324 OFFCURVE",
"50 306 OFFCURVE",
"50 284 CURVE SMOOTH"
);
}
);
width = 567;
}
);
unicode = 1265;
},
{
glyphname = "bo-ethiopic";
lastChange = "2020-12-29 09:19:18 +0000";
layers = (
{
layerId = "A36D14D1-FF07-4574-A62D-30DF65569781";
paths = (
{
closed = 1;
nodes = (
"370 9 OFFCURVE",
"379 0 OFFCURVE",
"390 0 CURVE SMOOTH",
"431 0 LINE SMOOTH",
"442 0 OFFCURVE",
"451 9 OFFCURVE",
"451 20 CURVE SMOOTH",
"451 449 LINE SMOOTH",
"451 478 OFFCURVE",
"429 500 OFFCURVE",
"400 500 CURVE SMOOTH",
"101 500 LINE SMOOTH",
"72 500 OFFCURVE",
"50 478 OFFCURVE",
"50 449 CURVE SMOOTH",
"50 20 LINE SMOOTH",
"50 9 OFFCURVE",
"59 0 OFFCURVE",
"70 0 CURVE SMOOTH",
"111 0 LINE SMOOTH",
"122 0 OFFCURVE",
"131 9 OFFCURVE",
"131 20 CURVE SMOOTH",
"131 439 LINE SMOOTH",
"131 450 OFFCURVE",
"140 459 OFFCURVE",
"151 459 CURVE SMOOTH",
"350 459 LINE SMOOTH",
"361 459 OFFCURVE",
"370 450 OFFCURVE",
"370 439 CURVE SMOOTH",
"370 20 LINE",
"370 20 LINE",
"370 20 LINE"
);
},
{
closed = 1;
nodes = (
"50 -23 LINE",
"50 -180 LINE SMOOTH",
"50 -191 OFFCURVE",
"59 -200 OFFCURVE",
"70 -200 CURVE SMOOTH",
"71 -200 LINE SMOOTH",
"82 -200 OFFCURVE",
"91 -191 OFFCURVE",
"91 -180 CURVE SMOOTH",
"91 -23 LINE",
"91 -23 LINE",
"91 -23 LINE"
);
}
);
width = 501;
}
);
unicode = 1266;
},
{
glyphname = "bwa-ethiopic";
lastChange = "2020-12-29 09:19:18 +0000";
layers = (
{
layerId = "A36D14D1-FF07-4574-A62D-30DF65569781";
paths = (
{
closed = 1;
nodes = (
"370 9 OFFCURVE",
"379 0 OFFCURVE",
"390 0 CURVE SMOOTH",
"431 0 LINE SMOOTH",
"442 0 OFFCURVE",
"451 9 OFFCURVE",
"451 20 CURVE SMOOTH",
"451 449 LINE SMOOTH",
"451 478 OFFCURVE",
"429 500 OFFCURVE",
"400 500 CURVE SMOOTH",
"101 500 LINE SMOOTH",
"72 500 OFFCURVE",
"50 478 OFFCURVE",
"50 449 CURVE SMOOTH",
"50 20 LINE SMOOTH",
"50 9 OFFCURVE",
"59 0 OFFCURVE",
"70 0 CURVE SMOOTH",
"111 0 LINE SMOOTH",
"122 0 OFFCURVE",
"131 9 OFFCURVE",
"131 20 CURVE SMOOTH",
"131 439 LINE SMOOTH",
"131 450 OFFCURVE",
"140 459 OFFCURVE",
"151 459 CURVE SMOOTH",
"350 459 LINE SMOOTH",
"361 459 OFFCURVE",
"370 450 OFFCURVE",
"370 439 CURVE SMOOTH",
"370 20 LINE",
"370 20 LINE",
"370 20 LINE"
);
},
{
closed = 1;
nodes = (
"416 -136 LINE SMOOTH",
"416 -147 OFFCURVE",
"425 -156 OFFCURVE",
"436 -156 CURVE SMOOTH",
"437 -156 LINE SMOOTH",
"448 -156 OFFCURVE",
"457 -147 OFFCURVE",
"457 -136 CURVE SMOOTH",
"457 -26 LINE",
"416 -26 LINE",
"416 -26 LINE",
"416 -26 LINE"
);
},
{
closed = 1;
nodes = (
"457 -66 LINE",
"457 -25 LINE",
"315 -25 LINE",
"316 -66 LINE",
"316 -66 LINE",
"316 -66 LINE"
);
}
);
width = 507;
}
);
unicode = 1267;
},
{
glyphname = "va-ethiopic";
lastChange = "2020-12-29 09:19:18 +0000";
layers = (
{
layerId = "A36D14D1-FF07-4574-A62D-30DF65569781";
paths = (
{
closed = 1;
nodes = (
"84 545 OFFCURVE",
"93 540 OFFCURVE",
"104 540 CURVE SMOOTH",
"392 540 LINE SMOOTH",
"403 540 OFFCURVE",
"412 546 OFFCURVE",
"412 553 CURVE SMOOTH",
"412 560 OFFCURVE",
"403 566 OFFCURVE",
"392 566 CURVE SMOOTH",
"104 566 LINE SMOOTH",
"93 566 OFFCURVE",
"84 560 OFFCURVE",
"84 553 CURVE SMOOTH"
);
},
{
closed = 1;
nodes = (
"370 9 OFFCURVE",
"379 0 OFFCURVE",
"390 0 CURVE SMOOTH",
"431 0 LINE SMOOTH",
"442 0 OFFCURVE",
"451 9 OFFCURVE",
"451 20 CURVE SMOOTH",
"451 449 LINE SMOOTH",
"451 478 OFFCURVE",
"429 500 OFFCURVE",
"400 500 CURVE SMOOTH",
"101 500 LINE SMOOTH",
"72 500 OFFCURVE",
"50 478 OFFCURVE",
"50 449 CURVE SMOOTH",
"50 20 LINE SMOOTH",
"50 9 OFFCURVE",
"59 0 OFFCURVE",
"70 0 CURVE SMOOTH",
"111 0 LINE SMOOTH",
"122 0 OFFCURVE",
"131 9 OFFCURVE",
"131 20 CURVE SMOOTH",
"131 439 LINE SMOOTH",
"131 450 OFFCURVE",
"140 459 OFFCURVE",
"151 459 CURVE SMOOTH",
"350 459 LINE SMOOTH",
"361 459 OFFCURVE",
"370 450 OFFCURVE",
"370 439 CURVE SMOOTH",
"370 20 LINE",
"370 20 LINE",
"370 20 LINE"
);
}
);
width = 501;
}
);
unicode = 1268;
},
{
glyphname = "vu-ethiopic";
lastChange = "2020-12-29 09:19:18 +0000";
layers = (
{
components = (
{
name = _part.hoo;
transform = "{1, 0, 0, 1, -39, 0}";
}
);
layerId = "A36D14D1-FF07-4574-A62D-30DF65569781";
paths = (
{
closed = 1;
nodes = (
"84 545 OFFCURVE",
"93 540 OFFCURVE",
"104 540 CURVE SMOOTH",
"392 540 LINE SMOOTH",
"403 540 OFFCURVE",
"412 546 OFFCURVE",
"412 553 CURVE SMOOTH",
"412 560 OFFCURVE",
"403 566 OFFCURVE",
"392 566 CURVE SMOOTH",
"104 566 LINE SMOOTH",
"93 566 OFFCURVE",
"84 560 OFFCURVE",
"84 553 CURVE SMOOTH"
);
},
{
closed = 1;
nodes = (
"370 9 OFFCURVE",
"379 0 OFFCURVE",
"390 0 CURVE SMOOTH",
"431 0 LINE SMOOTH",
"442 0 OFFCURVE",
"451 9 OFFCURVE",
"451 20 CURVE SMOOTH",
"451 449 LINE SMOOTH",
"451 478 OFFCURVE",
"429 500 OFFCURVE",
"400 500 CURVE SMOOTH",
"101 500 LINE SMOOTH",
"72 500 OFFCURVE",
"50 478 OFFCURVE",
"50 449 CURVE SMOOTH",
"50 20 LINE SMOOTH",
"50 9 OFFCURVE",
"59 0 OFFCURVE",
"70 0 CURVE SMOOTH",
"111 0 LINE SMOOTH",
"122 0 OFFCURVE",
"131 9 OFFCURVE",
"131 20 CURVE SMOOTH",
"131 439 LINE SMOOTH",
"131 450 OFFCURVE",
"140 459 OFFCURVE",
"151 459 CURVE SMOOTH",
"350 459 LINE SMOOTH",
"361 459 OFFCURVE",
"370 450 OFFCURVE",
"370 439 CURVE SMOOTH",
"370 20 LINE",
"370 20 LINE",
"370 20 LINE"
);
}
);
width = 591;
}
);
unicode = 1269;
},
{
glyphname = "vi-ethiopic";
lastChange = "2020-12-29 09:19:18 +0000";
layers = (
{
layerId = "A36D14D1-FF07-4574-A62D-30DF65569781";
paths = (
{
closed = 1;
nodes = (
"84 545 OFFCURVE",
"93 540 OFFCURVE",
"104 540 CURVE SMOOTH",
"392 540 LINE SMOOTH",
"403 540 OFFCURVE",
"412 546 OFFCURVE",
"412 553 CURVE SMOOTH",
"412 560 OFFCURVE",
"403 566 OFFCURVE",
"392 566 CURVE SMOOTH",
"104 566 LINE SMOOTH",
"93 566 OFFCURVE",
"84 560 OFFCURVE",
"84 553 CURVE SMOOTH"
);
},
{
closed = 1;
nodes = (
"370 9 OFFCURVE",
"379 0 OFFCURVE",
"390 0 CURVE SMOOTH",
"431 0 LINE SMOOTH",
"442 0 OFFCURVE",
"451 9 OFFCURVE",
"451 20 CURVE SMOOTH",
"451 449 LINE SMOOTH",
"451 478 OFFCURVE",
"429 500 OFFCURVE",
"400 500 CURVE SMOOTH",
"101 500 LINE SMOOTH",
"72 500 OFFCURVE",
"50 478 OFFCURVE",
"50 449 CURVE SMOOTH",
"50 20 LINE SMOOTH",
"50 9 OFFCURVE",
"59 0 OFFCURVE",
"70 0 CURVE SMOOTH",
"111 0 LINE SMOOTH",
"122 0 OFFCURVE",
"131 9 OFFCURVE",
"131 20 CURVE SMOOTH",
"131 439 LINE SMOOTH",
"131 450 OFFCURVE",
"140 459 OFFCURVE",
"151 459 CURVE SMOOTH",
"350 459 LINE SMOOTH",
"361 459 OFFCURVE",
"370 450 OFFCURVE",
"370 439 CURVE SMOOTH",
"370 20 LINE",
"370 20 LINE",
"370 20 LINE"
);
},
{
closed = 1;
nodes = (
"373 -162 LINE",
"483 -162 LINE SMOOTH",
"494 -162 OFFCURVE",
"503 -153 OFFCURVE",
"503 -142 CURVE SMOOTH",
"503 -141 LINE SMOOTH",
"503 -130 OFFCURVE",
"494 -121 OFFCURVE",
"483 -121 CURVE SMOOTH",
"373 -121 LINE",
"373 -121 LINE",
"373 -121 LINE"
);
},
{
closed = 1;
nodes = (
"372 -20 LINE",
"372 -162 LINE",
"413 -162 LINE",
"413 -21 LINE",
"413 -21 LINE",
"413 -21 LINE"
);
}
);
width = 553;
}
);
unicode = 126A;
},
{
glyphname = "vaa-ethiopic";
lastChange = "2020-12-29 09:19:18 +0000";
layers = (
{
layerId = "A36D14D1-FF07-4574-A62D-30DF65569781";
paths = (
{
closed = 1;
nodes = (
"84 545 OFFCURVE",
"93 540 OFFCURVE",
"104 540 CURVE SMOOTH",
"392 540 LINE SMOOTH",
"403 540 OFFCURVE",
"412 546 OFFCURVE",
"412 553 CURVE SMOOTH",
"412 560 OFFCURVE",
"403 566 OFFCURVE",
"392 566 CURVE SMOOTH",
"104 566 LINE SMOOTH",
"93 566 OFFCURVE",
"84 560 OFFCURVE",
"84 553 CURVE SMOOTH"
);
},
{
closed = 1;
nodes = (
"370 9 OFFCURVE",
"379 0 OFFCURVE",
"390 0 CURVE SMOOTH",
"431 0 LINE SMOOTH",
"442 0 OFFCURVE",
"451 9 OFFCURVE",
"451 20 CURVE SMOOTH",
"451 449 LINE SMOOTH",
"451 478 OFFCURVE",
"429 500 OFFCURVE",
"400 500 CURVE SMOOTH",
"101 500 LINE SMOOTH",
"72 500 OFFCURVE",
"50 478 OFFCURVE",
"50 449 CURVE SMOOTH",
"50 20 LINE SMOOTH",
"50 9 OFFCURVE",
"59 0 OFFCURVE",
"70 0 CURVE SMOOTH",
"111 0 LINE SMOOTH",
"122 0 OFFCURVE",
"131 9 OFFCURVE",
"131 20 CURVE SMOOTH",
"131 439 LINE SMOOTH",
"131 450 OFFCURVE",
"140 459 OFFCURVE",
"151 459 CURVE SMOOTH",
"350 459 LINE SMOOTH",
"361 459 OFFCURVE",
"370 450 OFFCURVE",
"370 439 CURVE SMOOTH",
"370 20 LINE",
"370 20 LINE",
"370 20 LINE"
);
},
{
closed = 1;
nodes = (
"380 -23 LINE",
"380 -180 LINE SMOOTH",
"380 -191 OFFCURVE",
"389 -200 OFFCURVE",
"400 -200 CURVE SMOOTH",
"401 -200 LINE SMOOTH",
"412 -200 OFFCURVE",
"421 -191 OFFCURVE",
"421 -180 CURVE SMOOTH",
"421 -23 LINE",
"421 -23 LINE",
"421 -23 LINE"
);
}
);
width = 501;
}
);
unicode = 126B;
},
{
glyphname = "vee-ethiopic";
lastChange = "2020-12-29 09:19:18 +0000";
layers = (
{
layerId = "A36D14D1-FF07-4574-A62D-30DF65569781";
paths = (
{
closed = 1;
nodes = (
"84 545 OFFCURVE",
"93 540 OFFCURVE",
"104 540 CURVE SMOOTH",
"392 540 LINE SMOOTH",
"403 540 OFFCURVE",
"412 546 OFFCURVE",
"412 553 CURVE SMOOTH",
"412 560 OFFCURVE",
"403 566 OFFCURVE",
"392 566 CURVE SMOOTH",
"104 566 LINE SMOOTH",
"93 566 OFFCURVE",
"84 560 OFFCURVE",
"84 553 CURVE SMOOTH"
);
},
{
closed = 1;
nodes = (
"370 9 OFFCURVE",
"379 0 OFFCURVE",
"390 0 CURVE SMOOTH",
"431 0 LINE SMOOTH",
"442 0 OFFCURVE",
"451 9 OFFCURVE",
"451 20 CURVE SMOOTH",
"451 449 LINE SMOOTH",
"451 478 OFFCURVE",
"429 500 OFFCURVE",
"400 500 CURVE SMOOTH",
"101 500 LINE SMOOTH",
"72 500 OFFCURVE",
"50 478 OFFCURVE",
"50 449 CURVE SMOOTH",
"50 20 LINE SMOOTH",
"50 9 OFFCURVE",
"59 0 OFFCURVE",
"70 0 CURVE SMOOTH",
"111 0 LINE SMOOTH",
"122 0 OFFCURVE",
"131 9 OFFCURVE",
"131 20 CURVE SMOOTH",
"131 439 LINE SMOOTH",
"131 450 OFFCURVE",
"140 459 OFFCURVE",
"151 459 CURVE SMOOTH",
"350 459 LINE SMOOTH",
"361 459 OFFCURVE",
"370 450 OFFCURVE",
"370 439 CURVE SMOOTH",
"370 20 LINE",
"370 20 LINE",
"370 20 LINE"
);
},
{
closed = 1;
nodes = (
"456 -150 OFFCURVE",
"490 -113 OFFCURVE",
"490 -67 CURVE SMOOTH",
"490 -21 OFFCURVE",
"456 16 OFFCURVE",
"411 16 CURVE SMOOTH",
"366 16 OFFCURVE",
"332 -21 OFFCURVE",
"332 -67 CURVE SMOOTH",
"332 -113 OFFCURVE",
"366 -150 OFFCURVE",
"411 -150 CURVE SMOOTH"
);
},
{
closed = 1;
nodes = (
"383 -118 OFFCURVE",
"362 -96 OFFCURVE",
"362 -67 CURVE SMOOTH",
"362 -38 OFFCURVE",
"383 -16 OFFCURVE",
"411 -16 CURVE SMOOTH",
"439 -16 OFFCURVE",
"460 -38 OFFCURVE",
"460 -67 CURVE SMOOTH",
"460 -96 OFFCURVE",
"439 -118 OFFCURVE",
"411 -118 CURVE SMOOTH"
);
}
);
width = 540;
}
);
unicode = 126C;
},
{
glyphname = "ve-ethiopic";
lastChange = "2020-12-29 09:19:18 +0000";
layers = (
{
components = (
{
name = _part.hoo;
transform = "{-1, 0, 0, 1, 630, 0}";
}
);
layerId = "A36D14D1-FF07-4574-A62D-30DF65569781";
paths = (
{
closed = 1;
nodes = (
"177 545 OFFCURVE",
"186 540 OFFCURVE",
"197 540 CURVE SMOOTH",
"485 540 LINE SMOOTH",
"496 540 OFFCURVE",
"505 546 OFFCURVE",
"505 553 CURVE SMOOTH",
"505 560 OFFCURVE",
"496 566 OFFCURVE",
"485 566 CURVE SMOOTH",
"197 566 LINE SMOOTH",
"186 566 OFFCURVE",
"177 560 OFFCURVE",
"177 553 CURVE SMOOTH"
);
},
{
closed = 1;
nodes = (
"463 9 OFFCURVE",
"472 0 OFFCURVE",
"483 0 CURVE SMOOTH",
"524 0 LINE SMOOTH",
"535 0 OFFCURVE",
"544 9 OFFCURVE",
"544 20 CURVE SMOOTH",
"544 449 LINE SMOOTH",
"544 478 OFFCURVE",
"522 500 OFFCURVE",
"493 500 CURVE SMOOTH",
"194 500 LINE SMOOTH",
"165 500 OFFCURVE",
"143 478 OFFCURVE",
"143 449 CURVE SMOOTH",
"143 20 LINE SMOOTH",
"143 9 OFFCURVE",
"152 0 OFFCURVE",
"163 0 CURVE SMOOTH",
"204 0 LINE SMOOTH",
"215 0 OFFCURVE",
"224 9 OFFCURVE",
"224 20 CURVE SMOOTH",
"224 439 LINE SMOOTH",
"224 450 OFFCURVE",
"233 459 OFFCURVE",
"244 459 CURVE SMOOTH",
"443 459 LINE SMOOTH",
"454 459 OFFCURVE",
"463 450 OFFCURVE",
"463 439 CURVE SMOOTH",
"463 20 LINE",
"463 20 LINE",
"463 20 LINE"
);
}
);
width = 594;
}
);
unicode = 126D;
},
{
glyphname = "vo-ethiopic";
lastChange = "2020-12-29 09:19:18 +0000";
layers = (
{
layerId = "A36D14D1-FF07-4574-A62D-30DF65569781";
paths = (
{
closed = 1;
nodes = (
"84 545 OFFCURVE",
"93 540 OFFCURVE",
"104 540 CURVE SMOOTH",
"392 540 LINE SMOOTH",
"403 540 OFFCURVE",
"412 546 OFFCURVE",
"412 553 CURVE SMOOTH",
"412 560 OFFCURVE",
"403 566 OFFCURVE",
"392 566 CURVE SMOOTH",
"104 566 LINE SMOOTH",
"93 566 OFFCURVE",
"84 560 OFFCURVE",
"84 553 CURVE SMOOTH"
);
},
{
closed = 1;
nodes = (
"370 9 OFFCURVE",
"379 0 OFFCURVE",
"390 0 CURVE SMOOTH",
"431 0 LINE SMOOTH",
"442 0 OFFCURVE",
"451 9 OFFCURVE",
"451 20 CURVE SMOOTH",
"451 449 LINE SMOOTH",
"451 478 OFFCURVE",
"429 500 OFFCURVE",
"400 500 CURVE SMOOTH",
"101 500 LINE SMOOTH",
"72 500 OFFCURVE",
"50 478 OFFCURVE",
"50 449 CURVE SMOOTH",
"50 20 LINE SMOOTH",
"50 9 OFFCURVE",
"59 0 OFFCURVE",
"70 0 CURVE SMOOTH",
"111 0 LINE SMOOTH",
"122 0 OFFCURVE",
"131 9 OFFCURVE",
"131 20 CURVE SMOOTH",
"131 439 LINE SMOOTH",
"131 450 OFFCURVE",
"140 459 OFFCURVE",
"151 459 CURVE SMOOTH",
"350 459 LINE SMOOTH",
"361 459 OFFCURVE",
"370 450 OFFCURVE",
"370 439 CURVE SMOOTH",
"370 20 LINE",
"370 20 LINE",
"370 20 LINE"
);
},
{
closed = 1;
nodes = (
"50 -23 LINE",
"50 -180 LINE SMOOTH",
"50 -191 OFFCURVE",
"59 -200 OFFCURVE",
"70 -200 CURVE SMOOTH",
"71 -200 LINE SMOOTH",
"82 -200 OFFCURVE",
"91 -191 OFFCURVE",
"91 -180 CURVE SMOOTH",
"91 -23 LINE",
"91 -23 LINE",
"91 -23 LINE"
);
}
);
width = 501;
}
);
unicode = 126E;
},
{
glyphname = "vwa-ethiopic";
lastChange = "2020-12-29 09:19:18 +0000";
layers = (
{
components = (
{
name = _part.hoa;
transform = "{1, 0, 0, 1, -39, 0}";
}
);
layerId = "A36D14D1-FF07-4574-A62D-30DF65569781";
paths = (
{
closed = 1;
nodes = (
"84 545 OFFCURVE",
"93 540 OFFCURVE",
"104 540 CURVE SMOOTH",
"392 540 LINE SMOOTH",
"403 540 OFFCURVE",
"412 546 OFFCURVE",
"412 553 CURVE SMOOTH",
"412 560 OFFCURVE",
"403 566 OFFCURVE",
"392 566 CURVE SMOOTH",
"104 566 LINE SMOOTH",
"93 566 OFFCURVE",
"84 560 OFFCURVE",
"84 553 CURVE SMOOTH"
);
},
{
closed = 1;
nodes = (
"370 9 OFFCURVE",
"379 0 OFFCURVE",
"390 0 CURVE SMOOTH",
"431 0 LINE SMOOTH",
"442 0 OFFCURVE",
"451 9 OFFCURVE",
"451 20 CURVE SMOOTH",
"451 449 LINE SMOOTH",
"451 478 OFFCURVE",
"429 500 OFFCURVE",
"400 500 CURVE SMOOTH",
"101 500 LINE SMOOTH",
"72 500 OFFCURVE",
"50 478 OFFCURVE",
"50 449 CURVE SMOOTH",
"50 20 LINE SMOOTH",
"50 9 OFFCURVE",
"59 0 OFFCURVE",
"70 0 CURVE SMOOTH",
"111 0 LINE SMOOTH",
"122 0 OFFCURVE",
"131 9 OFFCURVE",
"131 20 CURVE SMOOTH",
"131 439 LINE SMOOTH",
"131 450 OFFCURVE",
"140 459 OFFCURVE",
"151 459 CURVE SMOOTH",
"350 459 LINE SMOOTH",
"361 459 OFFCURVE",
"370 450 OFFCURVE",
"370 439 CURVE SMOOTH",
"370 20 LINE",
"370 20 LINE",
"370 20 LINE"
);
}
);
width = 523;
}
);
unicode = 126F;
},
{
glyphname = "ta-ethiopic";
lastChange = "2020-12-29 09:19:18 +0000";
layers = (
{
layerId = "A36D14D1-FF07-4574-A62D-30DF65569781";
paths = (
{
closed = 1;
nodes = (
"315 500 LINE SMOOTH",
"304 500 OFFCURVE",
"295 509 OFFCURVE",
"295 520 CURVE SMOOTH",
"295 678 LINE SMOOTH",
"295 689 OFFCURVE",
"286 698 OFFCURVE",
"275 698 CURVE SMOOTH",
"235 699 LINE SMOOTH",
"223 699 OFFCURVE",
"214 690 OFFCURVE",
"214 678 CURVE SMOOTH",
"214 520 LINE SMOOTH",
"214 509 OFFCURVE",
"205 500 OFFCURVE",
"194 500 CURVE SMOOTH",
"70 500 LINE SMOOTH",
"59 500 OFFCURVE",
"50 491 OFFCURVE",
"50 480 CURVE SMOOTH",
"50 479 LINE SMOOTH",
"50 468 OFFCURVE",
"59 459 OFFCURVE",
"70 459 CURVE SMOOTH",
"194 459 LINE SMOOTH",
"205 459 OFFCURVE",
"214 450 OFFCURVE",
"214 439 CURVE SMOOTH",
"214 20 LINE SMOOTH",
"214 9 OFFCURVE",
"223 0 OFFCURVE",
"234 0 CURVE SMOOTH",
"275 0 LINE SMOOTH",
"286 0 OFFCURVE",
"295 9 OFFCURVE",
"295 20 CURVE SMOOTH",
"295 439 LINE SMOOTH",
"295 450 OFFCURVE",
"304 459 OFFCURVE",
"315 459 CURVE SMOOTH",
"439 459 LINE SMOOTH",
"450 459 OFFCURVE",
"459 468 OFFCURVE",
"459 479 CURVE SMOOTH",
"459 480 LINE SMOOTH",
"459 491 OFFCURVE",
"450 500 OFFCURVE",
"439 500 CURVE SMOOTH"
);
}
);
width = 509;
}
);
unicode = 1270;
},
{
glyphname = "tu-ethiopic";
lastChange = "2020-12-29 09:19:18 +0000";
layers = (
{
layerId = "A36D14D1-FF07-4574-A62D-30DF65569781";
paths = (
{
closed = 1;
nodes = (
"315 500 LINE SMOOTH",
"304 500 OFFCURVE",
"295 509 OFFCURVE",
"295 520 CURVE SMOOTH",
"295 678 LINE SMOOTH",
"295 689 OFFCURVE",
"286 698 OFFCURVE",
"275 698 CURVE SMOOTH",
"235 699 LINE SMOOTH",
"223 699 OFFCURVE",
"214 690 OFFCURVE",
"214 678 CURVE SMOOTH",
"214 520 LINE SMOOTH",
"214 509 OFFCURVE",
"205 500 OFFCURVE",
"194 500 CURVE SMOOTH",
"70 500 LINE SMOOTH",
"59 500 OFFCURVE",
"50 491 OFFCURVE",
"50 480 CURVE SMOOTH",
"50 479 LINE SMOOTH",
"50 468 OFFCURVE",
"59 459 OFFCURVE",
"70 459 CURVE SMOOTH",
"194 459 LINE SMOOTH",
"205 459 OFFCURVE",
"214 450 OFFCURVE",
"214 439 CURVE SMOOTH",
"214 20 LINE SMOOTH",
"214 9 OFFCURVE",
"223 0 OFFCURVE",
"234 0 CURVE SMOOTH",
"275 0 LINE SMOOTH",
"286 0 OFFCURVE",
"295 9 OFFCURVE",
"295 20 CURVE SMOOTH",
"295 439 LINE SMOOTH",
"295 450 OFFCURVE",
"304 459 OFFCURVE",
"315 459 CURVE SMOOTH",
"439 459 LINE SMOOTH",
"450 459 OFFCURVE",
"459 468 OFFCURVE",
"459 479 CURVE SMOOTH",
"459 480 LINE SMOOTH",
"459 491 OFFCURVE",
"450 500 OFFCURVE",
"439 500 CURVE SMOOTH"
);
},
{
closed = 1;
nodes = (
"402 275 OFFCURVE",
"393 284 OFFCURVE",
"382 284 CURVE SMOOTH",
"302 284 LINE",
"302 243 LINE",
"382 243 LINE SMOOTH",
"393 243 OFFCURVE",
"402 252 OFFCURVE",
"402 263 CURVE SMOOTH",
"402 264 LINE",
"402 264 LINE",
"402 264 LINE"
);
}
);
width = 509;
}
);
unicode = 1271;
},
{
glyphname = "ti-ethiopic";
lastChange = "2020-12-29 09:19:18 +0000";
layers = (
{
layerId = "A36D14D1-FF07-4574-A62D-30DF65569781";
paths = (
{
closed = 1;
nodes = (
"315 500 LINE SMOOTH",
"304 500 OFFCURVE",
"295 509 OFFCURVE",
"295 520 CURVE SMOOTH",
"295 678 LINE SMOOTH",
"295 689 OFFCURVE",
"286 698 OFFCURVE",
"275 698 CURVE SMOOTH",
"235 699 LINE SMOOTH",
"223 699 OFFCURVE",
"214 690 OFFCURVE",
"214 678 CURVE SMOOTH",
"214 520 LINE SMOOTH",
"214 509 OFFCURVE",
"205 500 OFFCURVE",
"194 500 CURVE SMOOTH",
"70 500 LINE SMOOTH",
"59 500 OFFCURVE",
"50 491 OFFCURVE",
"50 480 CURVE SMOOTH",
"50 479 LINE SMOOTH",
"50 468 OFFCURVE",
"59 459 OFFCURVE",
"70 459 CURVE SMOOTH",
"194 459 LINE SMOOTH",
"205 459 OFFCURVE",
"214 450 OFFCURVE",
"214 439 CURVE SMOOTH",
"214 20 LINE SMOOTH",
"214 9 OFFCURVE",
"223 0 OFFCURVE",
"234 0 CURVE SMOOTH",
"275 0 LINE SMOOTH",
"286 0 OFFCURVE",
"295 9 OFFCURVE",
"295 20 CURVE SMOOTH",
"295 439 LINE SMOOTH",
"295 450 OFFCURVE",
"304 459 OFFCURVE",
"315 459 CURVE SMOOTH",
"439 459 LINE SMOOTH",
"450 459 OFFCURVE",
"459 468 OFFCURVE",
"459 479 CURVE SMOOTH",
"459 480 LINE SMOOTH",
"459 491 OFFCURVE",
"450 500 OFFCURVE",
"439 500 CURVE SMOOTH"
);
},
{
closed = 1;
nodes = (
"215 -162 LINE",
"325 -162 LINE SMOOTH",
"336 -162 OFFCURVE",
"345 -153 OFFCURVE",
"345 -142 CURVE SMOOTH",
"345 -141 LINE SMOOTH",
"345 -130 OFFCURVE",
"336 -121 OFFCURVE",
"325 -121 CURVE SMOOTH",
"215 -121 LINE",
"215 -121 LINE",
"215 -121 LINE"
);
},
{
closed = 1;
nodes = (
"214 -20 LINE",
"214 -162 LINE",
"255 -162 LINE",
"255 -21 LINE",
"255 -21 LINE",
"255 -21 LINE"
);
}
);
width = 509;
}
);
unicode = 1272;
},
{
glyphname = "taa-ethiopic";
lastChange = "2020-12-29 09:19:18 +0000";
layers = (
{
layerId = "A36D14D1-FF07-4574-A62D-30DF65569781";
paths = (
{
closed = 1;
nodes = (
"315 500 LINE SMOOTH",
"304 500 OFFCURVE",
"295 509 OFFCURVE",
"295 520 CURVE SMOOTH",
"295 678 LINE SMOOTH",
"295 689 OFFCURVE",
"286 698 OFFCURVE",
"275 698 CURVE SMOOTH",
"235 699 LINE SMOOTH",
"223 699 OFFCURVE",
"214 690 OFFCURVE",
"214 678 CURVE SMOOTH",
"214 520 LINE SMOOTH",
"214 509 OFFCURVE",
"205 500 OFFCURVE",
"194 500 CURVE SMOOTH",
"70 500 LINE SMOOTH",
"59 500 OFFCURVE",
"50 491 OFFCURVE",
"50 480 CURVE SMOOTH",
"50 479 LINE SMOOTH",
"50 468 OFFCURVE",
"59 459 OFFCURVE",
"70 459 CURVE SMOOTH",
"194 459 LINE SMOOTH",
"205 459 OFFCURVE",
"214 450 OFFCURVE",
"214 439 CURVE SMOOTH",
"214 20 LINE SMOOTH",
"214 9 OFFCURVE",
"223 0 OFFCURVE",
"234 0 CURVE SMOOTH",
"275 0 LINE SMOOTH",
"286 0 OFFCURVE",
"295 9 OFFCURVE",
"295 20 CURVE SMOOTH",
"295 439 LINE SMOOTH",
"295 450 OFFCURVE",
"304 459 OFFCURVE",
"315 459 CURVE SMOOTH",
"439 459 LINE SMOOTH",
"450 459 OFFCURVE",
"459 468 OFFCURVE",
"459 479 CURVE SMOOTH",
"459 480 LINE SMOOTH",
"459 491 OFFCURVE",
"450 500 OFFCURVE",
"439 500 CURVE SMOOTH"
);
},
{
closed = 1;
nodes = (
"179 -121 LINE SMOOTH",
"168 -121 OFFCURVE",
"159 -130 OFFCURVE",
"159 -141 CURVE SMOOTH",
"159 -142 LINE SMOOTH",
"159 -153 OFFCURVE",
"168 -162 OFFCURVE",
"179 -162 CURVE SMOOTH",
"289 -162 LINE",
"289 -121 LINE",
"289 -121 LINE",
"289 -121 LINE"
);
},
{
closed = 1;
nodes = (
"249 -162 LINE",
"290 -162 LINE",
"290 -20 LINE",
"249 -21 LINE",
"249 -21 LINE",
"249 -21 LINE"
);
}
);
width = 509;
}
);
unicode = 1273;
},
{
glyphname = "tee-ethiopic";
lastChange = "2020-12-29 09:19:18 +0000";
layers = (
{
layerId = "A36D14D1-FF07-4574-A62D-30DF65569781";
paths = (
{
closed = 1;
nodes = (
"315 500 LINE SMOOTH",
"304 500 OFFCURVE",
"295 509 OFFCURVE",
"295 520 CURVE SMOOTH",
"295 678 LINE SMOOTH",
"295 689 OFFCURVE",
"286 698 OFFCURVE",
"275 698 CURVE SMOOTH",
"235 699 LINE SMOOTH",
"223 699 OFFCURVE",
"214 690 OFFCURVE",
"214 678 CURVE SMOOTH",
"214 520 LINE SMOOTH",
"214 509 OFFCURVE",
"205 500 OFFCURVE",
"194 500 CURVE SMOOTH",
"70 500 LINE SMOOTH",
"59 500 OFFCURVE",
"50 491 OFFCURVE",
"50 480 CURVE SMOOTH",
"50 479 LINE SMOOTH",
"50 468 OFFCURVE",
"59 459 OFFCURVE",
"70 459 CURVE SMOOTH",
"194 459 LINE SMOOTH",
"205 459 OFFCURVE",
"214 450 OFFCURVE",
"214 439 CURVE SMOOTH",
"214 20 LINE SMOOTH",
"214 9 OFFCURVE",
"223 0 OFFCURVE",
"234 0 CURVE SMOOTH",
"275 0 LINE SMOOTH",
"286 0 OFFCURVE",
"295 9 OFFCURVE",
"295 20 CURVE SMOOTH",
"295 439 LINE SMOOTH",
"295 450 OFFCURVE",
"304 459 OFFCURVE",
"315 459 CURVE SMOOTH",
"439 459 LINE SMOOTH",
"450 459 OFFCURVE",
"459 468 OFFCURVE",
"459 479 CURVE SMOOTH",
"459 480 LINE SMOOTH",
"459 491 OFFCURVE",
"450 500 OFFCURVE",
"439 500 CURVE SMOOTH"
);
},
{
closed = 1;
nodes = (
"386 -120 OFFCURVE",
"420 -83 OFFCURVE",
"420 -37 CURVE SMOOTH",
"420 9 OFFCURVE",
"386 46 OFFCURVE",
"341 46 CURVE SMOOTH",
"296 46 OFFCURVE",
"262 9 OFFCURVE",
"262 -37 CURVE SMOOTH",
"262 -83 OFFCURVE",
"296 -120 OFFCURVE",
"341 -120 CURVE SMOOTH"
);
},
{
closed = 1;
nodes = (
"313 -88 OFFCURVE",
"292 -66 OFFCURVE",
"292 -37 CURVE SMOOTH",
"292 -8 OFFCURVE",
"313 14 OFFCURVE",
"341 14 CURVE SMOOTH",
"369 14 OFFCURVE",
"390 -8 OFFCURVE",
"390 -37 CURVE SMOOTH",
"390 -66 OFFCURVE",
"369 -88 OFFCURVE",
"341 -88 CURVE SMOOTH"
);
}
);
width = 509;
}
);
unicode = 1274;
},
{
glyphname = "te-ethiopic";
lastChange = "2020-12-29 09:19:18 +0000";
layers = (
{
layerId = "A36D14D1-FF07-4574-A62D-30DF65569781";
paths = (
{
closed = 1;
nodes = (
"127 608 LINE",
"237 608 LINE SMOOTH",
"248 608 OFFCURVE",
"257 617 OFFCURVE",
"257 628 CURVE SMOOTH",
"257 629 LINE SMOOTH",
"257 640 OFFCURVE",
"248 649 OFFCURVE",
"237 649 CURVE SMOOTH",
"127 649 LINE",
"127 649 LINE",
"127 649 LINE"
);
},
{
closed = 1;
nodes = (
"126 700 LINE",
"126 608 LINE",
"167 608 LINE",
"167 699 LINE",
"167 699 LINE",
"167 699 LINE"
);
},
{
closed = 1;
nodes = (
"315 500 LINE SMOOTH",
"304 500 OFFCURVE",
"295 509 OFFCURVE",
"295 520 CURVE SMOOTH",
"295 582 LINE SMOOTH",
"295 593 OFFCURVE",
"286 602 OFFCURVE",
"275 602 CURVE SMOOTH",
"235 603 LINE SMOOTH",
"223 603 OFFCURVE",
"214 594 OFFCURVE",
"214 582 CURVE SMOOTH",
"214 520 LINE SMOOTH",
"214 509 OFFCURVE",
"205 500 OFFCURVE",
"194 500 CURVE SMOOTH",
"70 500 LINE SMOOTH",
"59 500 OFFCURVE",
"50 491 OFFCURVE",
"50 480 CURVE SMOOTH",
"50 479 LINE SMOOTH",
"50 468 OFFCURVE",
"59 459 OFFCURVE",
"70 459 CURVE SMOOTH",
"194 459 LINE SMOOTH",
"205 459 OFFCURVE",
"214 450 OFFCURVE",
"214 439 CURVE SMOOTH",
"214 20 LINE SMOOTH",
"214 9 OFFCURVE",
"223 0 OFFCURVE",
"234 0 CURVE SMOOTH",
"275 0 LINE SMOOTH",
"286 0 OFFCURVE",
"295 9 OFFCURVE",
"295 20 CURVE SMOOTH",
"295 439 LINE SMOOTH",
"295 450 OFFCURVE",
"304 459 OFFCURVE",
"315 459 CURVE SMOOTH",
"439 459 LINE SMOOTH",
"450 459 OFFCURVE",
"459 468 OFFCURVE",
"459 479 CURVE SMOOTH",
"459 480 LINE SMOOTH",
"459 491 OFFCURVE",
"450 500 OFFCURVE",
"439 500 CURVE SMOOTH"
);
}
);
width = 509;
}
);
unicode = 1275;
},
{
glyphname = "to-ethiopic";
lastChange = "2020-12-29 09:19:18 +0000";
layers = (
{
layerId = "A36D14D1-FF07-4574-A62D-30DF65569781";
paths = (
{
closed = 1;
nodes = (
"301 539 OFFCURVE",
"335 576 OFFCURVE",
"335 622 CURVE SMOOTH",
"335 668 OFFCURVE",
"301 705 OFFCURVE",
"256 705 CURVE SMOOTH",
"211 705 OFFCURVE",
"177 668 OFFCURVE",
"177 622 CURVE SMOOTH",
"177 576 OFFCURVE",
"211 539 OFFCURVE",
"256 539 CURVE SMOOTH"
);
},
{
closed = 1;
nodes = (
"228 571 OFFCURVE",
"207 593 OFFCURVE",
"207 622 CURVE SMOOTH",
"207 651 OFFCURVE",
"228 673 OFFCURVE",
"256 673 CURVE SMOOTH",
"284 673 OFFCURVE",
"305 651 OFFCURVE",
"305 622 CURVE SMOOTH",
"305 593 OFFCURVE",
"284 571 OFFCURVE",
"256 571 CURVE SMOOTH"
);
},
{
closed = 1;
nodes = (
"315 500 LINE SMOOTH",
"304 500 OFFCURVE",
"295 509 OFFCURVE",
"295 520 CURVE SMOOTH",
"295 540 LINE SMOOTH",
"295 551 OFFCURVE",
"286 560 OFFCURVE",
"275 560 CURVE SMOOTH",
"235 561 LINE SMOOTH",
"223 561 OFFCURVE",
"214 552 OFFCURVE",
"214 540 CURVE SMOOTH",
"214 520 LINE SMOOTH",
"214 509 OFFCURVE",
"205 500 OFFCURVE",
"194 500 CURVE SMOOTH",
"70 500 LINE SMOOTH",
"59 500 OFFCURVE",
"50 491 OFFCURVE",
"50 480 CURVE SMOOTH",
"50 479 LINE SMOOTH",
"50 468 OFFCURVE",
"59 459 OFFCURVE",
"70 459 CURVE SMOOTH",
"194 459 LINE SMOOTH",
"205 459 OFFCURVE",
"214 450 OFFCURVE",
"214 439 CURVE SMOOTH",
"214 20 LINE SMOOTH",
"214 9 OFFCURVE",
"223 0 OFFCURVE",
"234 0 CURVE SMOOTH",
"275 0 LINE SMOOTH",
"286 0 OFFCURVE",
"295 9 OFFCURVE",
"295 20 CURVE SMOOTH",
"295 439 LINE SMOOTH",
"295 450 OFFCURVE",
"304 459 OFFCURVE",
"315 459 CURVE SMOOTH",
"439 459 LINE SMOOTH",
"450 459 OFFCURVE",
"459 468 OFFCURVE",
"459 479 CURVE SMOOTH",
"459 480 LINE SMOOTH",
"459 491 OFFCURVE",
"450 500 OFFCURVE",
"439 500 CURVE SMOOTH"
);
}
);
width = 509;
}
);
unicode = 1276;
},
{
glyphname = "twa-ethiopic";
lastChange = "2020-12-29 09:19:18 +0000";
layers = (
{
layerId = "A36D14D1-FF07-4574-A62D-30DF65569781";
paths = (
{
closed = 1;
nodes = (
"315 500 LINE SMOOTH",
"304 500 OFFCURVE",
"295 509 OFFCURVE",
"295 520 CURVE SMOOTH",
"295 678 LINE SMOOTH",
"295 689 OFFCURVE",
"286 698 OFFCURVE",
"275 698 CURVE SMOOTH",
"235 699 LINE SMOOTH",
"223 699 OFFCURVE",
"214 690 OFFCURVE",
"214 678 CURVE SMOOTH",
"214 520 LINE SMOOTH",
"214 509 OFFCURVE",
"205 500 OFFCURVE",
"194 500 CURVE SMOOTH",
"70 500 LINE SMOOTH",
"59 500 OFFCURVE",
"50 491 OFFCURVE",
"50 480 CURVE SMOOTH",
"50 479 LINE SMOOTH",
"50 468 OFFCURVE",
"59 459 OFFCURVE",
"70 459 CURVE SMOOTH",
"194 459 LINE SMOOTH",
"205 459 OFFCURVE",
"214 450 OFFCURVE",
"214 439 CURVE SMOOTH",
"214 20 LINE SMOOTH",
"214 9 OFFCURVE",
"223 0 OFFCURVE",
"234 0 CURVE SMOOTH",
"275 0 LINE SMOOTH",
"286 0 OFFCURVE",
"295 9 OFFCURVE",
"295 20 CURVE SMOOTH",
"295 439 LINE SMOOTH",
"295 450 OFFCURVE",
"304 459 OFFCURVE",
"315 459 CURVE SMOOTH",
"439 459 LINE SMOOTH",
"450 459 OFFCURVE",
"459 468 OFFCURVE",
"459 479 CURVE SMOOTH",
"459 480 LINE SMOOTH",
"459 491 OFFCURVE",
"450 500 OFFCURVE",
"439 500 CURVE SMOOTH"
);
},
{
closed = 1;
nodes = (
"145 -12 LINE",
"145 -122 LINE SMOOTH",
"145 -133 OFFCURVE",
"154 -142 OFFCURVE",
"165 -142 CURVE SMOOTH",
"166 -142 LINE SMOOTH",
"177 -142 OFFCURVE",
"186 -133 OFFCURVE",
"186 -122 CURVE SMOOTH",
"186 -12 LINE",
"186 -12 LINE",
"186 -12 LINE"
);
},
{
closed = 1;
nodes = (
"287 -11 LINE",
"145 -11 LINE",
"145 -52 LINE",
"286 -52 LINE",
"286 -52 LINE",
"286 -52 LINE"
);
}
);
width = 509;
}
);
unicode = 1277;
},
{
glyphname = "ca-ethiopic";
lastChange = "2020-12-29 09:19:18 +0000";
layers = (
{
layerId = "A36D14D1-FF07-4574-A62D-30DF65569781";
paths = (
{
closed = 1;
nodes = (
"90 680 OFFCURVE",
"99 675 OFFCURVE",
"110 675 CURVE SMOOTH",
"398 675 LINE SMOOTH",
"409 675 OFFCURVE",
"418 681 OFFCURVE",
"418 688 CURVE SMOOTH",
"418 695 OFFCURVE",
"409 701 OFFCURVE",
"398 701 CURVE SMOOTH",
"110 701 LINE SMOOTH",
"99 701 OFFCURVE",
"90 695 OFFCURVE",
"90 688 CURVE SMOOTH"
);
},
{
closed = 1;
nodes = (
"315 500 LINE SMOOTH",
"304 500 OFFCURVE",
"295 509 OFFCURVE",
"295 520 CURVE SMOOTH",
"295 678 LINE SMOOTH",
"295 689 OFFCURVE",
"286 698 OFFCURVE",
"275 698 CURVE SMOOTH",
"235 699 LINE SMOOTH",
"223 699 OFFCURVE",
"214 690 OFFCURVE",
"214 678 CURVE SMOOTH",
"214 520 LINE SMOOTH",
"214 509 OFFCURVE",
"205 500 OFFCURVE",
"194 500 CURVE SMOOTH",
"70 500 LINE SMOOTH",
"59 500 OFFCURVE",
"50 491 OFFCURVE",
"50 480 CURVE SMOOTH",
"50 479 LINE SMOOTH",
"50 468 OFFCURVE",
"59 459 OFFCURVE",
"70 459 CURVE SMOOTH",
"194 459 LINE SMOOTH",
"205 459 OFFCURVE",
"214 450 OFFCURVE",
"214 439 CURVE SMOOTH",
"214 20 LINE SMOOTH",
"214 9 OFFCURVE",
"223 0 OFFCURVE",
"234 0 CURVE SMOOTH",
"275 0 LINE SMOOTH",
"286 0 OFFCURVE",
"295 9 OFFCURVE",
"295 20 CURVE SMOOTH",
"295 439 LINE SMOOTH",
"295 450 OFFCURVE",
"304 459 OFFCURVE",
"315 459 CURVE SMOOTH",
"439 459 LINE SMOOTH",
"450 459 OFFCURVE",
"459 468 OFFCURVE",
"459 479 CURVE SMOOTH",
"459 480 LINE SMOOTH",
"459 491 OFFCURVE",
"450 500 OFFCURVE",
"439 500 CURVE SMOOTH"
);
}
);
width = 509;
}
);
unicode = 1278;
},
{
glyphname = "cu-ethiopic";
lastChange = "2020-12-29 09:19:18 +0000";
layers = (
{
layerId = "A36D14D1-FF07-4574-A62D-30DF65569781";
paths = (
{
closed = 1;
nodes = (
"90 680 OFFCURVE",
"99 675 OFFCURVE",
"110 675 CURVE SMOOTH",
"398 675 LINE SMOOTH",
"409 675 OFFCURVE",
"418 681 OFFCURVE",
"418 688 CURVE SMOOTH",
"418 695 OFFCURVE",
"409 701 OFFCURVE",
"398 701 CURVE SMOOTH",
"110 701 LINE SMOOTH",
"99 701 OFFCURVE",
"90 695 OFFCURVE",
"90 688 CURVE SMOOTH"
);
},
{
closed = 1;
nodes = (
"315 500 LINE SMOOTH",
"304 500 OFFCURVE",
"295 509 OFFCURVE",
"295 520 CURVE SMOOTH",
"295 678 LINE SMOOTH",
"295 689 OFFCURVE",
"286 698 OFFCURVE",
"275 698 CURVE SMOOTH",
"235 699 LINE SMOOTH",
"223 699 OFFCURVE",
"214 690 OFFCURVE",
"214 678 CURVE SMOOTH",
"214 520 LINE SMOOTH",
"214 509 OFFCURVE",
"205 500 OFFCURVE",
"194 500 CURVE SMOOTH",
"70 500 LINE SMOOTH",
"59 500 OFFCURVE",
"50 491 OFFCURVE",
"50 480 CURVE SMOOTH",
"50 479 LINE SMOOTH",
"50 468 OFFCURVE",
"59 459 OFFCURVE",
"70 459 CURVE SMOOTH",
"194 459 LINE SMOOTH",
"205 459 OFFCURVE",
"214 450 OFFCURVE",
"214 439 CURVE SMOOTH",
"214 20 LINE SMOOTH",
"214 9 OFFCURVE",
"223 0 OFFCURVE",
"234 0 CURVE SMOOTH",
"275 0 LINE SMOOTH",
"286 0 OFFCURVE",
"295 9 OFFCURVE",
"295 20 CURVE SMOOTH",
"295 439 LINE SMOOTH",
"295 450 OFFCURVE",
"304 459 OFFCURVE",
"315 459 CURVE SMOOTH",
"439 459 LINE SMOOTH",
"450 459 OFFCURVE",
"459 468 OFFCURVE",
"459 479 CURVE SMOOTH",
"459 480 LINE SMOOTH",
"459 491 OFFCURVE",
"450 500 OFFCURVE",
"439 500 CURVE SMOOTH"
);
},
{
closed = 1;
nodes = (
"402 275 OFFCURVE",
"393 284 OFFCURVE",
"382 284 CURVE SMOOTH",
"302 284 LINE",
"302 243 LINE",
"382 243 LINE SMOOTH",
"393 243 OFFCURVE",
"402 252 OFFCURVE",
"402 263 CURVE SMOOTH",
"402 264 LINE",
"402 264 LINE",
"402 264 LINE"
);
}
);
width = 509;
}
);
unicode = 1279;
},
{
glyphname = "ci-ethiopic";
lastChange = "2020-12-29 09:19:18 +0000";
layers = (
{
layerId = "A36D14D1-FF07-4574-A62D-30DF65569781";
paths = (
{
closed = 1;
nodes = (
"90 678 OFFCURVE",
"99 673 OFFCURVE",
"110 673 CURVE SMOOTH",
"398 673 LINE SMOOTH",
"409 673 OFFCURVE",
"418 679 OFFCURVE",
"418 686 CURVE SMOOTH",
"418 693 OFFCURVE",
"409 699 OFFCURVE",
"398 699 CURVE SMOOTH",
"110 699 LINE SMOOTH",
"99 699 OFFCURVE",
"90 693 OFFCURVE",
"90 686 CURVE SMOOTH"
);
},
{
closed = 1;
nodes = (
"315 500 LINE SMOOTH",
"304 500 OFFCURVE",
"295 509 OFFCURVE",
"295 520 CURVE SMOOTH",
"295 678 LINE SMOOTH",
"295 689 OFFCURVE",
"286 698 OFFCURVE",
"275 698 CURVE SMOOTH",
"235 699 LINE SMOOTH",
"223 699 OFFCURVE",
"214 690 OFFCURVE",
"214 678 CURVE SMOOTH",
"214 520 LINE SMOOTH",
"214 509 OFFCURVE",
"205 500 OFFCURVE",
"194 500 CURVE SMOOTH",
"70 500 LINE SMOOTH",
"59 500 OFFCURVE",
"50 491 OFFCURVE",
"50 480 CURVE SMOOTH",
"50 479 LINE SMOOTH",
"50 468 OFFCURVE",
"59 459 OFFCURVE",
"70 459 CURVE SMOOTH",
"194 459 LINE SMOOTH",
"205 459 OFFCURVE",
"214 450 OFFCURVE",
"214 439 CURVE SMOOTH",
"214 20 LINE SMOOTH",
"214 9 OFFCURVE",
"223 0 OFFCURVE",
"234 0 CURVE SMOOTH",
"275 0 LINE SMOOTH",
"286 0 OFFCURVE",
"295 9 OFFCURVE",
"295 20 CURVE SMOOTH",
"295 439 LINE SMOOTH",
"295 450 OFFCURVE",
"304 459 OFFCURVE",
"315 459 CURVE SMOOTH",
"439 459 LINE SMOOTH",
"450 459 OFFCURVE",
"459 468 OFFCURVE",
"459 479 CURVE SMOOTH",
"459 480 LINE SMOOTH",
"459 491 OFFCURVE",
"450 500 OFFCURVE",
"439 500 CURVE SMOOTH"
);
},
{
closed = 1;
nodes = (
"215 -162 LINE",
"325 -162 LINE SMOOTH",
"336 -162 OFFCURVE",
"345 -153 OFFCURVE",
"345 -142 CURVE SMOOTH",
"345 -141 LINE SMOOTH",
"345 -130 OFFCURVE",
"336 -121 OFFCURVE",
"325 -121 CURVE SMOOTH",
"215 -121 LINE",
"215 -121 LINE",
"215 -121 LINE"
);
},
{
closed = 1;
nodes = (
"214 -20 LINE",
"214 -162 LINE",
"255 -162 LINE",
"255 -21 LINE",
"255 -21 LINE",
"255 -21 LINE"
);
}
);
width = 509;
}
);
unicode = 127A;
},
{
glyphname = "caa-ethiopic";
lastChange = "2020-12-29 09:19:18 +0000";
layers = (
{
layerId = "A36D14D1-FF07-4574-A62D-30DF65569781";
paths = (
{
closed = 1;
nodes = (
"90 678 OFFCURVE",
"99 673 OFFCURVE",
"110 673 CURVE SMOOTH",
"398 673 LINE SMOOTH",
"409 673 OFFCURVE",
"418 679 OFFCURVE",
"418 686 CURVE SMOOTH",
"418 693 OFFCURVE",
"409 699 OFFCURVE",
"398 699 CURVE SMOOTH",
"110 699 LINE SMOOTH",
"99 699 OFFCURVE",
"90 693 OFFCURVE",
"90 686 CURVE SMOOTH"
);
},
{
closed = 1;
nodes = (
"315 500 LINE SMOOTH",
"304 500 OFFCURVE",
"295 509 OFFCURVE",
"295 520 CURVE SMOOTH",
"295 678 LINE SMOOTH",
"295 689 OFFCURVE",
"286 698 OFFCURVE",
"275 698 CURVE SMOOTH",
"235 699 LINE SMOOTH",
"223 699 OFFCURVE",
"214 690 OFFCURVE",
"214 678 CURVE SMOOTH",
"214 520 LINE SMOOTH",
"214 509 OFFCURVE",
"205 500 OFFCURVE",
"194 500 CURVE SMOOTH",
"70 500 LINE SMOOTH",
"59 500 OFFCURVE",
"50 491 OFFCURVE",
"50 480 CURVE SMOOTH",
"50 479 LINE SMOOTH",
"50 468 OFFCURVE",
"59 459 OFFCURVE",
"70 459 CURVE SMOOTH",
"194 459 LINE SMOOTH",
"205 459 OFFCURVE",
"214 450 OFFCURVE",
"214 439 CURVE SMOOTH",
"214 20 LINE SMOOTH",
"214 9 OFFCURVE",
"223 0 OFFCURVE",
"234 0 CURVE SMOOTH",
"275 0 LINE SMOOTH",
"286 0 OFFCURVE",
"295 9 OFFCURVE",
"295 20 CURVE SMOOTH",
"295 439 LINE SMOOTH",
"295 450 OFFCURVE",
"304 459 OFFCURVE",
"315 459 CURVE SMOOTH",
"439 459 LINE SMOOTH",
"450 459 OFFCURVE",
"459 468 OFFCURVE",
"459 479 CURVE SMOOTH",
"459 480 LINE SMOOTH",
"459 491 OFFCURVE",
"450 500 OFFCURVE",
"439 500 CURVE SMOOTH"
);
},
{
closed = 1;
nodes = (
"179 -121 LINE SMOOTH",
"168 -121 OFFCURVE",
"159 -130 OFFCURVE",
"159 -141 CURVE SMOOTH",
"159 -142 LINE SMOOTH",
"159 -153 OFFCURVE",
"168 -162 OFFCURVE",
"179 -162 CURVE SMOOTH",
"289 -162 LINE",
"289 -121 LINE",
"289 -121 LINE",
"289 -121 LINE"
);
},
{
closed = 1;
nodes = (
"249 -162 LINE",
"290 -162 LINE",
"290 -20 LINE",
"249 -21 LINE",
"249 -21 LINE",
"249 -21 LINE"
);
}
);
width = 509;
}
);
unicode = 127B;
},
{
glyphname = "cee-ethiopic";
lastChange = "2020-12-29 09:19:18 +0000";
layers = (
{
layerId = "A36D14D1-FF07-4574-A62D-30DF65569781";
paths = (
{
closed = 1;
nodes = (
"90 678 OFFCURVE",
"99 673 OFFCURVE",
"110 673 CURVE SMOOTH",
"398 673 LINE SMOOTH",
"409 673 OFFCURVE",
"418 679 OFFCURVE",
"418 686 CURVE SMOOTH",
"418 693 OFFCURVE",
"409 699 OFFCURVE",
"398 699 CURVE SMOOTH",
"110 699 LINE SMOOTH",
"99 699 OFFCURVE",
"90 693 OFFCURVE",
"90 686 CURVE SMOOTH"
);
},
{
closed = 1;
nodes = (
"315 500 LINE SMOOTH",
"304 500 OFFCURVE",
"295 509 OFFCURVE",
"295 520 CURVE SMOOTH",
"295 678 LINE SMOOTH",
"295 689 OFFCURVE",
"286 698 OFFCURVE",
"275 698 CURVE SMOOTH",
"235 699 LINE SMOOTH",
"223 699 OFFCURVE",
"214 690 OFFCURVE",
"214 678 CURVE SMOOTH",
"214 520 LINE SMOOTH",
"214 509 OFFCURVE",
"205 500 OFFCURVE",
"194 500 CURVE SMOOTH",
"70 500 LINE SMOOTH",
"59 500 OFFCURVE",
"50 491 OFFCURVE",
"50 480 CURVE SMOOTH",
"50 479 LINE SMOOTH",
"50 468 OFFCURVE",
"59 459 OFFCURVE",
"70 459 CURVE SMOOTH",
"194 459 LINE SMOOTH",
"205 459 OFFCURVE",
"214 450 OFFCURVE",
"214 439 CURVE SMOOTH",
"214 20 LINE SMOOTH",
"214 9 OFFCURVE",
"223 0 OFFCURVE",
"234 0 CURVE SMOOTH",
"275 0 LINE SMOOTH",
"286 0 OFFCURVE",
"295 9 OFFCURVE",
"295 20 CURVE SMOOTH",
"295 439 LINE SMOOTH",
"295 450 OFFCURVE",
"304 459 OFFCURVE",
"315 459 CURVE SMOOTH",
"439 459 LINE SMOOTH",
"450 459 OFFCURVE",
"459 468 OFFCURVE",
"459 479 CURVE SMOOTH",
"459 480 LINE SMOOTH",
"459 491 OFFCURVE",
"450 500 OFFCURVE",
"439 500 CURVE SMOOTH"
);
},
{
closed = 1;
nodes = (
"386 -120 OFFCURVE",
"420 -83 OFFCURVE",
"420 -37 CURVE SMOOTH",
"420 9 OFFCURVE",
"386 46 OFFCURVE",
"341 46 CURVE SMOOTH",
"296 46 OFFCURVE",
"262 9 OFFCURVE",
"262 -37 CURVE SMOOTH",
"262 -83 OFFCURVE",
"296 -120 OFFCURVE",
"341 -120 CURVE SMOOTH"
);
},
{
closed = 1;
nodes = (
"313 -88 OFFCURVE",
"292 -66 OFFCURVE",
"292 -37 CURVE SMOOTH",
"292 -8 OFFCURVE",
"313 14 OFFCURVE",
"341 14 CURVE SMOOTH",
"369 14 OFFCURVE",
"390 -8 OFFCURVE",
"390 -37 CURVE SMOOTH",
"390 -66 OFFCURVE",
"369 -88 OFFCURVE",
"341 -88 CURVE SMOOTH"
);
}
);
width = 509;
}
);
unicode = 127C;
},
